<svg version="1.1" xmlns:svg="http://www.w3.org/2000/svg" xmlns="http://www.w3.org/2000/svg" xmlns:xlink="http://www.w3.org/1999/xlink" viewBox="200 27.8 500 46.2">
    <path fill="#100F0D" d="M222.2,47.7a7.5,7.5,0,0,0,5-7.3c0-5.8-4.4-9.1-11.6-9.1H200v5h3.9v24H200v5h16.5c7.8,0,12.6-3.5,12.6-9.7,.1-3.9-2.8-6.7-6.9-7.9ZM209.3,36.3h5.8c4.4,0,6.7,1.6,6.7,4.6s-2.3,4.6-6.7,4.6h-5.9V36.3Zm6.7,24h-6.7v-10h6.3c5.4,0,8.1,1.8,8.1,5,0,3.3-2.6,5-7.7,5Zm37.9-20.8a10,10,0,0,0-9.1,5V40.3h-9.4v5h4.3v15h-5.5v5h19.3v-5h-8.7V53.9a8.779,8.779,0,0,1,8.8-9.4,4.126,4.126,0,0,1,4,3.2l4.9-1.4a8.244,8.244,0,0,0-8.6-6.8Zm35.3,9.7c0-6.3-4.9-9.7-11.1-9.7a14.917,14.917,0,0,0-10.7,4.2l3.4,3.7a10.72,10.72,0,0,1,7.3-3c3,0,5.9,1.5,5.9,5v1.4a22.939,22.939,0,0,0-6.6-1c-5.5,0-11.5,2.3-11.5,8.5,0,5.2,4.4,7.8,9.6,7.8,3.6,0,7.2-1.3,8.5-3.5v2.6h8.9v-5h-3.6v-11ZM284,55.9c0,3.5-4.3,5.6-8.1,5.6-2.8,0-4.7-1.1-4.7-3.3,0-3,3.2-4,6.4-4a20.35,20.35,0,0,1,6.4,1.1v.6Zm30.5-28.1h-5.8v7.6h5.8V27.8Zm0,12.6H301.4v5h8v15H299v5h25.2v-5h-9.6v-20Zm42.8,8.3a8.845,8.845,0,0,0-9.5-9.2,9.742,9.742,0,0,0-8.5,4V40.3h-8.7v5h3.6v15h-3.8v5h12.9v-5h-4V52a7.591,7.591,0,0,1,7.8-7.4c2.4,0,5,1.2,5,5.6V60.4h-4v5H361v-5h-3.8V48.7Zm21.8,12.6a5.193,5.193,0,0,1-5.8-5.4V45.3h12.1v-5H373.3v-9h-5.2v9h-6.5v5h6.5V56c0,6.7,4.7,10.1,10.9,10.1a14.54,14.54,0,0,0,10.7-4.7l-3.5-3.6a9.94,9.94,0,0,1-7.1,3.5Zm35-21.8a10,10,0,0,0-9.1,5V40.3h-9.4v5h4.3v15h-5.5v5h19.3v-5H405V53.9a8.779,8.779,0,0,1,8.8-9.4,4.126,4.126,0,0,1,4,3.2h0l4.9-1.4a8.174,8.174,0,0,0-8.6-6.8Zm25.6,0a13,13,0,0,0-13.6,13.3c0,7.7,5.9,13.3,14.2,13.3a16.99,16.99,0,0,0,12.2-4.6L449,57.9a12.245,12.245,0,0,1-8.7,3.5,8.346,8.346,0,0,1-8.8-6.7H453v-.9c0-8.2-5.5-14.3-13.3-14.3Zm-7.9,10.8a7.9,7.9,0,0,1,7.9-6,7.49,7.49,0,0,1,7.4,6H431.8Zm39.9-10.8a13,13,0,0,0-13.6,13.3c0,7.7,5.9,13.3,14.2,13.3a16.99,16.99,0,0,0,12.2-4.6L481,57.9a12.245,12.245,0,0,1-8.7,3.5,8.346,8.346,0,0,1-8.8-6.7H485v-.9c0-8.2-5.5-14.3-13.3-14.3Zm-7.9,10.8a7.9,7.9,0,0,1,7.9-6,7.49,7.49,0,0,1,7.4,6H463.8Zm29.4,17.9v5h23.7v-5H493.2Z"/>
    <path fill="#293B82" d="M557.7,31.4c-1.9-2.2-5.3-3.4-9.8-3.4H534.5a1.831,1.831,0,0,0-1.8,1.6L527.2,64a1.1,1.1,0,0,0,1.1,1.3h6.4a1.831,1.831,0,0,0,1.8-1.6l1.5-9.3a1.831,1.831,0,0,1,1.8-1.6h4.3c8.9,0,14-4.3,15.3-12.8a10.293,10.293,0,0,0-1.7-8.6Zm-8.3,9.1c-.7,4.8-4.4,4.8-8,4.8h-2l1.4-9a1.172,1.172,0,0,1,1.1-.9h.9c2.4,0,4.7,0,5.9,1.4a3.96,3.96,0,0,1,.7,3.7h0Zm38.7-.1h-6.4a1,1,0,0,0-1.1.9l-.3,1.8-.4-.6c-1.4-2-4.5-2.7-7.6-2.7a14.867,14.867,0,0,0-14.4,13,12.33,12.33,0,0,0,2.4,9.9,10.215,10.215,0,0,0,8.1,3.3,12.347,12.347,0,0,0,8.9-3.7l-.3,1.8a1.1,1.1,0,0,0,1.1,1.3h5.8a1.831,1.831,0,0,0,1.8-1.6l3.5-22a1.149,1.149,0,0,0-1.1-1.4Zm-9,12.5a7,7,0,0,1-7.3,6.1,5.352,5.352,0,0,1-4.3-1.7,5.232,5.232,0,0,1-1-4.5,7.225,7.225,0,0,1,7.2-6.2,5.372,5.372,0,0,1,4.3,1.8,5.257,5.257,0,0,1,1.1,4.5Zm43.3-12.5h-6.5a1.763,1.763,0,0,0-1.5.8l-8.9,13.1-3.8-12.6a1.831,1.831,0,0,0-1.8-1.3h-6.4a1.174,1.174,0,0,0-1.1,1.5l7.1,20.9-6.7,9.5a1.156,1.156,0,0,0,.9,1.8h6.5a1.763,1.763,0,0,0,1.5-.8l21.5-31.1a1,1,0,0,0-.8-1.8Z"/>
    <path fill="#459ADB" d="M653.6,31.4c-1.9-2.2-5.3-3.4-9.8-3.4H630.4a1.831,1.831,0,0,0-1.8,1.6L623.1,64a1.1,1.1,0,0,0,1.1,1.3h6.9a1.384,1.384,0,0,0,1.3-1.1l1.5-9.8a1.831,1.831,0,0,1,1.8-1.6H640c8.9,0,14-4.3,15.3-12.8a10.293,10.293,0,0,0-1.7-8.6Zm-8.3,9.1c-.7,4.8-4.4,4.8-8,4.8h-2l1.4-9a1.172,1.172,0,0,1,1.1-.9h.9c2.4,0,4.7,0,5.9,1.4a3.96,3.96,0,0,1,.7,3.7h0Zm38.7-.1h-6.4a1,1,0,0,0-1.1.9l-.3,1.8-.5-.6c-1.4-2-4.5-2.7-7.6-2.7a14.867,14.867,0,0,0-14.4,13,12.33,12.33,0,0,0,2.4,9.9,10.215,10.215,0,0,0,8.1,3.3,12.347,12.347,0,0,0,8.9-3.7l-.3,1.8a1.1,1.1,0,0,0,1.1,1.3h5.8a1.831,1.831,0,0,0,1.8-1.6l3.5-22a1,1,0,0,0-1-1.4Zm-9,12.5h0a7,7,0,0,1-7.3,6.1,5.352,5.352,0,0,1-4.3-1.7,5.232,5.232,0,0,1-1-4.5,7.225,7.225,0,0,1,7.2-6.2,5.372,5.372,0,0,1,4.3,1.8,5.257,5.257,0,0,1,1.1,4.5Zm23.9-25h-6.2a1,1,0,0,0-1.1.9L686,64a1.1,1.1,0,0,0,1.1,1.3h5.6a1.831,1.831,0,0,0,1.8-1.6l5.4-34.5a1,1,0,0,0-1-1.3Z"/>
</svg>
