<svg version="1.1" xmlns="http://www.w3.org/2000/svg" xmlns:xlink="http://www.w3.org/1999/xlink" viewBox="0 42.6 100 17.4">
<path fill="#262C31" d="M39,55c-2.4,0-4-1.8-4-4.1c0-2.4,1.7-4,3.9-4c1,0,1.7,0.3,2,0.5c-0.1,0.1-0.1,0.4-0.1,0.6c0,0.7,0.5,1.2,1.3,1.2c0.7,0,1.2-0.6,1.2-1.4c0-1.4-1.8-2.7-4.4-2.7c-3.3,0-5.9,2.5-5.9,5.9c0,3.5,2.5,5.9,6,5.9c1.8,0,3.4-0.7,4.5-2l-1.3-1.3C41.4,54.4,40.3,55,39,55z M48.2,49c-2.5,0-4,1.8-4,3.9c0,2.1,1.5,3.9,4,3.9c2.5,0,4-1.8,4-3.9C52.2,50.8,50.7,49,48.2,49z M48.2,55.2c-1.2,0-2.1-1-2.1-2.3s0.9-2.3,2.1-2.3c1.2,0,2.1,1,2.1,2.3S49.4,55.2,48.2,55.2z M65.4,51.5c0-0.5-0.1-1-0.3-1.4C64.7,49.3,64,49,63,49c-1,0-1.8,0.5-2.5,1.2c-0.1-0.2-0.1-0.3-0.2-0.4c-0.4-0.5-1-0.8-1.8-0.8c-1.1,0-1.9,0.7-2.5,1.3v-1.2H53v1.6h1.1v4.4H53v1.5h4v-1.5h-1v-3.6c0.6-0.5,1.2-0.8,1.8-0.8c0.4,0,0.7,0.2,0.9,0.5c0.1,0.2,0.1,0.4,0.1,0.7v3.2h-1v1.5h3.9v-1.5h-1v-3.6c0.6-0.5,1.2-0.8,1.8-0.8c0.4,0,0.7,0.2,0.9,0.5c0.1,0.2,0.1,0.4,0.1,0.7v3.2h-1v1.5h4v-1.5h-1.1V51.5z M72,49c-1,0-1.6,0.4-2.2,1v-0.9h-2.9v1.6h1.1v7.8h-1.1V60H71v-1.5h-1.2V56c0.6,0.4,1.2,0.7,2,0.7c2,0,3.6-1.8,3.6-3.9C75.4,50.6,73.9,49,72,49z M71.5,55.2c-0.7,0-1.3-0.2-1.8-0.6v-3.2c0.5-0.4,1-0.8,1.8-0.8c1.1,0,1.9,0.8,1.9,2.3C73.5,54.3,72.5,55.2,71.5,55.2z M80.2,49c-2.5,0-4,1.8-4,3.9c0,2.1,1.5,3.9,4,3.9c2.5,0,4-1.8,4-3.9C84.2,50.8,82.7,49,80.2,49z M80.2,55.2c-1.2,0-2.1-1-2.1-2.3s0.9-2.3,2.1-2.3c1.2,0,2.1,1,2.1,2.3S81.4,55.2,80.2,55.2z M88.8,52.1c-1.2-0.3-1.6-0.5-1.6-1c0-0.4,0.4-0.8,1.3-0.8c0.4,0,0.8,0.1,1.1,0.2c0,0.1,0,0.2,0,0.3c0,0.6,0.4,0.9,1,0.9c0.6,0,0.9-0.4,0.9-1c0-0.4-0.1-0.7-0.4-1c-0.5-0.5-1.6-0.9-2.5-0.9c-2.1,0-3.1,1.2-3.1,2.4c0,1.3,0.9,1.8,3,2.3c1.2,0.3,1.5,0.5,1.5,0.9c0,0.5-0.6,0.8-1.4,0.8c-0.5,0-1-0.1-1.4-0.2c0-0.1,0-0.2,0-0.3c0-0.7-0.5-1-1-1c-0.6,0-1,0.5-1,1c0,0.4,0.1,0.7,0.4,1c0.5,0.5,1.7,0.9,2.9,0.9c1.7,0,3.2-0.8,3.2-2.4C91.6,53,90.6,52.6,88.8,52.1z M100,52.6c0-2-1.3-3.6-3.7-3.6c-2.3,0-3.8,1.8-3.8,3.9c0,2.3,1.7,3.9,4.2,3.9c1.1,0,2.1-0.2,2.9-0.7l0.2-1.7c-0.9,0.5-1.8,0.8-2.7,0.8c-1.3,0-2.2-0.5-2.5-1.7h5.4C100,53.2,100,52.9,100,52.6z M94.5,52.2c0.2-1.2,1-1.7,1.9-1.7c1.1,0,1.8,0.7,1.8,1.7H94.5z M10.7,45.8l-5.3-3.1L0,45.8v5.6l10.8,6.3l5.4-3.1l5.3,3.1l5.4-3.1v-5.6l-10.8-6.3L10.7,45.8z M1.2,46.4L5.4,44l4.2,2.4l-4.2,2.4L1.2,46.4z M10.8,52l-4.2-2.4l4.2-2.4l4.2,2.4L10.8,52z M25.8,49.6L21.6,52l-4.2-2.4l4.2-2.4L25.8,49.6z M16.2,48.9L12,46.5l4.2-2.4l4.2,2.4L16.2,48.9z"/>
</svg>
