<svg version="1.1" xmlns="http://www.w3.org/2000/svg" xmlns:xlink="http://www.w3.org/1999/xlink" width="170" height="48" viewBox="-24.6 55.7 299 42.3">
    <path fill="#231F20" d="M-24.6,93.1H3.8v5H-24.6Zm14.3-15.3-6.4-13.6h-7.9V89.6h6V74.1l6.5,13.2v.1h3.5L-2,74.1V89.6H3.8V64.2H-3.9ZM22.3,64.2H16.7L5.7,89.6H12l2.3-5.4H24.6l2.3,5.3v.1h6.2L22.3,64.2h0Zm.1,14.7H16.5l3-6.8,2.9,6.8Zm33.4-6.3a7.914,7.914,0,0,0-2.5-6.4,14,14,0,0,0-8.4-2H35.3V89.6h5.8v-8h3.6l5.5,7.9v.1h7.2l-6.4-9a7.86,7.86,0,0,0,4.8-8Zm-6,0a3.655,3.655,0,0,1-1,2.9,6,6,0,0,1-3.8.9H41V69.2h4.1a6.671,6.671,0,0,1,3.7.7,3,3,0,0,1,1,2.7Zm25.9-8.4L66.4,74.3V64.2H60.6V89.6h5.8V82.4l2.4-2.6,7.3,9.8v.1h6.8l-.1-.2c-1.1-1.6-2.9-4-5.2-7.3-2.4-3.3-3.9-5.4-4.7-6.6L83,64.3H75.7v-.1ZM91.9,79.3h11.3v-5H91.9V69.4h12.6V64.2H86.1V89.6h18.8V84.3h-13Zm15.6-10.1h7.1V89.6h5.9V69.2h7.1v-5H107.5Zm40.7-2.8a13,13,0,0,0-8.5-2.3h-9V89.5h5.8v-7h3.2a12.86,12.86,0,0,0,8.3-2.2,8.521,8.521,0,0,0,2.8-6.9,8.337,8.337,0,0,0-2.6-7ZM144,76.3a4.939,4.939,0,0,1-3.7,1.1h-3.6V69.2h3.1a7.176,7.176,0,0,1,4,.9,3.557,3.557,0,0,1,1.3,3,6.329,6.329,0,0,1-1.1,3.2Zm15.5-12.1h-5.9V89.6h16.6V84.2H159.5Zm27.7,0h-5.6L170.7,89.6h6.2l2.3-5.4h10.3l2.3,5.3v.1H198L187.2,64.2h0Zm.2,14.7h-5.9l3-6.8,2.9,6.8Zm23.8-15.3a12.899,12.899,0,0,0-9.4,3.8,13.279,13.279,0,0,0-.1,18.7,13.365,13.365,0,0,0,9.6,3.7A13,13,0,0,0,221.4,85l.1-.1L217.7,81l-.1.1a8.146,8.146,0,0,1-6.6,3.2,6.568,6.568,0,0,1-5-2.1,7.386,7.386,0,0,1-2.1-5.5,7,7,0,0,1,2.2-5.5,7.757,7.757,0,0,1,5.3-2,7.918,7.918,0,0,1,6.5,3.3l.1.1,3.6-4.1,.1-.1-.1-.1a13.55,13.55,0,0,0-10.4-4.7Zm19.7,15.7h11.2v-5H230.9V69.4h12.5V64.2H225.1V89.6h18.7V84.3H230.9ZM263,80.4c3.1-1.2,4.7-3.8,4.7-7.8a7.914,7.914,0,0,0-2.5-6.4,14,14,0,0,0-8.4-2h-9.6V89.6H253v-8h3.7l5.5,7.9v.1h7.2L263,80.4Zm-1.2-7.8a3.655,3.655,0,0,1-1,2.9,6,6,0,0,1-3.8.9h-4V69.2h4.1a6.671,6.671,0,0,1,3.7.7,3.386,3.386,0,0,1,1,2.7Zm8.3-8h-1v2.8h-.5V64.6h-1v-.4h2.6v.4h-.1Zm4.2,2.8h-.5V64.7h0l-1.1,2.7h-.3l-1.1-2.7h0v2.7h-.5V64.2h.8l1,2.5,1-2.5h.8v3.2h-.1Z"/>
</svg>
