<svg version="1.1" xmlns="http://www.w3.org/2000/svg" xmlns:xlink="http://www.w3.org/1999/xlink" viewBox="200 -15.2 500 130.2">
    <path fill="#4E4F57" d="M307.7,27.5c-3.9-3.4-10.4-5.4-17.2-5.4-9.5,0-16.7,3.2-24.6,11.4a29.265,29.265,0,0,0-3.4-4.3,23.36,23.36,0,0,0-17.7-7.1,29.655,29.655,0,0,0-21.2,8.8,21.327,21.327,0,0,0-3-8.8L200,27.7c2.4,4.3,3.3,9.7,3.3,22.3v60.7h22.2V47.2a24,24,0,0,1,14.9-6.6c6.3,0,7.9,2.5,7.9,13.4v56.6h21.6V48.1c4.9-4.4,10.9-7.3,15.1-7.3,5.9,0,7.2,2,7.2,12.4v57.4h22.1V48.7c-.1-11.9-1.6-17-6.6-21.2ZM366,21.9c-23.5,0-39.1,18.2-39.1,45.5s15.4,45,39.1,45c13.4,0,22.1-4.6,28.7-12.1,7.5-8.5,10.9-18.7,10.9-33.6,0-14.1-3.1-23.6-10.1-31.8-7.4-8.8-17.1-13-29.5-13Zm.6,74.1a12.556,12.556,0,0,1-11.5-7.1c-1.9-4.4-2.9-11.9-2.9-21.9a59.972,59.972,0,0,1,2.4-19.4h0a12.238,12.238,0,0,1,11.7-8.8,12,12,0,0,1,9.8,4.6c3,3.9,4.6,11.6,4.6,23.3,0,20.4-4.2,29.3-14.1,29.3ZM478.8,39.2V23.6H414.3v16h37.5L410.9,96.5v14.1h64l5.4-15.8H440.4l38.4-55.6Zm13.1,71.4h22.8v-89l-22.8,3.6v85.4ZM503.6-14.5A14.255,14.255,0,0,0,489.3-.4a14,14,0,0,0,13.9,14.1A13.958,13.958,0,0,0,517.3-.4a13.875,13.875,0,0,0-13.7-14.1ZM562.2,97a5.121,5.121,0,0,1-4.6-2.4c-1.4-2.4-1.5-4.4-1.5-19.4V7.5a133.429,133.429,0,0,0-1.2-22.6L531.6-9.8a238.879,238.879,0,0,1,1.1,26.2V81.3c0,12.4.4,15.1,2.1,19.5,2.7,7.3,10.5,11.9,20.2,11.9a36.615,36.615,0,0,0,13.6-2.4l-3.9-13.6a8.354,8.354,0,0,1-2.5.3Zm47.2,0a4.851,4.851,0,0,1-4.5-2.4c-1.4-2.4-1.6-4.4-1.6-19.4V7.5h0c0-12.3-.3-17.9-1.2-22.6L578.9-9.8a213.524,213.524,0,0,1,1.2,26.2V81.3c0,12.4.3,15.1,2,19.5,2.7,7.3,10.5,11.9,20.2,11.9a36.615,36.615,0,0,0,13.6-2.4L612,96.7a8.633,8.633,0,0,1-2.6.3Zm82.4-13.8V81.7l.6-29.2c.1-9.4-.4-12.1-1.5-15.6-3.4-9.7-13.4-15.1-28.1-15.1A58.38,58.38,0,0,0,639,26.9,80.457,80.457,0,0,0,624.9,34l9.7,16.3c9.3-6.3,17.9-9.8,25.1-9.8,8.4,0,10.3,3.2,10.3,12.9v3.5a46.1,46.1,0,0,0-5.1-.2c-27.7,0-41.8,9.5-41.8,29.9,0,17.3,10.5,27.2,29.9,27.2a29.737,29.737,0,0,0,17.5-4.8,43.493,43.493,0,0,0,5.3-4.6,23.898,23.898,0,0,0,12.3,10.5l12.1-14c-6.9-4.8-8.4-8.3-8.4-17.7Zm-22.6,8a16.495,16.495,0,0,1-11.9,5.9c-5.8,0-10.1-4.6-10.1-11.4,0-10.4,5.5-13.3,21.3-13.3h1.1l-.4,18.8Z"/>
</svg>
