<svg version="1.1" xmlns="http://www.w3.org/2000/svg" xmlns:xlink="http://www.w3.org/1999/xlink" viewBox="200 -4.5 500 109.5">
<path  fill="#F7952E" d="M202.2,43.6l7.9,7.7l25.1,23.4l10.8-10.4c1-1.4,0.9-3.2-0.2-4.5l-9.9-8.7l0,0l-10.7-10.3c-1.2-1.4-1.2-3.5,0.1-4.9l28.7-27.7l-13-12.6l-30.9,29.9l-8,7.7C199.3,36,199.3,40.7,202.2,43.6"/>
<path fill="#3E8AB4" d="M287.8,57l-7.9-7.7l-25.1-23.5l-10.8,10.5c-1,1.4-0.9,3.2,0.2,4.5l9.9,8.7l0,0l10.7,10.3c1.2,1.4,1.2,3.5-0.1,4.9l-28.7,27.7l13,12.6l30.9-29.9l8-7.7C290.7,64.5,290.7,59.9,287.8,57"/>
    <path fill="#2E2D2D" d="M356.9,49.9a21.526,21.526,0,0,0-5.5-2.6c-2.1-.7-4.2-1.2-6.3-1.7-2-.5-4.1-.9-6.1-1.3a29.46,29.46,0,0,1-5.5-1.6,11.225,11.225,0,0,1-4-2.4,5.17,5.17,0,0,1-.6-6.8,8.6,8.6,0,0,1,2.6-2,13.64,13.64,0,0,1,3.6-1,25.613,25.613,0,0,1,3.9-.3,19.923,19.923,0,0,1,4.2.4A14.248,14.248,0,0,1,347,32a8.715,8.715,0,0,1,2.8,2.6,8.29,8.29,0,0,1,1.3,4.1h8.6a18.915,18.915,0,0,0-2-7.7,13.574,13.574,0,0,0-4.6-4.9,17.449,17.449,0,0,0-6.6-2.5,41.783,41.783,0,0,0-8.2-.7,32.474,32.474,0,0,0-6.9.8,25.114,25.114,0,0,0-6.3,2.5,13.2,13.2,0,0,0-4.6,4.5,11.631,11.631,0,0,0-1.8,6.6,10.99,10.99,0,0,0,2.5,7.7,17.645,17.645,0,0,0,6.3,4.3,47.614,47.614,0,0,0,8.3,2.4c3,.6,5.7,1.2,8.3,1.9a22.973,22.973,0,0,1,6.3,2.7,5.382,5.382,0,0,1,2.5,4.9,6,6,0,0,1-1.2,3.9,7.229,7.229,0,0,1-3.1,2.3,16.391,16.391,0,0,1-4.1,1.1,32.187,32.187,0,0,1-4.3.3,27.562,27.562,0,0,1-5.1-.5,16,16,0,0,1-4.5-1.6,9.2,9.2,0,0,1-3.2-3,8.663,8.663,0,0,1-1.3-4.7h-8.6a17.822,17.822,0,0,0,2,8,13.893,13.893,0,0,0,4.9,5.3,21.984,21.984,0,0,0,7,2.9,37,37,0,0,0,8.3.9,44,44,0,0,0,8-.7,22.795,22.795,0,0,0,7.2-2.6,16.218,16.218,0,0,0,5.2-4.9,13.854,13.854,0,0,0,2-7.6,11.739,11.739,0,0,0-1.5-6.1,10.386,10.386,0,0,0-3.7-4.3Zm15.3,24.9h8.6V24.1h-8.6V74.8Zm34-65.9h-8.6V24.1h-8.9v7.4h8.9V63.8a18,18,0,0,0,.7,5.7,7.13,7.13,0,0,0,2.2,3.3,8.675,8.675,0,0,0,3.9,1.6,31.773,31.773,0,0,0,5.7.4h6.6V67.4h-4c-1.3,0-2.5-.1-3.3-.1a5.249,5.249,0,0,1-2-.6,2.434,2.434,0,0,1-1-1.4,7.8,7.8,0,0,1-.3-2.4V31.5h10.4V24.1H406.1V8.9Zm60.7,24a22.87,22.87,0,0,0-7.4-7.1A21.675,21.675,0,0,0,447.9,23a24.656,24.656,0,0,0-9.9,2,22.58,22.58,0,0,0-7.8,5.5,25.127,25.127,0,0,0-5.1,8.3,29.845,29.845,0,0,0-1.8,10.6,36.319,36.319,0,0,0,1.8,10.7,22.927,22.927,0,0,0,4.7,8.4,22,22,0,0,0,7.8,5.5,27.9,27.9,0,0,0,10.9,2,24.246,24.246,0,0,0,14.8-4.3h0a20.183,20.183,0,0,0,7.6-12.8h-8.5a12.117,12.117,0,0,1-4.6,7.5,15.457,15.457,0,0,1-9,2.5,18.779,18.779,0,0,1-7.4-1.4,14,14,0,0,1-5.2-3.7,13,13,0,0,1-2.9-5.3,18.813,18.813,0,0,1-.8-6.3h39.2a41.254,41.254,0,0,0-.9-9.7,27.342,27.342,0,0,0-3.9-9.6ZM432.4,44.6a16.422,16.422,0,0,1,1.3-5.5,15.893,15.893,0,0,1,3-4.6,14.9,14.9,0,0,1,4.6-3.1,14.587,14.587,0,0,1,6-1.1,15.894,15.894,0,0,1,5.9,1.1,18.86,18.86,0,0,1,4.7,3A13.345,13.345,0,0,1,461,39h0a17.73,17.73,0,0,1,1.4,5.6h-30Zm92.1-13.7a20.496,20.496,0,0,0-7.5-5.8,24.73,24.73,0,0,0-10.6-2.2,25.1,25.1,0,0,0-10,1.9,12.925,12.925,0,0,0-6.7,6.1h-.2V24h-8.6V94h8.6V68.1h.2a12.725,12.725,0,0,0,3.5,3.8,21,21,0,0,0,4.4,2.4,27.464,27.464,0,0,0,4.7,1.3,22.924,22.924,0,0,0,4.3.4,24.597,24.597,0,0,0,10.5-2.1,22.37,22.37,0,0,0,7.5-5.6,24.266,24.266,0,0,0,4.5-8.4,35.43,35.43,0,0,0,0-20.4,29.468,29.468,0,0,0-4.6-8.6Zm-3.9,25.4a18.63,18.63,0,0,1-2.6,6.3,13.572,13.572,0,0,1-4.8,4.4,15.4,15.4,0,0,1-7.5,1.7,16.1,16.1,0,0,1-7.6-1.6,14.3,14.3,0,0,1-5.1-4.3,18.11,18.11,0,0,1-2.9-6.1,28.41,28.41,0,0,1-.9-7.2,27.428,27.428,0,0,1,.9-7,17.929,17.929,0,0,1,2.8-6.1,14.223,14.223,0,0,1,5-4.4,15.27,15.27,0,0,1,7.4-1.7,14.729,14.729,0,0,1,7.2,1.6,14.949,14.949,0,0,1,5.1,4.2,18.555,18.555,0,0,1,2.9,6,27.397,27.397,0,0,1,1,6.9,44.142,44.142,0,0,1-.9,7.3Zm61.6-25.6a21.828,21.828,0,0,0-8-5.6,29.598,29.598,0,0,0-21.9,0,22.734,22.734,0,0,0-12.9,14,31.929,31.929,0,0,0-1.6,10.4,31.929,31.929,0,0,0,1.6,10.4,23.546,23.546,0,0,0,4.9,8.4,23,23,0,0,0,8,5.6,30.975,30.975,0,0,0,21.9,0,22.692,22.692,0,0,0,8-5.6,23.546,23.546,0,0,0,4.9-8.4,31.929,31.929,0,0,0,1.6-10.4,31.929,31.929,0,0,0-1.6-10.4,25.825,25.825,0,0,0-4.9-8.4Zm-3.9,27a17.599,17.599,0,0,1-3.5,6,15.944,15.944,0,0,1-5.2,3.7,15.915,15.915,0,0,1-12.6,0,14.593,14.593,0,0,1-5.2-3.7,16.128,16.128,0,0,1-3.5-6,25.64,25.64,0,0,1-1.3-8.2,23.142,23.142,0,0,1,1.3-8.2,16.128,16.128,0,0,1,3.5-6,14.593,14.593,0,0,1,5.2-3.7,16.895,16.895,0,0,1,6.3-1.3,15.136,15.136,0,0,1,6.3,1.3,15.944,15.944,0,0,1,5.2,3.7,17.599,17.599,0,0,1,3.5,6,25.64,25.64,0,0,1,1.3,8.2,28.758,28.758,0,0,1-1.3,8.2Zm21,17.1h8.6V24.1h-8.6V74.8Zm61.5-46.6a14.259,14.259,0,0,0-5.6-3.8,23.8,23.8,0,0,0-8.6-1.4c-7.8,0-13.4,3.1-17,9.2h-.2v-8h-8.1V74.9h8.6V46.2a18.1,18.1,0,0,1,1-6.3,14.382,14.382,0,0,1,2.9-5.1,13.7,13.7,0,0,1,4.8-3.3,17.585,17.585,0,0,1,6.8-1.2,10.88,10.88,0,0,1,7.8,2.7,9.8,9.8,0,0,1,2.8,7.5V74.8h8.6V41.5a29.652,29.652,0,0,0-.9-7.5,12.738,12.738,0,0,0-2.9-5.8ZM700,31.5V24.1H689.6V8.9H681V24.1h-9v7.4h8.9V63.8a18,18,0,0,0,.7,5.7,7.13,7.13,0,0,0,2.2,3.3,8.675,8.675,0,0,0,3.9,1.6,31.773,31.773,0,0,0,5.7.4H700V67.4h-4c-1.3,0-2.4-.1-3.3-.1a5.249,5.249,0,0,1-2-.6,2.434,2.434,0,0,1-1-1.4,7.8,7.8,0,0,1-.3-2.4V31.5H700ZM376.5,8.9a4.901,4.901,0,1,0,5,4.9,4.93,4.93,0,0,0-5-4.9Zm227.1,0a4.901,4.901,0,1,0,5,4.9,4.93,4.93,0,0,0-5-4.9Z"/>
</svg>
