<?xml version="1.0" standalone="no"?>
<!DOCTYPE svg PUBLIC "-//W3C//DTD SVG 1.1//EN" "http://www.w3.org/Graphics/SVG/1.1/DTD/svg11.dtd" >
<svg xmlns="http://www.w3.org/2000/svg">
<metadata></metadata>
<defs>
<font id="fantasque_sans_monobold" horiz-adv-x="1060" >
<font-face units-per-em="2048" ascent="1650" descent="-398" />
<missing-glyph horiz-adv-x="500" />
<glyph horiz-adv-x="0" />
<glyph unicode="&#xd;" />
<glyph unicode=" " />
<glyph unicode="!" d="M350 0v270h350v-270h-350zM367 1376h315l-16 -912l-283 -2z" />
<glyph unicode="&#x22;" d="M146 876q56 84 56 483q0 34 -8 100l306 21q10 -68 10 -119q0 -387 -130 -582zM580 874q56 84 56 483q0 34 -8 100l306 21q10 -68 10 -119q0 -387 -130 -582z" />
<glyph unicode="#" d="M-6 521q68 24 198 34q7 36 11 71.5t8 80.5t7 71l-18 1q-109 -7 -150 -22l-54 184q62 24 232 34q23 189 32 359q13 0 86.5 -1t93.5 -1q36 0 50 -1q-11 -189 -28 -353l136 -4q20 175 48 348l228 1q-11 -54 -17.5 -100.5t-13.5 -119t-13 -125.5h122v-198l-140 4l-24 -227 l162 1l-4 -196l-184 3q-7 -66 -17.5 -152.5t-15.5 -133.5t-9 -102l-230 -2q5 50 11 104t16 135.5t17 146.5l-136 -1l-30 -379l-238 4q10 163 34 373q-69 -1 -124 -19zM412 558l152 -1l18 221l-144 4z" />
<glyph unicode="$" d="M38 448l247 1q-3 -23 -3 -41q0 -50 23 -83.5t60 -41.5l23 361q-41 11 -150 59q-176 73 -176 276q0 130 101.5 205t254.5 82l-8 185l249 -14l-23 -174q107 -12 190.5 -66t123.5 -144l-222 -90q-6 43 -32.5 62.5t-71.5 26.5l-14 -250q88 -29 144 -54q92 -42 151.5 -121 t59.5 -203q0 -91 -30.5 -160.5t-85.5 -112t-126.5 -64t-158.5 -23.5l-4 -183l-233 9l21 183q-83 13 -145 49.5t-97 89t-51.5 111t-16.5 125.5zM318 970q0 -48 19 -74.5t65 -38.5l12 206q-43 0 -69.5 -27t-26.5 -66zM574 262q69 10 104 49t35 116q0 63 -25 91.5t-94 59.5z " />
<glyph unicode="%" d="M1 1012q0 122 90.5 214.5t212.5 94.5h7q119 0 199 -76t80 -188v-17q-2 -48 -21 -101l229 437l224 -112l-231 -427q-35 -69 -148 -194.5t-153 -192.5q43 60 108 97t138 38h7q119 0 199 -76t80 -188v-7q-3 -128 -91 -228t-217 -100q-117 0 -199 85.5t-82 204.5q0 53 18 101 l-205 -405l-224 110l232 422q42 76 101.5 149t107 124.5t60.5 75.5q-42 -60 -104.5 -95.5t-136.5 -35.5q-117 0 -199 85.5t-82 204.5zM216 1013q0 -41 20 -69.5t50 -28.5q24 0 51.5 43.5t27.5 81.5q0 45 -15.5 65.5t-50.5 22.5h-2q-24 0 -52.5 -40.5t-28.5 -74.5zM648 277 q0 -41 20 -69.5t50 -28.5q24 0 51.5 43.5t27.5 81.5q0 45 -15.5 65.5t-50.5 22.5h-2q-24 0 -52.5 -40.5t-28.5 -74.5z" />
<glyph unicode="&#x26;" d="M30 367q0 131 55 221.5t152 169.5q-70 64 -111.5 139t-41.5 140q0 77 28 137.5t76 97.5t108.5 56t129.5 19q66 0 120.5 -14t99.5 -44t70.5 -82.5t25.5 -124.5q0 -69 -18 -127.5t-52 -105.5t-68 -79.5t-82 -69.5l216 -300q19 25 19 83q0 65 -24 169h244q0 -81 -10 -152.5 t-24.5 -115.5t-29.5 -77t-25 -47l-10 -14l111 -144l-167 -134l-94 126q-123 -116 -309 -116q-82 0 -149 19.5t-122.5 63t-86.5 121.5t-31 185zM280 370q0 -35 6.5 -66t21.5 -60t44.5 -46t70.5 -17q119 0 182 57l-250 335q-34 -32 -54.5 -89t-20.5 -114zM322 1053 q0 -101 72 -186q46 36 75.5 89.5t29.5 99.5q0 36 -20.5 63t-58.5 27q-41 0 -69.5 -29.5t-28.5 -63.5z" />
<glyph unicode="'" d="M331 915q84 96 143 237.5t75 316.5l323 -40q-9 -126 -50 -240.5t-102 -199t-125 -145.5t-132 -102z" />
<glyph unicode="(" d="M205 612q0 227 46.5 392.5t136.5 269t215 154.5t290 56v-234h-7q-203 0 -307.5 -152t-104.5 -482q0 -161 33 -284t91 -196.5t132.5 -110.5t162.5 -37l-1 -250q-110 1 -209.5 33t-187.5 100.5t-152 168.5t-101 246.5t-37 325.5z" />
<glyph unicode=")" d="M146 -12q88 0 162.5 37t132.5 110.5t91 196.5t33 284q0 330 -105 482t-308 152h-6v234q165 -5 290 -56t215 -154.5t136.5 -269t46.5 -392.5q0 -179 -37 -325.5t-101 -246.5t-152 -168.5t-187.5 -100.5t-209.5 -33z" />
<glyph unicode="*" d="M32 706l90 260l288 -174l-44 406l294 2l-30 -408l282 180l114 -248l-362 -114l276 -270l-220 -176l-196 354l-202 -358l-206 172l262 280z" />
<glyph unicode="+" d="M60 616q53 10 143 10h39h160v391l246 1l-2 -391q71 0 145 -1t97 -1h82v-234h-14q-95 0 -305 3l1 -394h-252v391h-89q-185 0 -249 -9z" />
<glyph unicode="," d="M307 -253q72 40 107 99.5t35 159.5l-113 -1l-4 304l326 2l1 -300v-3q0 -151 -65.5 -268.5t-188.5 -173.5z" />
<glyph unicode="-" d="M82 654q68 3 145 3q54 0 146.5 -1.5t122.5 -1.5h119q127 0 341 -2h18v-245h-18q-135 3 -462 3q-14 0 -95.5 1.5t-138.5 1.5q-99 0 -172 -4v122z" />
<glyph unicode="." d="M344 0v313h315v-313h-315z" />
<glyph unicode="/" d="M64 -50q103 224 323.5 744.5t316.5 773.5l218 -96q-108 -276 -638 -1521z" />
<glyph unicode="0" d="M91 616q0 77 4.5 144.5t17 139.5t32.5 131t53 112.5t76.5 89.5t104.5 57.5t136 21.5q95 0 167.5 -38t116.5 -99.5t72 -149t38.5 -175.5t10.5 -190q0 -105 -10 -195.5t-37.5 -182t-71.5 -155.5t-118 -104t-171 -40q-100 0 -176 35t-121.5 92t-74 141.5t-39 171.5 t-10.5 193zM346 631l2 -50l281 389q-25 82 -45.5 108.5t-70.5 26.5q-44 0 -76.5 -33t-49 -80t-26.5 -116.5t-12.5 -123.5t-2.5 -121zM377 332q21 -75 47 -108t75 -33q38 0 66.5 18.5t46.5 56.5t29.5 79t16.5 102.5t6.5 110.5t1.5 119l-1 49z" />
<glyph unicode="1" d="M64 905q86 43 164.5 101.5t128 107.5t91 99.5t56.5 74t21 34.5l242 -45v-1286h-258l-2 962q-137 -171 -299 -262z" />
<glyph unicode="2" d="M70 95q0 47 6 81q24 129 206 299q27 25 86.5 73t104.5 87.5t93.5 89.5t75 101.5t26.5 99.5q0 169 -160 169q-63 0 -112 -37t-49 -107q0 -43 16 -87l-251 -42q-17 54 -20 112v25q0 149 107.5 248t293.5 99q208 0 315 -91.5t107 -289.5q0 -36 -6 -70.5t-13 -60.5t-23.5 -57 t-26 -47.5t-33 -45t-31.5 -37.5t-35 -37t-31 -32q-11 -11 -68.5 -64.5t-103.5 -98t-87 -93t-41 -67.5h516v-215h-860q0 15 -1 46.5t-1 48.5z" />
<glyph unicode="3" d="M54 335h251q0 -79 48 -111.5t120 -32.5q86 0 139.5 56.5t53.5 131.5t-25.5 115.5t-73.5 71.5q-84 55 -227 55v200h16q104 0 175.5 48t71.5 140q0 51 -39.5 82t-108.5 31q-111 0 -183 -144l-207 136q3 9 14.5 27.5t42 51t71 59.5t108 47.5t146.5 20.5h11q92 0 162.5 -15 t125 -48.5t83 -91.5t28.5 -139q0 -95 -62.5 -184.5t-137.5 -103.5q134 -43 200.5 -136t66.5 -224q0 -101 -26 -164.5t-88 -125.5q-110 -110 -344 -110q-203 0 -307.5 98t-104.5 259z" />
<glyph unicode="4" d="M48 558q4 6 88 98.5t171 193.5t175.5 232.5t115.5 223.5l249 2v-705h127v-210h-127v-393h-257v390l-452 -2zM334 601l256 2v325q-78 -139 -256 -327z" />
<glyph unicode="5" d="M70 234l228 110q22 -60 67 -97t105 -37q36 0 68.5 13t61 40.5t45.5 75.5t17 111q0 116 -56 187.5t-135 71.5q-113 0 -186 -107q-2 -3 -3 -4l-190 80l60 610l676 -2l-1 -197h-439l-16 -199q40 10 118 10q126 0 202 -37q49 -26 84.5 -54.5t72 -76t56 -119.5t19.5 -165 q0 -115 -36.5 -203.5t-100 -141t-143 -78.5t-172.5 -27h-2q-282 0 -400 236z" />
<glyph unicode="6" d="M64 474q0 230 71 408.5t219.5 296.5t363.5 151l54 -226q-140 -15 -241.5 -80.5t-149.5 -180.5q-35 -88 -41 -169q3 4 8 9.5t23 20.5t38 26.5t51.5 21t65.5 9.5q192 0 292.5 -107t100.5 -286q0 -185 -114.5 -278t-317.5 -93q-193 0 -308 134t-115 343zM327 457 q0 -69 15.5 -124.5t54 -94t96.5 -38.5q67 0 119.5 47t52.5 120q0 84 -43 138.5t-96 54.5q-74 0 -117.5 -25t-81.5 -78z" />
<glyph unicode="7" d="M38 1033q25 77 113 259q43 0 137 -3t132 -3q76 0 232 3.5t227 3.5h41l100 -163q-30 -47 -86 -134q-60 -92 -88 -136.5t-73.5 -120t-66.5 -119t-52 -110t-44.5 -117.5t-28.5 -117t-20.5 -133t-5.5 -143h-261q0 120 20.5 231t53.5 206t94 205t123 204t159 227 q-87 -3 -281 -3q-88 0 -151 3q-1 -1 -5 -18.5t-8.5 -43t-6.5 -42.5z" />
<glyph unicode="8" d="M54 378q0 129 66.5 222.5t165.5 135.5q-67 20 -120.5 96t-53.5 153q0 144 100.5 226t292.5 82t292.5 -82t100.5 -226q0 -77 -53.5 -153t-120.5 -96q99 -42 165.5 -135.5t66.5 -222.5q0 -175 -127 -281t-324 -106t-324 106t-127 281zM312 388q0 -49 20 -86.5t51 -58 t62.5 -30.5t59.5 -10t59.5 10t62.5 30.5t51 58t20 86.5q0 66 -49.5 133.5t-143.5 110.5q-94 -43 -143.5 -110.5t-49.5 -133.5zM362 990q0 -43 35 -88.5t108 -61.5q73 16 108 61.5t35 88.5q0 34 -12 55.5t-35.5 31t-44 12t-51.5 2.5t-51.5 -2.5t-44 -12t-35.5 -31t-12 -55.5z " />
<glyph unicode="9" d="M27 310l250 84q33 -107 80.5 -148t134.5 -41q100 0 150 99.5t50 276.5l-2 50q-65 -48 -210 -48q-80 0 -154.5 27t-131.5 74.5t-91.5 118t-34.5 152.5q0 151 115 249t296 98q115 0 199.5 -34t135 -90.5t80.5 -144t40.5 -178.5t10.5 -211q0 -87 -8 -161t-26 -149.5 t-52.5 -134t-83.5 -105t-122.5 -71.5t-165.5 -25h-3q-356 0 -457 312zM324 958q0 -78 50.5 -126t122.5 -48q112 0 186 86q-12 111 -64.5 173.5t-131.5 62.5q-77 0 -120 -45.5t-43 -102.5z" />
<glyph unicode=":" d="M341 2v313h315v-313h-315zM341 700v313h315v-313h-315z" />
<glyph unicode=";" d="M299 -253q72 40 107 99.5t35 159.5l-113 -1l-4 304l326 2l1 -300v-3q0 -151 -65.5 -268.5t-188.5 -173.5zM334 700v313h315v-313h-315z" />
<glyph unicode="&#x3c;" d="M114 621q120 99 312 237.5t290 195.5q59 34 86 42l130 -207q-170 -90 -540 -376q49 -35 177.5 -104.5t229 -134t135.5 -119.5l-166 -204q-31 46 -124 120q-42 35 -167 111t-240 142.5t-121 70.5z" />
<glyph unicode="=" d="M46 770q0 47 2 91q191 -12 348 -12q95 0 247 5t252 5l2 -220q-96 0 -249 -6t-252 -6q-91 0 -349 16q0 13 -0.5 57t-0.5 70zM54 394q140 8 366 8q90 0 243.5 -4t236.5 -4v-224q-86 0 -247 2t-253 2q-25 0 -75.5 1t-76.5 1q-90 0 -192 -6z" />
<glyph unicode="&#x3e;" d="M112 158q35 55 135.5 119.5t229 134t177.5 104.5q-370 286 -540 376l130 207q27 -8 86 -42q98 -57 290 -195.5t312 -237.5l-2 -226q-6 -4 -121 -70.5t-240 -142.5t-167 -111q-93 -74 -124 -120z" />
<glyph unicode="?" d="M86 967q0 125 56.5 212t148.5 126.5t210 39.5q195 0 307 -93t112 -261q0 -28 -3 -52.5t-11.5 -47t-14.5 -39t-22 -36.5t-22.5 -30t-28.5 -29t-27.5 -24t-31 -25t-28.5 -23q-110 -89 -110 -206v-49l-272 1v44q0 172 167 320q15 14 46 39.5t44.5 38t31 33.5t24.5 42t7 46 q0 72 -39.5 115.5t-118.5 43.5q-163 0 -166 -158q0 -46 46 -103l-218 -149q-41 58 -64 110t-23 114zM314 0v270h352v-270h-352z" />
<glyph unicode="@" d="M22 495q0 374 145 589.5t383 215.5q87 0 158 -28t117.5 -74.5t78.5 -107.5t46 -124t14 -128v-330v-29q0 -64 12 -110.5t50 -103.5l-182 -96q-26 45 -42 98q-7 -8 -22.5 -25.5t-22 -23.5t-20.5 -18t-25 -17t-28.5 -11t-38 -8t-47.5 -2q-122 0 -194 95.5t-72 227.5 q0 167 74.5 270t208.5 103q33 0 58 -9t38 -19.5t34 -31.5q0 297 -193 297q-134 0 -219.5 -148t-85.5 -447q0 -158 35 -280.5t111.5 -197.5t185.5 -75q83 0 159 48l75 -191q-109 -57 -246 -57q-113 0 -206 44.5t-155 118t-104 171.5t-61 201.5t-19 212.5zM551 496 q0 -61 17 -97.5t49 -36.5q23 0 42 9.5t30.5 22.5t21.5 33.5t14.5 36.5t10.5 36.5t9 29.5v68q-11 10 -24.5 23t-19 17.5t-15 10.5t-19 7.5t-24.5 1.5q-41 0 -66.5 -38.5t-25.5 -123.5z" />
<glyph unicode="A" d="M6 0q5 71 54 223l358 1102h224l334 -1081q50 -169 50 -244h-276q0 79 -25 167l-32 114q-23 0 -69.5 -1t-65.5 -1.5t-54 -2t-57 -4.5t-52 -8t-59 -12l-30 -90q-36 -111 -40 -162h-260zM388 486q27 6 71 9t106 5.5t86 3.5q-8 47 -66.5 226.5t-59.5 267.5q-3 -75 -27 -167 t-61.5 -198t-48.5 -147z" />
<glyph unicode="B" d="M54 1308q230 17 336 17h18q176 0 278.5 -76.5t102.5 -234.5q0 -99 -31 -147.5t-96 -83.5q307 -85 307 -375q0 -364 -343 -405q-62 -8 -119 -8q-36 0 -104.5 2.5t-112.5 2.5h-38h-194q0 71 4 334t4 503q0 298 -12 471zM312 198q98 -6 126 -6q42 0 95 6q14 2 31.5 7 t45 20.5t48.5 38.5t37 64t16 92q0 218 -232 218q-21 0 -50 -1t-69 -1h-44q-3 -355 -4 -438zM316 1118q3 -35 3 -114q0 -27 -0.5 -84t-0.5 -86h38q27 0 47 2.5t45.5 12t42.5 27t28.5 50.5t11.5 78v8q0 38 -13 62.5t-34 34t-34.5 12t-27.5 2.5h-4h-16q-36 0 -86 -5z" />
<glyph unicode="C" d="M56 636q0 296 133 496q58 87 158.5 143.5t224.5 56.5q117 0 228.5 -56t173.5 -169l-232 -125q-36 90 -72.5 118t-103.5 28q-45 0 -87.5 -28t-79.5 -84.5t-59 -157t-22 -230.5q0 -194 68 -312t154 -118h14q46 0 78 11t56 38t40 59t36 86l246 -137q-55 -118 -173.5 -188 t-261.5 -70h-3q-218 0 -337 119q-179 186 -179 520z" />
<glyph unicode="D" d="M63 1317q142 14 225 14q148 0 246 -27t166.5 -82t137.5 -156q63 -95 97 -222.5t34 -263.5q0 -246 -114 -406t-296 -177q-77 -7 -161 -7q-38 0 -154 3.5t-177 3.5q0 33 3 131q0 16 1.5 144t3 308t1.5 321v76q0 213 -13 340zM324 198q88 -3 99 -3h3q182 0 249 158 q27 64 27 191q0 273 -87.5 428t-211.5 155h-30q-28 0 -45 -3q1 -26 1 -87q0 -31 -0.5 -74.5t-0.5 -78.5q0 -294 -4 -686z" />
<glyph unicode="E" d="M102 0v1319q56 4 204 4h98h110q84 0 207.5 -1.5t151.5 -1.5h16v-202h-529v-269h338v-203h-338v-31q0 -119 -1 -253.5t-1 -157.5l416 2q25 0 56 7t50 13l19 7l72 -199q-9 -2 -34.5 -10t-41 -12t-46.5 -8t-65 -4h-682z" />
<glyph unicode="F" d="M116 3v1321h685q113 0 181 -34l-78 -203q-18 10 -28.5 14t-41 9t-76.5 5h-70q-128 0 -311 -1v-258q60 0 101.5 1t102.5 1q117 0 197 -36l-68 -202q-48 22 -132 22h-85q-51 0 -116 -2q0 -65 2.5 -330.5t2.5 -309.5z" />
<glyph unicode="G" d="M20 641q0 386 184 569q131 118 329 118h20q324 -8 437 -257l-234 -116q-28 92 -74 129t-142 37q-123 0 -191 -134.5t-68 -356.5q0 -205 62 -318.5t187 -113.5q50 0 86.5 20.5t57.5 53t33.5 83t16.5 99.5t4 114l-64 -1q-127 0 -230 -39l-40 203q112 43 301 43 q28 0 83.5 -1t82.5 -1q57 0 131 7v-193q0 -130 -15 -226.5t-39 -157t-64.5 -102t-82 -61.5t-100.5 -36q-49 -11 -151 -11q-107 0 -194 33.5t-147 92.5t-100.5 141.5t-59.5 178t-19 203.5z" />
<glyph unicode="H" d="M60 0v1320l257 2l-1 -537q127 29 272 29h87q0 154 -0.5 294.5t-0.5 208.5h256v-1317h-255v599h-32q-116 0 -179 -5t-148 -24q0 -196 1 -347t1 -223h-258z" />
<glyph unicode="I" d="M132 1324q195 5 353 5q123 0 368 -3l-1 -211q-65 0 -125.5 2.5t-104.5 2.5v-901q22 0 39 0.5t43 0.5q75 0 144 -4l1 -217q-102 6 -210 6q-22 0 -73 -0.5t-82 -0.5q-27 0 -144.5 -3.5t-205.5 -3.5v216q106 5 180 5h52v901q-142 -2 -228 -7z" />
<glyph unicode="J" d="M22 435l260 -1q4 -111 39 -170.5t87 -59.5q89 0 126.5 107t37.5 361q0 96 -29 434q-26 0 -56.5 1t-47.5 1q-36 -1 -63 -3.5t-37 -4t-25 -5.5t-18 -5l-37 212q84 20 179 22q71 0 255 -0.5t263 -0.5l-3 -217q-24 0 -71.5 2t-72.5 2q23 -262 23 -452q0 -114 -11.5 -208.5 t-41 -181.5t-75.5 -146.5t-120 -94.5t-170 -35q-99 0 -176 38t-123 102t-69 140.5t-24 162.5z" />
<glyph unicode="K" d="M84 -5v1340h258v-464q101 142 464 505l196 -177q-190 -141 -414 -417q90 -89 255 -337t203 -351l-236 -126q-43 103 -168.5 311t-213.5 295q-56 -62 -86 -134v-445h-258z" />
<glyph unicode="L" d="M157 -3v1328h254v-1118h428q62 3 114 21l72 -197q-100 -34 -184 -34h-684z" />
<glyph unicode="M" d="M62 0v1323h204q62 -93 127 -225t109 -264q66 224 228 489h216l2 -1323h-247l-2 596q0 46 6.5 121.5t12.5 128.5l6 52q-42 -81 -87 -194t-57 -153l-150 -2q-102 268 -150 349q32 -189 32 -302v-596h-250z" />
<glyph unicode="N" d="M75 -3v1328l211 -7q75 -111 152.5 -243t156 -297.5t101.5 -273.5l-7 274q0 319 12 551l244 -1q-8 -153 -8 -433q0 -115 2 -361t2 -364q0 -30 -0.5 -87t-0.5 -83h-249q-66 189 -166.5 398.5t-204.5 379.5v-208q0 -168 1 -341t0 -232h-246z" />
<glyph unicode="O" d="M36 579q0 243 35 383.5t95 224.5q51 71 146.5 116t209.5 47q39 0 76 -5.5t84 -24t86.5 -48.5t79 -84t67 -125.5t45.5 -178.5t19 -237v-11q0 -124 -21.5 -235.5t-57.5 -183.5q-56 -109 -160.5 -171t-229.5 -62q-101 0 -198 35.5t-154 107.5q-122 152 -122 452zM297 592 q0 -88 13 -179.5t41 -135.5q34 -54 67.5 -72t91.5 -18q103 0 159 139q19 42 33.5 139t15.5 175v17q0 232 -45 352q-52 138 -152 138q-49 0 -81 -21.5t-62 -74.5q-81 -143 -81 -459z" />
<glyph unicode="P" d="M104 0v1320q57 0 139 4t150 4q97 0 161 -5t133.5 -19.5t122 -46.5t94.5 -83q72 -88 72 -250q0 -249 -108 -367t-360 -118q-73 0 -154 3v-442h-250zM354 649q72 -2 104 -2q40 0 72 4.5t68 21t60 43.5t40 76.5t16 116.5q0 49 -8.5 86t-25.5 59t-34 35.5t-43.5 19t-43.5 7 t-44 1.5h-9q-35 0 -86 -2.5t-64 -2.5v-71z" />
<glyph unicode="Q" d="M50 642q0 368 124 531q67 87 142 122.5t173 35.5q126 0 214.5 -51t147.5 -159q40 -72 61.5 -158t25.5 -141t4 -129q0 -192 -40 -350t-132 -227q8 -54 27 -68t81 -15h11q40 0 84 11l1 -221q-26 -6 -84 -6q-61 0 -123 19.5t-113.5 65t-63.5 106.5q-40 -11 -89 -11 q-183 0 -303 126q-148 157 -148 519zM294 640q0 -156 23 -212q63 108 170 108q145 0 203 -132q13 43 13 279v23q0 60 -2 98.5t-13.5 94.5t-33.5 102q-55 114 -162 114q-96 0 -147 -106.5t-51 -302.5v-66zM374 270q10 -35 45.5 -53.5t70.5 -18.5h17q34 0 59 13v4q0 34 -23 69 t-70 35q-64 0 -99 -49z" />
<glyph unicode="R" d="M85 1314q157 15 218 15q74 0 123 -1.5t112.5 -6t109 -15.5t93.5 -28t85.5 -45t67.5 -65q35 -44 54.5 -109t19.5 -131q0 -161 -77 -260t-192 -116q150 -238 237 -341q55 -49 108 -63l-122 -192q-40 6 -81.5 36t-70.5 66q-64 72 -162.5 221t-157.5 251q-61 5 -117 28v-558 h-243v1136q0 100 -5 178zM333 768q100 -42 166 -42h8q62 0 102.5 13t61 39.5t28 56t7.5 71.5q0 121 -77.5 169.5t-232.5 48.5q-34 0 -63 -1v-355z" />
<glyph unicode="S" d="M27 422l266 -2q0 -110 51 -165t163 -55q210 0 210 182q0 134 -150 200q-54 24 -160 56t-176 64q-180 82 -180 304q0 161 111 241.5t308 80.5h9q187 0 317.5 -64t163.5 -186l-273 -102q-32 71 -88 106.5t-114 35.5q-69 0 -117.5 -27.5t-48.5 -76.5q0 -35 8.5 -60t27.5 -41 t34.5 -24.5t43.5 -18.5q44 -17 147.5 -50t178.5 -68q94 -46 155 -133t61 -223q0 -87 -24.5 -157t-66 -115.5t-100 -76t-123.5 -43.5t-140 -13h-19q-128 3 -222.5 38.5t-148 95.5t-79 134t-25.5 163z" />
<glyph unicode="T" d="M39 1117v207h357.5t406.5 1q112 0 167 -16l-60 -203q-52 12 -112 12h-183v-1118h-260v1118q-114 0 -203.5 -0.5t-112.5 -0.5z" />
<glyph unicode="U" d="M61 795q0 293 9 534h258q-8 -336 -8 -586v-141q0 -110 6 -154q1 -4 4.5 -29t4.5 -33t6 -32t8.5 -33.5t11 -29.5t15.5 -29.5t19.5 -23.5t25 -20.5t31 -11.5t38.5 -6q33 1 59.5 11t46.5 24t35.5 40t25.5 49.5t17 63.5t11 69.5t5.5 81t2 85.5t0.5 94q0 57 -2.5 206.5 t-2.5 241.5q0 102 13 184l253 -28q-8 -57 -8 -127v-29q0 -78 1.5 -208.5t1.5 -182.5v-59q0 -110 -3 -178.5t-13.5 -154.5t-35.5 -150.5t-65 -111.5q-103 -122 -340 -131q-114 0 -193.5 30t-127.5 92t-72 145t-31 199q-7 108 -7 339z" />
<glyph unicode="V" d="M4 1266l236 89q35 -90 74.5 -222t67 -238.5t72.5 -287.5t70 -276q4 18 44 194t56 239.5t49.5 198t62 224t57.5 161.5l227 -79q-76 -183 -207 -652t-144 -617h-301q-18 143 -155 616.5t-209 649.5z" />
<glyph unicode="W" d="M12 1312l236 29q22 -163 31 -355q5 -116 9.5 -368t9.5 -302q119 600 125 672q9 0 38.5 -1.5t47.5 -1.5q73 0 110 19q13 -97 43 -268t54 -294l23 -123q9 75 14.5 307t12.5 336q1 10 2.5 59t4 86.5t10.5 103.5t21 132l224 -38q-29 -142 -88 -687.5t-72 -617.5h-246 q-70 397 -102 585q-114 -559 -125 -585h-241q-22 90 -71 640t-71 672z" />
<glyph unicode="X" d="M0 1218l194 158q37 -43 70.5 -87t69.5 -100.5t55.5 -88.5t63 -106.5t57.5 -99.5l284 473l192 -116l-336 -557q63 -101 131 -229t117 -207t112 -141l-168 -162q-69 68 -111.5 129t-105.5 176t-111 194l-284 -508l-210 132l346 592q-75 130 -120 204.5t-112.5 171.5 t-133.5 172z" />
<glyph unicode="Y" d="M14 1222l219 141q174 -344 278 -511q23 34 50.5 83.5t50 94.5t49 105t42 96t37 86.5t24.5 58.5l228 -136q-39 -80 -178.5 -324t-188.5 -314q0 -23 -1 -73.5t-1 -78.5q-5 -225 -5 -322v-128h-250v138q0 42 3.5 226.5t3.5 248.5q-60 86 -191.5 307.5t-169.5 301.5z" />
<glyph unicode="Z" d="M28 136l644 983q-120 0 -329.5 -2.5t-253.5 -2.5l-1 210q52 0 340 2t390 2q26 0 51 -2t39.5 -4.5t30.5 -6t19 -3.5v-7q0 -20 8 -91.5t8 -87.5v-8l-578 -901l354 -1q62 0 94.5 5t82.5 21l71 -215q-76 -27 -189 -27h-679h-7z" />
<glyph unicode="[" d="M318 1052v421q52 0 227 2t195 2q67 3 104 6l28 -206q-48 -5 -290 -12v-1320q77 3 176 3h10q85 0 114 -8l6 -208q-75 9 -136 9q-25 0 -203 -1t-229 -1q0 89 1 220t1 221q0 32 -2 390q0 93 -1 257.5t-1 224.5z" />
<glyph unicode="\" d="M64 1372l220 96q97 -256 317 -777t321 -741l-218 -99q-12 28 -126.5 295.5t-191.5 450t-175.5 418t-146.5 357.5z" />
<glyph unicode="]" d="M155 -268l6 208q29 8 114 8h10q99 0 176 -3l1 1320q-244 7 -291 12l28 206q37 -3 104 -6q20 0 195.5 -2t227.5 -2v-421q0 -60 -1 -224.5t-1 -257.5q-2 -358 -2 -390q0 -90 1 -221t1 -220q-51 0 -229.5 1t-203.5 1q-61 0 -136 -9z" />
<glyph unicode="^" d="M10 606l510 495l507 -484l-163 -179l-342 306l-342 -306z" />
<glyph unicode="_" d="M42 -334l4 213h946v-213h-950z" />
<glyph unicode="`" d="M371 1369q0 51 10 119l306 -21q-8 -66 -8 -100q0 -145 35.5 -288t71.5 -199l-234 -97q-181 275 -181 586z" />
<glyph unicode="a" d="M65 302q0 146 89 238q69 71 149 100.5t190 29.5q99 0 168 -47q0 58 -18.5 100t-48 61.5t-56 27.5t-53.5 8q-178 0 -283 -111l-120 192q134 88 200 106.5t211 20.5q114 0 206.5 -43t149 -129t56.5 -201v-339q0 -70 17 -113t59 -76l-113 -149q-12 9 -35 25t-34 25 t-27.5 28.5t-31.5 44.5q-59 -61 -133.5 -86.5t-206.5 -25.5t-233.5 90t-101.5 223zM318 317q0 -68 38.5 -98t94.5 -30q74 0 133.5 53t76.5 105v47q-28 32 -74.5 54t-93.5 22q-61 0 -118 -39.5t-57 -113.5z" />
<glyph unicode="b" d="M93 7q19 125 19 236v24q0 121 -0.5 433.5t-0.5 456.5q0 100 -15 246l247 9q14 -114 15 -260q0 -119 -25 -222q110 83 225 83q201 0 293 -135.5t92 -418.5q0 -466 -369 -466q-87 0 -148.5 28t-92.5 72q0 -19 -11 -45.5t-22 -43.5l-11 -17zM358 349q39 -79 88 -127.5 t94 -48.5q148 0 148 305q0 184 -44 259.5t-121 75.5q-48 0 -91.5 -39t-73.5 -91v-334z" />
<glyph unicode="c" d="M71 527q0 491 493 491q164 0 255 -61q89 -60 128 -151l-220 -102q-27 103 -181 103q-104 0 -161.5 -81.5t-57.5 -197.5q0 -66 10 -118.5t24.5 -85.5t36 -57.5t40 -36t42 -18.5t35.5 -8t27 -1h12q69 0 114.5 38t87.5 109l226 -134q-51 -113 -153 -168t-265 -55 q-99 0 -178.5 16t-144.5 64q-93 72 -131.5 183.5t-38.5 270.5z" />
<glyph unicode="d" d="M74 459q0 563 404 563q18 0 36 -2t34.5 -6.5t30 -9t28 -12t24 -12.5t23 -14t18.5 -12.5t17 -13t13 -10.5q-24 103 -24 222q0 146 14 260l248 -9q-15 -146 -15 -246q0 -144 -1 -456.5t-1 -433.5v-24q0 -104 20 -236l-196 -20q-45 64 -45 106q-31 -44 -92.5 -72t-148.5 -28 q-189 0 -288 118.5t-99 347.5zM329 478q0 -144 43.5 -224.5t123.5 -80.5q45 0 94 48.5t88 127.5v334q-83 139 -166 139q-79 0 -131 -81t-52 -263z" />
<glyph unicode="e" d="M78 516q0 223 113 364t318 141q229 0 328.5 -139t99.5 -405l-1 -43q-438 -6 -600 -38q12 -83 69.5 -141.5t126.5 -58.5q75 0 120.5 25t101.5 85l178 -156q-42 -47 -73 -73t-77.5 -48t-106.5 -30.5t-149 -8.5q-211 0 -329.5 143.5t-118.5 382.5zM336 606q136 24 340 24 q-4 94 -49.5 141t-115.5 47q-74 0 -122 -61t-53 -151z" />
<glyph unicode="f" d="M99 807v205h143v52q0 44 9 87.5t35 93t66.5 86.5t111 62t160.5 25q156 0 251.5 -43t151.5 -154l-212 -97q-18 57 -58 75t-116 18q-47 0 -77.5 -11.5t-44 -33.5t-17.5 -42t-4 -47l1 -71h184q106 0 176 -21l-44 -197q-39 13 -98 13h-219l1 -807h-257v807h-143z" />
<glyph unicode="g" d="M80 -78q0 144 87 221q-37 27 -62 82.5t-25 117.5q0 47 12.5 85.5t26 58.5t37.5 46q-3 4 -16 20t-16.5 21.5t-13 19t-13 22t-9 22t-7 27.5t-1.5 29q0 171 108.5 251.5t306.5 80.5q173 0 272 -61q37 34 85 47.5t135 13.5v-204q-30 5 -41 5q-44 0 -76 -8q21 -22 21 -103 q0 -143 -93 -230t-291 -87h-3q-117 0 -147 13q-30 -35 -30 -79q0 -34 29 -59.5t100 -25.5h179q50 0 95.5 -6t93 -23t82 -44t56.5 -71.5t22 -102.5q0 -80 -36.5 -153.5t-93 -123t-125.5 -79t-134 -29.5h-155q-162 0 -261 76t-99 230zM308 -73q0 -45 44.5 -78t98.5 -33h90 q55 0 124 50.5t69 117.5q0 35 -28.5 54.5t-107.5 19.5l-267 -1q-23 -30 -23 -130zM327 717q0 -118 158 -118q160 0 160 127q0 41 -24 63t-55.5 27.5t-81.5 5.5q-71 0 -114 -26t-43 -79z" />
<glyph unicode="h" d="M72 1402l248 9q14 -114 14 -260q0 -119 -24 -222q111 84 232 84q195 0 297.5 -106.5t102.5 -340.5v-348q0 -115 44 -178l-226 -80q-64 89 -64 216v315q0 89 -11.5 151.5t-27.5 95.5t-44 50.5t-49.5 21t-55.5 3.5q-52 0 -98 -39.5t-77 -91.5v-682h-245v1156q0 91 -16 246z " />
<glyph unicode="i" d="M91 971q141 42 263 42h255l1 -739q0 -51 21.5 -71.5t87.5 -20.5q67 0 116 22.5t97 68.5l97 -190q-61 -50 -160.5 -75.5t-200.5 -25.5q-151 0 -221 38q-93 51 -93 186v607q-113 0 -234 -28zM329 1181v225h291v-225h-291z" />
<glyph unicode="j" d="M70 -156l164 148q60 -101 112.5 -140.5t105.5 -39.5h18q32 0 55 10t34.5 25t18 33.5t8 34.5t2.5 29v8v861q-114 0 -235 -28l-29 186q141 42 264 42h254v-1091q0 -62 -18 -114t-57.5 -98t-114 -72.5t-177.5 -26.5q-53 0 -99 8t-101 31t-107.5 72t-97.5 122zM546 1181v225 h291v-225h-291z" />
<glyph unicode="k" d="M111 1383l244 44q28 -72 28 -134v-223q0 -90 -30 -174q5 5 13.5 13t36.5 29t57 37t71 29t82 13q154 0 237.5 -70t83.5 -213q0 -101 -35 -164t-136 -112q71 -25 103.5 -74t60.5 -142q13 -45 96 -105l-192 -164q-38 15 -67.5 37.5t-48.5 46t-36 60.5t-26 64t-22 74 q-11 39 -39.5 68t-58 42.5t-65.5 21.5t-53 9.5t-30 1.5h-2v-398h-249v1228q0 82 -23 155zM383 626q155 -29 195 -29q32 0 53.5 10t31 30t13 41t3.5 52q0 32 -18 57.5t-57 25.5q-32 0 -87.5 -32t-94.5 -64l-39 -32v-59z" />
<glyph unicode="l" d="M69 1397q111 33 286 33h254l2 -1156q0 -51 21 -71.5t87 -20.5q67 0 116 22.5t97 68.5l97 -190q-61 -50 -160.5 -75.5t-200.5 -25.5q-150 0 -220 38q-93 51 -93 186q0 114 -0.5 348t-0.5 347q0 225 1 329h-40q-133 0 -217 -19z" />
<glyph unicode="m" d="M-13 978l218 66q7 -14 11.5 -38t8.5 -54t6 -41q83 109 181 109q74 0 113 -53.5t48 -120.5q89 174 195 174h8q87 0 133.5 -82.5t46.5 -198.5v-513q0 -61 90 -96l-94 -162q-28 5 -50.5 12t-55.5 26t-55 45t-38.5 72t-16.5 105v2v529q-2 32 -9 43t-29 11q-15 0 -44.5 -78.5 t-43.5 -134.5l-2 -600l-225 1v760q0 30 -5 41t-23 11q-20 0 -58 -65t-53 -139v-609h-224l-2 802q0 44 -5 78.5t-9.5 48.5t-16.5 49z" />
<glyph unicode="n" d="M68 1004l232 48q31 -74 38 -125q43 39 131.5 69t168.5 30q133 0 216.5 -57t83.5 -173v-518q0 -22 6.5 -39t23.5 -31t27.5 -21t37.5 -21q7 -4 11 -6l-116 -200q-41 13 -78.5 32t-76.5 50t-62.5 77.5t-23.5 102.5v477q0 61 -17.5 90.5t-64.5 29.5q-51 0 -122.5 -29.5 t-131.5 -82.5v-707h-251v706q0 87 -3.5 138.5t-8.5 76.5t-20 83z" />
<glyph unicode="o" d="M72 464q0 568 433 568q144 0 233.5 -49.5t143.5 -151.5q59 -114 59 -288q0 -74 -9 -140t-28 -129t-53 -113t-80.5 -88t-113 -58.5t-148.5 -20.5h-2q-223 0 -329 124.5t-106 345.5zM324 482q0 -128 48 -206.5t136 -78.5q40 1 64.5 11.5t52.5 38.5q60 66 60 283v16 q-2 132 -39 208t-126 76q-107 0 -151.5 -90t-44.5 -258z" />
<glyph unicode="p" d="M72 996l228 26q13 -35 20 -101q81 90 252 90q365 0 365 -460q0 -89 -7 -158.5t-25 -135t-50 -112.5t-79 -82.5t-116 -53t-158 -17.5q-112 0 -176 68q1 -14 6.5 -55t7.5 -66v-91q0 -110 14 -246l-248 -7q-14 114 -14 259l2 885v26q0 88 -22 231zM338 656l2 -345 q77 -118 167 -118q60 0 96.5 28t57 103.5t20.5 206.5q0 146 -29.5 213t-95.5 67q-88 0 -133 -38t-85 -117z" />
<glyph unicode="q" d="M72 551q0 460 366 460q171 0 252 -90q7 69 19 101l228 -26q-21 -136 -21 -231v-26l1 -885v-29q0 -181 16 -218l-236 -30q-27 74 -27 271v91q2 26 7 68t6 53q-64 -68 -176 -68q-89 0 -158 17.5t-116 53t-79 82.5t-50 112.5t-25 135t-7 158.5zM328 531q0 -131 20.5 -206.5 t57 -103.5t96.5 -28q91 0 168 118l1 345q-20 39 -35.5 62.5t-40.5 47t-59.5 34.5t-81.5 11q-66 0 -96 -67.5t-30 -212.5z" />
<glyph unicode="r" d="M106 858l148 186q7 -5 34.5 -26t36.5 -30t27.5 -29t30 -42.5t21.5 -52.5q119 156 340 156q127 0 199.5 -75.5t72.5 -216.5v-30l-252 -2q2 22 2 44q0 78 -66 78q-45 0 -104 -63t-128 -195v-578h-252v722q0 27 -17 55t-35 45.5t-58 53.5z" />
<glyph unicode="s" d="M94 330h253q0 -80 37 -114t120 -34q26 0 52.5 5t55 16t46.5 33.5t18 53.5q0 43 -16 71.5t-54 53.5q-38 24 -163.5 69.5t-163.5 64.5q-63 31 -100 91t-37 141q0 67 32 117t86 77.5t115.5 40.5t131.5 13q60 0 107.5 -4.5t103 -17.5t104 -42t88.5 -72l-177 -163 q-92 99 -223 99q-114 0 -114 -61q0 -45 34 -67q38 -15 94.5 -36t92.5 -34t83 -34t76.5 -40t62 -47.5t50.5 -60.5t29.5 -75.5t11.5 -95.5q0 -58 -23.5 -107.5t-62.5 -82.5t-80.5 -55t-84.5 -33q-86 -20 -173 -20q-191 0 -301.5 94t-110.5 256z" />
<glyph unicode="t" d="M74 997q36 12 102 12h15q0 35 0.5 120.5t0.5 120.5l251 -6q0 -95 -2 -231q48 0 153 -1t190 -2t86 -1l-3 -204q-69 0 -215.5 1t-212.5 1q-3 -89 -5 -207.5t-4 -163.5v-40q0 -98 29 -141.5t94 -54.5q36 -4 65 -4q70 0 120 28q15 8 26.5 20.5t19 27.5t11.5 26t8 25.5t5 16.5 l208 -100q-8 -21 -25 -51.5t-58.5 -77t-92.5 -75.5q-72 -42 -220 -42q-159 0 -256.5 34t-146.5 136q-39 80 -39 234v42q6 257 9 365h-14q-43 0 -82 -12z" />
<glyph unicode="u" d="M58 992l254 28q6 -27 10 -71.5t5.5 -121t1.5 -140t0.5 -187t0.5 -202.5q9 -53 32 -72.5t84 -19.5q112 5 166.5 59.5t54.5 152.5v595h251v-707q1 -37 39 -80t79 -60l-143 -183q-92 42 -127 125q-54 -55 -137.5 -79.5t-202.5 -26.5h-9q-48 0 -93.5 6.5t-91 23t-78.5 41.5 t-54 65t-21 91q0 39 0.5 132t0.5 143q0 422 -22 488z" />
<glyph unicode="v" d="M4 946l212 130q115 -191 186.5 -386.5t135.5 -438.5q84 97 115 236t36 329q1 19 1 69q0 77 -3 128h251q6 -32 6 -191q0 -241 -75.5 -444.5t-210.5 -311.5q-39 -32 -69 -45.5t-86.5 -21t-160.5 -7.5q0 180 -116.5 490.5t-221.5 463.5z" />
<glyph unicode="w" d="M17 984l249 72q25 -74 40 -146t20.5 -157.5t6.5 -126t2 -138.5v-31q0 -66 -9.5 -144t-18.5 -104q87 3 122.5 64.5t35.5 189.5v372l161 1q5 -78 5 -243q0 -159 -7 -379h5q29 0 51 12.5t37 31t25.5 51.5t16 62.5t8.5 76t3.5 80t0.5 85.5v48q0 29 -0.5 82t-0.5 76 q0 32 -3 80.5t-7 80.5l-3 33h246q2 -32 1 -97v-87q0 -356 -41 -550q-28 -128 -126 -203.5t-257 -75.5h-34q-18 66 -24 153q-31 -66 -112 -115.5t-215 -49.5h-6q-40 1 -66 12q-3 21 -5 171.5t-14.5 337.5t-40.5 326q-21 105 -46 149z" />
<glyph unicode="x" d="M14 119l364 394l-326 391l182 141l290 -372q14 16 42 46t44 48t41.5 54t50.5 79q7 12 13.5 31t9.5 32t7 31.5t4 19.5l238 -1q-14 -116 -40 -174q-27 -60 -111.5 -159.5t-164.5 -175.5q62 -80 136 -166t90 -95q1 0 3 -3t5 -5t8 -4.5t12.5 -4t17.5 -1.5q20 0 52 6l-2 -229 q-36 -6 -60 -6q-86 0 -140 38q-91 59 -264 297l-332 -373z" />
<glyph unicode="y" d="M42 0h236q0 -174 74 -174q60 0 109.5 79t67.5 165q-160 366 -258 523.5t-170 157.5q-34 0 -44 -1l-1 261q42 2 76 2q56 0 111 -32t103 -86.5t100.5 -143t99 -183.5t103.5 -227q26 76 40.5 171t18 154.5t5.5 182.5t3 164h256q0 -122 -2 -174q-11 -240 -98.5 -511 t-225.5 -502q-73 -123 -144.5 -162.5t-189.5 -39.5q-76 0 -131 33.5t-83.5 91t-41 118.5t-14.5 133z" />
<glyph unicode="z" d="M71 0v20q0 109 22 169q55 149 196.5 313.5t310.5 303.5q-23 0 -56.5 -1t-67 -1.5t-78.5 -0.5q-229 0 -305 12l31 202q55 -6 281 -6q297 0 472 5l77 -190l-64 -58q-63 -58 -131.5 -125.5t-147.5 -150.5t-136.5 -163t-72.5 -132l400 6h6q63 0 162 -31l-44 -194 q-7 2 -23.5 7t-22.5 6.5t-19.5 4t-27.5 3.5t-33 1h-729z" />
<glyph unicode="{" d="M244 592v131q15 4 53.5 14t56 15.5t49 17t47 23t34 28.5t26 39.5t7.5 50.5q0 40 -19 93q-1 2 -8.5 24t-9.5 27t-8.5 24.5t-8.5 28t-6.5 26t-6 28.5t-3 26t-1.5 28q0 86 56 152q41 48 111.5 74.5t118.5 31.5t139 9q12 1 18 1l4 -218q-100 -4 -146.5 -25.5t-46.5 -70.5 q0 -6 2 -22q4 -19 35 -117.5t31 -158.5q0 -25 -4 -46q-15 -87 -90.5 -146t-160.5 -80q85 -21 161 -79t91 -145q4 -20 4 -46q0 -59 -31 -156.5t-35 -119.5q-2 -8 -2 -23q0 -48 46.5 -69t146.5 -26l-4 -218q-156 7 -220 22q-109 26 -167 94q-56 66 -56 152q0 13 1.5 28t3 26 t6 28.5t6.5 26t8.5 28t8.5 24.5t9.5 27t8.5 24q19 53 19 92q0 24 -7 45t-17.5 35.5t-30 28.5t-35 22t-43.5 18t-44.5 14.5t-48.5 13t-47 12.5z" />
<glyph unicode="|" d="M348 1399v93h271v-145q0 -131 6 -540t6 -583v-150q0 -151 -6 -272l-272 1q5 77 5 160q0 19 -0.5 80t-0.5 109q0 192 -4.5 652.5t-4.5 594.5z" />
<glyph unicode="}" d="M146 -64q100 5 146.5 26t46.5 70q0 6 -2 22q-4 22 -35 119.5t-31 156.5q0 26 4 46q15 87 91 145t161 79q-52 13 -102.5 40t-94.5 76.5t-54 109.5q-4 21 -4 46q0 60 31 158.5t35 117.5q2 16 2 22q0 49 -47 70.5t-146 25.5l3 218q156 -7 220 -22q109 -26 168 -94 q55 -64 55 -152q0 -34 -9.5 -77t-16.5 -63.5t-25 -71.5q-19 -53 -19 -93q0 -28 7.5 -50.5t26 -39.5t34 -28.5t47 -23t49 -17t56 -15.5t53.5 -14v-131l-1 -113q-15 -4 -53.5 -14t-56 -15.5t-49 -17t-47 -23t-34 -28.5t-26 -39.5t-7.5 -50.5q0 -40 19 -93q1 -2 8.5 -24 t9.5 -27t8.5 -24.5t8.5 -28t6.5 -26t6 -28.5t3 -26t1.5 -28q0 -86 -56 -152q-41 -48 -111.5 -74.5t-118.5 -31.5t-139 -9q-12 -1 -18 -1z" />
<glyph unicode="~" d="M12 551q67 256 320 256q64 0 118 -23t89.5 -55.5t64 -65t55.5 -55.5t51 -23q100 0 114 158l208 -54q0 -36 -7.5 -73.5t-30 -82t-57.5 -78.5t-96.5 -57t-140.5 -23q-62 0 -113.5 23t-84 55.5t-60.5 64.5t-57.5 55t-59.5 23q-41 0 -77 -43t-54 -112z" />
<glyph unicode="&#xa0;" />
<glyph unicode="&#xa1;" d="M322 848l1 270l350 -1l-1 -270zM337 -258l19 912l283 1l13 -914z" />
<glyph unicode="&#xa2;" d="M125 524q0 300 253 365v144h234v-131q84 -12 134 -43q74 -46 106 -118l-183 -79q-21 80 -150 80q-87 0 -134.5 -63.5t-47.5 -153.5q0 -70 15.5 -121.5t35.5 -75.5t49 -38t44.5 -16t34.5 -2h10q57 0 94.5 29.5t72.5 84.5l188 -104q-72 -149 -269 -171v-120h-234v131 q-65 15 -112 48q-77 56 -109 143t-32 211z" />
<glyph unicode="&#xa3;" d="M65 191q0 104 50 184.5t121 80.5q11 0 20.5 -2t16 -3t14 -7t11 -7.5t11 -11.5l9 -12t10 -15.5t10.5 -15.5q2 20 2 47q0 51 -4 91t-7.5 60t-16.5 84q-52 2 -181 2h-17v200h158q-2 12 -8.5 46t-8.5 46.5t-4.5 37t-2.5 47.5q0 149 91.5 228.5t238.5 79.5q120 0 207 -62.5 t111 -159.5l-212 -54q-19 74 -106 74h-6q-84 0 -84 -98q0 -34 26 -190l94 3h57q131 0 196 7v-201q-74 -9 -255 -9h-56q28 -144 29 -276q0 -93 -11 -131q59 -37 90 -51.5t64 -14.5q23 0 43.5 9t20.5 27v43l228 -1v-53q-3 -102 -71 -165t-174 -64q-85 0 -142 20t-143 75 q-29 -39 -78 -61t-89 -26.5t-95 -4.5q-83 0 -120 56t-37 148zM230 212q3 -54 22 -54q30 0 58 35q-33 30 -64 79q-5 -4 -10.5 -21.5t-5.5 -32.5v-6z" />
<glyph unicode="&#xa4;" d="M8 171l154 154q-24 66 -24 150q0 117 30 202l-154 155l190 190l152 -151q67 24 159 24q105 0 178 -26l140 140l191 -191l-149 -149q19 -64 19 -136q0 -129 -42 -220l151 -151l-191 -190l-170 169q-56 -14 -124 -14h-2q-87 0 -153 18l-165 -165zM357 488q0 -95 41.5 -153 t118.5 -58q35 1 56.5 8.5t45.5 28.5q52 48 52 210v11q-2 210 -143 210q-93 0 -132 -66.5t-39 -190.5z" />
<glyph unicode="&#xa5;" d="M14 1222l219 141q174 -344 278 -511q23 34 50.5 83.5t50 94.5t49 105t42 96t37 86.5t24.5 58.5l228 -136q-60 -120 -215 -387q46 1 153 1l2 -219q-77 0 -289 -7q-3 -4 -9 -13t-9 -13q0 -9 -0.5 -27.5t-0.5 -27.5q34 -1 95.5 -2.5t112.5 -2.5t100 -1v-224q-63 0 -171.5 2 t-140.5 2q-2 -88 -2 -193v-134h-250v144q0 21 1.5 86.5t1.5 98.5h-92q-106 0 -192 -5l-2 223q145 8 290 8v64q-2 3 -8 11q-96 2 -285 14q0 13 -0.5 57t-0.5 70q0 47 2 91q41 -2 143 -7q-163 269 -212 373z" />
<glyph unicode="&#xa6;" d="M348 1399v93h271v-145q0 -140 6 -568h-272q-5 598 -5 620zM353 -197q5 77 5 160q0 19 -0.5 80t-0.5 109q0 107 -2 387h274q2 -226 2 -315v-150q0 -151 -6 -272z" />
<glyph unicode="&#xa7;" d="M38 675q0 39 15 75t36.5 59.5t43 41t36.5 25.5l15 7q-5 5 -11.5 15t-18 52t-11.5 98q0 74 33 136t85.5 100.5t112.5 60t120 23.5h18q148 0 237.5 -88t92.5 -229h-220q0 58 -34.5 87.5t-87.5 29.5q-15 0 -31 -4.5t-34 -15.5t-30 -35.5t-12 -58.5v-11q0 -101 63 -142 q95 -62 141 -92.5t116.5 -83t120.5 -98.5q71 -65 93 -106.5t22 -112.5q0 -56 -18.5 -99t-44 -69t-70.5 -60q28 -66 28 -145q0 -74 -33 -136t-86 -100.5t-113 -60t-120 -23.5h-18q-148 0 -237.5 88t-92.5 229h220q0 -58 34.5 -87.5t87.5 -29.5q15 0 31 4.5t34.5 15.5 t30.5 35.5t12 58.5v11q0 101 -63 142q-95 62 -141 92.5t-116.5 83t-120.5 98.5q-71 65 -93 106.5t-22 112.5zM285 654q5 -37 37 -66q19 -17 37 -32.5t38.5 -31.5t33.5 -26.5t37 -26.5l33 -22t36 -23.5t32.5 -20.5t37.5 -22.5t35 -21.5l9 -7q33 20 42 34t9 41q-5 37 -37 66 q-28 26 -60.5 52t-58 45t-61 42.5t-53.5 35t-53 33t-43 26.5q-33 -20 -42 -34t-9 -41z" />
<glyph unicode="&#xa8;" d="M122 1119v240h279v-240h-279zM542 1119v240l282 -3v-240z" />
<glyph unicode="&#xa9;" d="M34 513q0 230 54.5 420t161 306t246.5 116q147 0 255.5 -118.5t161.5 -308.5t53 -422q0 -229 -56 -419.5t-164.5 -306.5t-249.5 -116q-144 0 -251 118.5t-159 308.5t-52 422zM170 512q0 -192 43.5 -352t118.5 -250.5t164 -90.5q91 0 166 90.5t118 249t43 351.5v17 q0 138 -32 267t-80.5 216t-105.5 139.5t-109 52.5q-62 0 -121 -53t-104.5 -143.5t-73 -220.5t-27.5 -273zM237 487q0 233 72 387q28 61 73.5 105t98.5 54h3t10.5 1t14.5 1q61 -2 120 -59.5t95 -165.5l-141 -57q-2 7 -7 23.5t-7.5 23t-7 18.5t-8.5 17.5t-10.5 12t-14 9 t-17.5 2.5q-55 0 -90.5 -104.5t-35.5 -244.5q0 -71 10.5 -152.5t38.5 -152t66 -70.5q44 0 66.5 32.5t38.5 105.5l127 -39q-34 -119 -85.5 -185t-137.5 -66q-67 0 -118 38t-79 93t-46 128t-23.5 131t-5.5 114z" />
<glyph unicode="&#xaa;" d="M165 585h19q65 -2 303 -2h181l1 -151h-17q-58 -2 -202 -2h-81q-154 0 -203 3zM175 1093q67 124 237 127q97 0 162 -54t65 -147v-183q0 -38 9 -61t32 -41l-62 -81q-7 5 -19.5 13.5t-18.5 13.5t-15 15t-17 24q-33 -33 -73.5 -46.5t-113.5 -13.5t-128.5 48.5t-55.5 120.5 q0 77 49 128q71 71 186 71q54 0 93 -26q0 59 -31 83t-66 24q-44 0 -72 -19t-54 -55zM316 836q0 -36 21 -52.5t52 -16.5q41 0 74 28.5t42 56.5v26q-16 17 -42 29t-51 12q-33 0 -64.5 -21.5t-31.5 -61.5z" />
<glyph unicode="&#xab;" d="M24 461v115q274 247 304 431l228 -71q-14 -67 -44 -127.5t-77 -115.5t-83.5 -90.5t-96.5 -87.5q113 -104 182.5 -197.5t100.5 -211.5l-218 -87q-59 230 -296 442zM428 451v115q274 247 304 431l228 -72q-14 -67 -44 -127.5t-77 -115.5t-83.5 -90.5t-96.5 -87.5 q113 -104 182.5 -197.5t100.5 -211.5l-218 -86q-59 230 -296 442z" />
<glyph unicode="&#xac;" d="M82 654q68 3 145 3q54 0 146.5 -1.5t122.5 -1.5h119q127 0 341 -2h18v-156h2v-316h-250v230h-232q-14 0 -95.5 1.5t-138.5 1.5q-99 0 -172 -4v122z" />
<glyph unicode="&#xad;" d="M82 654q68 3 145 3q54 0 146.5 -1.5t122.5 -1.5h119q127 0 341 -2h18v-245h-18q-135 3 -462 3q-14 0 -95.5 1.5t-138.5 1.5q-99 0 -172 -4v122z" />
<glyph unicode="&#xae;" d="M34 513q0 230 54.5 420t161 306t246.5 116q147 0 255.5 -118.5t161.5 -308.5t53 -422q0 -229 -56 -419.5t-164.5 -306.5t-249.5 -116q-144 0 -251 118.5t-159 308.5t-52 422zM170 512q0 -192 43.5 -352t118.5 -250.5t164 -90.5q91 0 166 90.5t118 249t43 351.5v17 q0 138 -32 267t-80.5 216t-105.5 139.5t-109 52.5q-62 0 -121 -53t-104.5 -143.5t-73 -220.5t-27.5 -273zM305 1007q12 10 25.5 16.5t31.5 10t27.5 5t33.5 3t30 1.5q8 1 24 1q62 0 108.5 -30t74 -82.5t42 -114t16.5 -133.5q0 -100 -20.5 -182t-65.5 -110q15 -33 43 -110 t49.5 -129t33.5 -61l-140 -92q-24 47 -73 203t-57 175q-9 1 -17.5 1t-14.5 2q0 -73 0.5 -144t0.5 -89q0 -75 -2 -138l-148 2zM456 538q31 -10 56 -10q41 0 56 31.5t15 97.5q0 17 -2 65q-9 169 -116 169h-9v-353z" />
<glyph unicode="&#xaf;" d="M238 1460v197l19 -2q98 -3 272 -3q33 0 102 2.5t90 2.5h17v-194h-17q-203 -7 -230 -7q-133 0 -235 3z" />
<glyph unicode="&#xb0;" d="M246 1473q0 86 81.5 145t194.5 59q112 0 193.5 -59t81.5 -145t-77.5 -140.5t-197.5 -54.5q-116 0 -196 55.5t-80 139.5zM435 1473q0 -25 24.5 -44t61.5 -19t61.5 19t24.5 44t-24 43.5t-62 18.5t-62 -18.5t-24 -43.5z" />
<glyph unicode="&#xb1;" d="M48 854q53 10 143 10h39h160v357l246 1l-2 -357q71 0 145 -1t97 -1h82v-234h-14q-95 0 -305 3v-221q141 0 303 -2h18v-245h-18q-135 3 -500 3q-207 0 -378 -9v122l-6 123q151 8 330 8v218h-89q-185 0 -249 -9z" />
<glyph unicode="&#xb2;" d="M276 698q0 26 4 44q13 71 112 164q15 13 47.5 39.5t57 48t51 49t41 55.5t14.5 54q0 92 -87 92q-35 0 -61.5 -20t-26.5 -58q0 -24 8 -48l-137 -23q-9 30 -11 61v14q0 82 59 136t160 54q114 0 172.5 -50t58.5 -158q0 -20 -3.5 -39t-7 -33t-12.5 -31t-14.5 -26t-18 -24.5 t-17 -20.5t-19.5 -20.5t-17 -17.5q-6 -6 -37.5 -35t-56.5 -53.5t-47.5 -51t-22.5 -37.5h282v-117h-470q0 8 -0.5 25.5t-0.5 26.5z" />
<glyph unicode="&#xb3;" d="M298 843h136q0 -43 26 -60.5t65 -17.5q46 0 75 30.5t29 71t-13.5 62.5t-39.5 39q-46 30 -123 30v108h9q56 0 94.5 26t38.5 76q0 28 -21 44.5t-59 16.5q-60 0 -99 -78l-112 74q2 5 8 15t22.5 27.5t38.5 32t58.5 26t79.5 11.5h6q50 0 88 -8.5t67.5 -26.5t45 -49.5 t15.5 -75.5q0 -51 -34 -99.5t-74 -56.5q72 -23 108 -73.5t36 -121.5q0 -55 -14 -89.5t-48 -67.5q-59 -60 -186 -60q-110 0 -166.5 53t-56.5 141z" />
<glyph unicode="&#xb4;" d="M199 1441q105 35 224 110t208 158l134 -172q-78 -78 -217.5 -154.5t-258.5 -115.5z" />
<glyph unicode="&#xb5;" d="M44 992l248 28q6 -27 10 -71.5t5.5 -121t1.5 -140t0.5 -187t0.5 -202.5q9 -53 32 -72.5t84 -19.5q56 0 99 18t65.5 42.5t36.5 56.5t18 54t4 41l1 582h257l-1 -694q1 -37 39 -80t79 -60l-143 -183q-92 42 -127 125q-99 -101 -342 -106h-9q-44 0 -89 6l-4 -406l-250 3 l5 624q0 39 0.5 132t0.5 143q0 422 -22 488z" />
<glyph unicode="&#xb6;" d="M36 924q0 161 73 250q42 51 94.5 83t122 47t133.5 19.5t161 4.5q68 0 150 -4t139 -4v-1329l-217 -1q0 159 2.5 490t2.5 561v71h-89h-28q0 -148 1 -444t1 -444q0 -69 -24 -152.5t-52 -112.5l-206 102q3 6 13.5 24.5t15 28t11 27.5t9.5 37.5t3 42.5v219q-136 9 -226 139 t-90 345z" />
<glyph unicode="&#xb7;" d="M428 387v313h315v-313h-315z" />
<glyph unicode="&#xb8;" d="M368 -344l60 148q55 -30 128 -30q70 0 74 50v2q0 23 -19 39t-53 16q-75 0 -109 -12v188l223 -1q-2 -16 -2 -75q78 -4 131 -49.5t53 -126.5q0 -95 -75.5 -149t-196.5 -54q-53 0 -113.5 14t-100.5 40z" />
<glyph unicode="&#xb9;" d="M268 1151q45 23 86.5 54t67.5 56.5t48 52.5t30 39.5t11 17.5l128 -23v-679h-137l-1 508q-72 -91 -157 -139z" />
<glyph unicode="&#xba;" d="M141 911q0 307 298 307q99 0 160.5 -27t98.5 -82q41 -63 41 -156q0 -62 -14.5 -112t-47 -93.5t-92.5 -67.5t-143 -24h-2q-153 0 -226 68t-73 187zM165 585h19q65 -2 303 -2h181l1 -151h-17q-58 -2 -202 -2h-81q-154 0 -203 3zM314 920q0 -69 33 -111.5t94 -42.5 q44 0 80 27q42 36 42 154v8q-2 154 -114 154q-74 0 -104.5 -49t-30.5 -140z" />
<glyph unicode="&#xbb;" d="M45 91q13 67 42.5 128t76 116.5t83 91t95.5 88.5q-114 103 -184 196t-102 210l217 88q61 -229 300 -439l1 -116q-272 -249 -301 -433zM449 83q13 68 42.5 128.5t76 116t83 91t95.5 88.5q-114 103 -184 196t-102 211l217 88q61 -229 300 -439l1 -115q-272 -249 -301 -434z " />
<glyph unicode="&#xbc;" d="M45 1153q43 23 83 54t65 57.5t46 53.5t28.5 39.5t10.5 18.5l122 -24v-686h-130l-1 513q-69 -92 -151 -140zM52 85l416 615l297 682l192 -102l-392 -631l-319 -681zM471 304q3 4 48 54t92.5 105.5t95.5 127t63 121.5l135 1v-384h69v-115h-69v-214h-140v213l-245 -2z M626 328l139 1v177q-47 -81 -139 -178z" />
<glyph unicode="&#xbd;" d="M38 97l416 615l297 682l192 -102l-393 -631l-318 -681zM45 1153q43 23 83 54t65 57.5t46 53.5t28.5 39.5t10.5 18.5l122 -24v-686h-130l-1 513q-69 -92 -151 -140zM547 57q0 28 3 43q12 67 109 159q13 12 57.5 49t70.5 61t50.5 61t24.5 69q0 90 -84 90q-33 0 -59 -20 t-26 -57q0 -22 8 -46l-132 -22q-9 28 -11 59v14q0 79 57 131.5t155 52.5q222 0 222 -203q0 -19 -3.5 -37.5t-7 -32t-12.5 -30.5l-13.5 -25.5t-17.5 -24t-16.5 -19.5t-18.5 -20t-16 -17q-5 -5 -36 -34t-55 -52.5t-45.5 -49.5t-21.5 -36h272v-114h-453q0 8 -0.5 25t-0.5 26z " />
<glyph unicode="&#xbe;" d="M3 844h134q0 -78 90 -78q46 0 74.5 31t28.5 71q0 41 -13.5 62.5t-39.5 38.5q-44 30 -121 30v108h8q56 0 94 26t38 76q0 27 -21 44t-58 17q-57 0 -98 -78l-110 74q2 5 8 15t22.5 27.5t37.5 32t57.5 25.5t78.5 11h6q213 0 213 -159q0 -51 -33.5 -99.5t-73.5 -56.5 q143 -47 143 -194q0 -55 -14 -89.5t-47 -67.5q-58 -60 -184 -60q-109 0 -164.5 53t-55.5 140zM52 85l416 615l297 682l192 -102l-392 -631l-319 -681zM471 304q3 4 48 54t92.5 105.5t95.5 127t63 121.5l135 1v-384h69v-115h-69v-214h-140v213l-245 -2zM626 328l139 1v177 q-47 -81 -139 -178z" />
<glyph unicode="&#xbf;" d="M2 116q0 28 3 52.5t11.5 47t14.5 39t22 36.5t22.5 30t28.5 29t27.5 24t31 25t28.5 23q110 89 110 206v49l272 -1v-44q0 -172 -167 -320q-15 -14 -46 -39.5t-44.5 -38t-31 -33.5t-24.5 -42t-7 -46q0 -72 39.5 -115.5t118.5 -43.5q163 0 166 158q0 46 -46 103l218 149 q41 -58 64 -110t23 -114q0 -125 -56.5 -212t-148.5 -126.5t-210 -39.5q-195 0 -307 93t-112 261zM256 837v270h352v-270h-352z" />
<glyph unicode="&#xc0;" d="M6 0q5 71 54 223l358 1102h224l334 -1081q50 -169 50 -244h-276q0 79 -25 167l-32 114q-23 0 -69.5 -1t-65.5 -1.5t-54 -2t-57 -4.5t-52 -8t-59 -12l-30 -90q-36 -111 -40 -162h-260zM218 1578l134 172q89 -83 208 -158t224 -110l-90 -174q-119 39 -258.5 115.5 t-217.5 154.5zM388 486q27 6 71 9t106 5.5t86 3.5q-8 47 -66.5 226.5t-59.5 267.5q-3 -75 -27 -167t-61.5 -198t-48.5 -147z" />
<glyph unicode="&#xc1;" d="M6 0q5 71 54 223l358 1102h224l334 -1081q50 -169 50 -244h-276q0 79 -25 167l-32 114q-23 0 -69.5 -1t-65.5 -1.5t-54 -2t-57 -4.5t-52 -8t-59 -12l-30 -90q-36 -111 -40 -162h-260zM197 1491q105 35 224 110t208 158l134 -172q-78 -78 -217.5 -154.5t-258.5 -115.5z M388 486q27 6 71 9t106 5.5t86 3.5q-8 47 -66.5 226.5t-59.5 267.5q-3 -75 -27 -167t-61.5 -198t-48.5 -147z" />
<glyph unicode="&#xc2;" d="M6 0q5 71 54 223l358 1102h224l334 -1081q50 -169 50 -244h-276q0 79 -25 167l-32 114q-23 0 -69.5 -1t-65.5 -1.5t-54 -2t-57 -4.5t-52 -8t-59 -12l-30 -90q-36 -111 -40 -162h-260zM139 1450l366 297l378 -291l-138 -156l-240 201l-222 -189zM388 486q27 6 71 9 t106 5.5t86 3.5q-8 47 -66.5 226.5t-59.5 267.5q-3 -75 -27 -167t-61.5 -198t-48.5 -147z" />
<glyph unicode="&#xc3;" d="M6 0q5 71 54 223l358 1102h224l334 -1081q50 -169 50 -244h-276q0 79 -25 167l-32 114q-23 0 -69.5 -1t-65.5 -1.5t-54 -2t-57 -4.5t-52 -8t-59 -12l-30 -90q-36 -111 -40 -162h-260zM122 1432q14 39 33 71.5t48 63.5t71.5 49t92.5 18q60 0 107.5 -13.5t75.5 -33 t50.5 -39t45 -33t46.5 -13.5q77 0 86 100l177 -54q-9 -41 -24.5 -76.5t-42.5 -71t-71.5 -56t-102.5 -20.5q-55 0 -99 13.5t-71 32.5t-50 38t-48 32.5t-52 13.5q-32 0 -56.5 -27t-31.5 -73zM388 486q27 6 71 9t106 5.5t86 3.5q-8 47 -66.5 226.5t-59.5 267.5q-3 -75 -27 -167 t-61.5 -198t-48.5 -147z" />
<glyph unicode="&#xc4;" d="M6 0q5 71 54 223l358 1102h224l334 -1081q50 -169 50 -244h-276q0 79 -25 167l-32 114q-23 0 -69.5 -1t-65.5 -1.5t-54 -2t-57 -4.5t-52 -8t-59 -12l-30 -90q-36 -111 -40 -162h-260zM180 1411v240h279v-240h-279zM388 486q27 6 71 9t106 5.5t86 3.5q-8 47 -66.5 226.5 t-59.5 267.5q-3 -75 -27 -167t-61.5 -198t-48.5 -147zM600 1411v240l282 -3v-240z" />
<glyph unicode="&#xc5;" d="M6 0q5 71 54 223l343 1055q-69 24 -110 70.5t-41 105.5q0 86 81.5 145t194.5 59q112 0 193 -59t81 -145q0 -60 -39 -106t-107 -69l320 -1035q50 -169 50 -244h-276q0 79 -25 167l-32 114q-23 0 -69.5 -1t-65.5 -1.5t-54 -2t-57 -4.5t-52 -8t-59 -12l-30 -90 q-38 -115 -40 -162h-260zM388 486q27 6 71 9t106 5.5t86 3.5q-8 47 -66.5 226.5t-59.5 267.5q-3 -75 -27 -167t-61.5 -198t-48.5 -147zM440 1454q0 -25 24.5 -44t61.5 -19t61.5 19t24.5 44t-23.5 43.5t-62.5 18.5q-38 0 -62 -19t-24 -43z" />
<glyph unicode="&#xc6;" d="M0 45q54 219 146 671.5t126 606.5l145 -3q43 2 157 2h125h260v-206h-17q-36 0 -81.5 -1t-112.5 -1h-142l24 -268q16 0 46 2t79 2h106v-208h-106q-47 0 -71 -2t-38 -2l48 -435h157q27 0 52 6.5t36 12.5l11 6l58 -196q-70 -37 -187 -37h-342q-16 224 -33 424q-27 3 -47 3 q-34 0 -85 -12l-80 -410zM329 625q58 6 100 6l-31 366z" />
<glyph unicode="&#xc7;" d="M56 636q0 296 133 496q58 87 158.5 143.5t224.5 56.5q117 0 228.5 -56t173.5 -169l-232 -125q-36 90 -72.5 118t-103.5 28q-45 0 -87.5 -28t-79.5 -84.5t-59 -157t-22 -230.5q0 -194 68 -312t154 -118h14q46 0 78 11t56 38t40 59t36 86l246 -137q-44 -94 -130 -159 t-195 -88q-1 -15 -1 -72q78 -4 130 -49.5t52 -126.5q0 -95 -74.5 -148.5t-196.5 -53.5q-53 0 -113.5 14t-100.5 40l60 147q53 -29 129 -29q69 0 73 49v2q0 23 -19 39.5t-53 16.5q-73 0 -109 -13v182q-141 24 -227 110q-179 186 -179 520z" />
<glyph unicode="&#xc8;" d="M102 0v1319q56 4 204 4h98h110q84 0 207.5 -1.5t151.5 -1.5h16v-202h-529v-269h338v-203h-338v-31q0 -119 -1 -253.5t-1 -157.5l416 2q25 0 56 7t50 13l19 7l72 -199q-9 -2 -34.5 -10t-41 -12t-46.5 -8t-65 -4h-682zM237 1597l134 172q89 -83 208 -158t224 -110l-90 -174 q-119 39 -258.5 115.5t-217.5 154.5z" />
<glyph unicode="&#xc9;" d="M102 0v1319q56 4 204 4h98h110q84 0 207.5 -1.5t151.5 -1.5h16v-202h-529v-269h338v-203h-338v-31q0 -119 -1 -253.5t-1 -157.5l416 2q25 0 56 7t50 13l19 7l72 -199q-9 -2 -34.5 -10t-41 -12t-46.5 -8t-65 -4h-682zM178 1499q105 35 224 110t208 158l134 -172 q-78 -78 -217.5 -154.5t-258.5 -115.5z" />
<glyph unicode="&#xca;" d="M102 0v1319q56 4 204 4h98h110q84 0 207.5 -1.5t151.5 -1.5h16v-202h-529v-269h338v-203h-338v-31q0 -119 -1 -253.5t-1 -157.5l416 2q25 0 56 7t50 13l19 7l72 -199q-9 -2 -34.5 -10t-41 -12t-46.5 -8t-65 -4h-682zM132 1486l366 297l378 -291l-138 -156l-240 201 l-222 -189z" />
<glyph unicode="&#xcb;" d="M102 0v1319q56 4 204 4h98h110q84 0 207.5 -1.5t151.5 -1.5h16v-202h-529v-269h338v-203h-338v-31q0 -119 -1 -253.5t-1 -157.5l416 2q25 0 56 7t50 13l19 7l72 -199q-9 -2 -34.5 -10t-41 -12t-46.5 -8t-65 -4h-682zM182 1456v240h279v-240h-279zM602 1456v240l282 -3 v-240z" />
<glyph unicode="&#xcc;" d="M132 1324q195 5 353 5q123 0 368 -3l-1 -211q-65 0 -125.5 2.5t-104.5 2.5v-901q22 0 39 0.5t43 0.5q75 0 144 -4l1 -217q-102 6 -210 6q-22 0 -73 -0.5t-82 -0.5q-27 0 -144.5 -3.5t-205.5 -3.5v216q106 5 180 5h52v901q-142 -2 -228 -7zM215 1609l134 172 q89 -83 208 -158t224 -110l-90 -174q-119 39 -258.5 115.5t-217.5 154.5z" />
<glyph unicode="&#xcd;" d="M132 1324q195 5 353 5q123 0 368 -3l-1 -211q-65 0 -125.5 2.5t-104.5 2.5v-901q22 0 39 0.5t43 0.5q75 0 144 -4l1 -217q-102 6 -210 6q-22 0 -73 -0.5t-82 -0.5q-27 0 -144.5 -3.5t-205.5 -3.5v216q106 5 180 5h52v901q-142 -2 -228 -7zM197 1502q105 35 224 110 t208 158l134 -172q-78 -78 -217.5 -154.5t-258.5 -115.5z" />
<glyph unicode="&#xce;" d="M125 1483l366 297l378 -291l-138 -156l-240 201l-222 -189zM132 1324q195 5 353 5q123 0 368 -3l-1 -211q-65 0 -125.5 2.5t-104.5 2.5v-901q22 0 39 0.5t43 0.5q75 0 144 -4l1 -217q-102 6 -210 6q-22 0 -73 -0.5t-82 -0.5q-27 0 -144.5 -3.5t-205.5 -3.5v216 q106 5 180 5h52v901q-142 -2 -228 -7z" />
<glyph unicode="&#xcf;" d="M132 1324q195 5 353 5q123 0 368 -3l-1 -211q-65 0 -125.5 2.5t-104.5 2.5v-901q22 0 39 0.5t43 0.5q75 0 144 -4l1 -217q-102 6 -210 6q-22 0 -73 -0.5t-82 -0.5q-27 0 -144.5 -3.5t-205.5 -3.5v216q106 5 180 5h52v901q-142 -2 -228 -7zM138 1450v240h279v-240h-279z M558 1450v240l282 -3v-240z" />
<glyph unicode="&#xd0;" d="M6 732v210h70v35q0 213 -13 340q142 14 225 14q201 0 328.5 -63t221.5 -202q63 -95 97 -222.5t34 -263.5q0 -97 -21 -204q-34 -173 -140 -269.5t-249 -109.5q-77 -7 -161 -7q-38 0 -154 3.5t-177 3.5q0 33 3 131q0 15 1.5 108t3 233.5t1.5 262.5h-70zM324 198 q88 -3 99 -3h3q182 0 249 158q27 64 27 191q0 285 -77 434t-222 149h-30q-28 0 -45 -3q1 -26 1 -87q0 -22 -0.5 -51.5t-0.5 -43.5h254l2 -209l-256 -1q-1 -310 -4 -534z" />
<glyph unicode="&#xd1;" d="M75 -3v1328l211 -7q75 -111 152.5 -243t156 -297.5t101.5 -273.5l-7 274q0 319 12 551l244 -1q-8 -153 -8 -433q0 -115 2 -361t2 -364q0 -30 -0.5 -87t-0.5 -83h-249q-66 189 -166.5 398.5t-204.5 379.5v-208q0 -168 0.5 -341t0.5 -232h-246zM112 1450q14 39 33 71.5 t48 63.5t71.5 49t92.5 18q60 0 107.5 -13.5t75.5 -33t50.5 -39t45 -33t46.5 -13.5q77 0 86 100l177 -54q-9 -41 -24.5 -76.5t-42.5 -71t-71.5 -56t-102.5 -20.5q-55 0 -99 13.5t-71 32.5t-50 38t-48 32.5t-52 13.5q-32 0 -56.5 -27t-31.5 -73z" />
<glyph unicode="&#xd2;" d="M36 579q0 243 35 383.5t95 224.5q51 71 146.5 116t209.5 47q39 0 76 -5.5t84 -24t86.5 -48.5t79 -84t67 -125.5t45.5 -178.5t19 -237v-11q0 -124 -21.5 -235.5t-57.5 -183.5q-56 -109 -160.5 -171t-229.5 -62q-101 0 -198 35.5t-154 107.5q-122 152 -122 452zM217 1621 l134 172q89 -83 208 -158t224 -110l-90 -174q-119 39 -258.5 115.5t-217.5 154.5zM297 592q0 -88 13 -179.5t41 -135.5q34 -54 67.5 -72t91.5 -18q103 0 159 139q19 42 33.5 139t15.5 175v17q0 232 -45 352q-52 138 -152 138q-49 0 -81 -21.5t-62 -74.5q-81 -143 -81 -459z " />
<glyph unicode="&#xd3;" d="M36 579q0 243 35 383.5t95 224.5q51 71 146.5 116t209.5 47q39 0 76 -5.5t84 -24t86.5 -48.5t79 -84t67 -125.5t45.5 -178.5t19 -237v-11q0 -124 -21.5 -235.5t-57.5 -183.5q-56 -109 -160.5 -171t-229.5 -62q-101 0 -198 35.5t-154 107.5q-122 152 -122 452zM247 1527 q105 35 224 110t208 158l134 -172q-78 -78 -217.5 -154.5t-258.5 -115.5zM297 592q0 -88 13 -179.5t41 -135.5q34 -54 67.5 -72t91.5 -18q103 0 159 139q19 42 33.5 139t15.5 175v17q0 232 -45 352q-52 138 -152 138q-49 0 -81 -21.5t-62 -74.5q-81 -143 -81 -459z" />
<glyph unicode="&#xd4;" d="M36 579q0 243 35 383.5t95 224.5q51 71 146.5 116t209.5 47q39 0 76 -5.5t84 -24t86.5 -48.5t79 -84t67 -125.5t45.5 -178.5t19 -237v-11q0 -124 -21.5 -235.5t-57.5 -183.5q-56 -109 -160.5 -171t-229.5 -62q-101 0 -198 35.5t-154 107.5q-122 152 -122 452zM135 1489 l366 297l378 -291l-138 -156l-240 201l-222 -189zM297 592q0 -88 13 -179.5t41 -135.5q34 -54 67.5 -72t91.5 -18q103 0 159 139q19 42 33.5 139t15.5 175v17q0 232 -45 352q-52 138 -152 138q-49 0 -81 -21.5t-62 -74.5q-81 -143 -81 -459z" />
<glyph unicode="&#xd5;" d="M36 579q0 243 35 383.5t95 224.5q51 71 146.5 116t209.5 47q39 0 76 -5.5t84 -24t86.5 -48.5t79 -84t67 -125.5t45.5 -178.5t19 -237v-11q0 -124 -21.5 -235.5t-57.5 -183.5q-56 -109 -160.5 -171t-229.5 -62q-101 0 -198 35.5t-154 107.5q-122 152 -122 452zM121 1471 q14 39 33 71.5t48 63.5t71.5 49t92.5 18q60 0 107.5 -13.5t75.5 -33t50.5 -39t45 -33t46.5 -13.5q77 0 86 100l177 -54q-9 -41 -24.5 -76.5t-42.5 -71t-71.5 -56t-102.5 -20.5q-55 0 -99 13.5t-71 32.5t-50 38t-48 32.5t-52 13.5q-32 0 -56.5 -27t-31.5 -73zM297 592 q0 -88 13 -179.5t41 -135.5q34 -54 67.5 -72t91.5 -18q103 0 159 139q19 42 33.5 139t15.5 175v17q0 232 -45 352q-52 138 -152 138q-49 0 -81 -21.5t-62 -74.5q-81 -143 -81 -459z" />
<glyph unicode="&#xd6;" d="M36 579q0 243 35 383.5t95 224.5q51 71 146.5 116t209.5 47q39 0 76 -5.5t84 -24t86.5 -48.5t79 -84t67 -125.5t45.5 -178.5t19 -237v-11q0 -124 -21.5 -235.5t-57.5 -183.5q-56 -109 -160.5 -171t-229.5 -62q-101 0 -198 35.5t-154 107.5q-122 152 -122 452zM172 1441 v240h279v-240h-279zM297 592q0 -88 13 -179.5t41 -135.5q34 -54 67.5 -72t91.5 -18q103 0 159 139q19 42 33.5 139t15.5 175v17q0 232 -45 352q-52 138 -152 138q-49 0 -81 -21.5t-62 -74.5q-81 -143 -81 -459zM592 1441v240l282 -3v-240z" />
<glyph unicode="&#xd7;" d="M30 835l168 164q37 -26 90.5 -80t119 -127t91.5 -99l309 297l172 -175l-310 -296q73 -76 160 -169.5t150 -158.5l-168 -164q-65 70 -306 326l-299 -315l-175 181l297 312q-46 47 -120.5 126t-114 119t-64.5 59z" />
<glyph unicode="&#xd8;" d="M33 -11q16 29 49 87.5t49 87.5q-95 150 -95 415q0 243 35 383.5t95 224.5q51 71 146.5 116t209.5 47q135 0 232 -68q14 24 41 72.5t40 73.5l160 -101l-111 -199q92 -171 95 -481v-11q0 -124 -21.5 -235.5t-57.5 -183.5q-56 -109 -160.5 -171t-229.5 -62q-128 0 -234 51 l-84 -150zM297 592q0 -56 6 -121q226 404 337 605q-46 71 -119 71q-49 0 -81 -21.5t-62 -74.5q-81 -143 -81 -459zM385 232q25 -26 53 -35.5t72 -9.5q103 0 159 139q19 42 33.5 139t15.5 175v17q0 82 -7 160z" />
<glyph unicode="&#xd9;" d="M61 795q0 293 9 534h258q-8 -336 -8 -586v-141q0 -110 6 -154q1 -4 4.5 -29t4.5 -33t6 -32t8.5 -33.5t11 -29.5t15.5 -29.5t19.5 -23.5t25 -20.5t31 -11.5t38.5 -6q33 1 59.5 11t46.5 24t35.5 40t25.5 49.5t17 63.5t11 69.5t5.5 81t2 85.5t0.5 94q0 57 -2.5 206.5 t-2.5 241.5q0 102 13 184l253 -28q-8 -57 -8 -127v-29q0 -78 1.5 -208.5t1.5 -182.5v-59q0 -110 -3 -178.5t-13.5 -154.5t-35.5 -150.5t-65 -111.5q-103 -122 -340 -131q-114 0 -193.5 30t-127.5 92t-72 145t-31 199q-7 108 -7 339zM211 1611l134 172q89 -83 208 -158 t224 -110l-90 -174q-119 39 -258.5 115.5t-217.5 154.5z" />
<glyph unicode="&#xda;" d="M61 795q0 293 9 534h258q-8 -336 -8 -586v-141q0 -110 6 -154q1 -4 4.5 -29t4.5 -33t6 -32t8.5 -33.5t11 -29.5t15.5 -29.5t19.5 -23.5t25 -20.5t31 -11.5t38.5 -6q33 1 59.5 11t46.5 24t35.5 40t25.5 49.5t17 63.5t11 69.5t5.5 81t2 85.5t0.5 94q0 57 -2.5 206.5 t-2.5 241.5q0 102 13 184l253 -28q-8 -57 -8 -127v-29q0 -78 1.5 -208.5t1.5 -182.5v-59q0 -110 -3 -178.5t-13.5 -154.5t-35.5 -150.5t-65 -111.5q-103 -122 -340 -131q-114 0 -193.5 30t-127.5 92t-72 145t-31 199q-7 108 -7 339zM247 1498q105 35 224 110t208 158 l134 -172q-78 -78 -217.5 -154.5t-258.5 -115.5z" />
<glyph unicode="&#xdb;" d="M61 795q0 293 9 534h258q-8 -336 -8 -586v-141q0 -110 6 -154q1 -4 4.5 -29t4.5 -33t6 -32t8.5 -33.5t11 -29.5t15.5 -29.5t19.5 -23.5t25 -20.5t31 -11.5t38.5 -6q33 1 59.5 11t46.5 24t35.5 40t25.5 49.5t17 63.5t11 69.5t5.5 81t2 85.5t0.5 94q0 57 -2.5 206.5 t-2.5 241.5q0 102 13 184l253 -28q-8 -57 -8 -127v-29q0 -78 1.5 -208.5t1.5 -182.5v-59q0 -110 -3 -178.5t-13.5 -154.5t-35.5 -150.5t-65 -111.5q-103 -122 -340 -131q-114 0 -193.5 30t-127.5 92t-72 145t-31 199q-7 108 -7 339zM144 1501l366 297l378 -291l-138 -156 l-240 201l-222 -189z" />
<glyph unicode="&#xdc;" d="M61 795q0 293 9 534h258q-8 -336 -8 -586v-141q0 -110 6 -154q1 -4 4.5 -29t4.5 -33t6 -32t8.5 -33.5t11 -29.5t15.5 -29.5t19.5 -23.5t25 -20.5t31 -11.5t38.5 -6q33 1 59.5 11t46.5 24t35.5 40t25.5 49.5t17 63.5t11 69.5t5.5 81t2 85.5t0.5 94q0 57 -2.5 206.5 t-2.5 241.5q0 102 13 184l253 -28q-8 -57 -8 -127v-29q0 -78 1.5 -208.5t1.5 -182.5v-59q0 -110 -3 -178.5t-13.5 -154.5t-35.5 -150.5t-65 -111.5q-103 -122 -340 -131q-114 0 -193.5 30t-127.5 92t-72 145t-31 199q-7 108 -7 339zM166 1456v240h279v-240h-279zM586 1456 v240l282 -3v-240z" />
<glyph unicode="&#xdd;" d="M14 1222l219 141q174 -344 278 -511q23 34 50.5 83.5t50 94.5t49 105t42 96t37 86.5t24.5 58.5l228 -136q-39 -80 -178.5 -324t-188.5 -314q0 -23 -1 -73.5t-1 -78.5q-5 -225 -5 -322v-128h-250v138q0 42 3.5 226.5t3.5 248.5q-60 86 -191.5 307.5t-169.5 301.5z M205 1509q105 35 224 110t208 158l134 -172q-78 -78 -217.5 -154.5t-258.5 -115.5z" />
<glyph unicode="&#xde;" d="M104 -9v1329q56 0 129.5 4t122.5 4v-129h37q97 0 161 -4.5t133.5 -19.5t122 -47t94.5 -83q41 -51 56.5 -92t15.5 -109q0 -64 -15.5 -121.5t-50.5 -110t-88 -90.5t-133.5 -60.5t-180.5 -22.5q-73 0 -154 3v-452zM354 649q72 -2 104 -2q40 0 72 3.5t68 15t60 30.5t40 53 t16 80q0 56 -34 94t-76.5 51.5t-88.5 13.5h-9q-35 0 -86 -2.5t-64 -2.5v-71z" />
<glyph unicode="&#xdf;" d="M21 211q36 18 46 50q9 29 9 137v50q0 95 -4.5 282.5t-4.5 272.5q0 80 36.5 153t112 122.5t174.5 49.5q91 0 163.5 -17.5t128.5 -54t86 -99t30 -148.5q0 -174 -128 -230q59 -10 108.5 -34t95.5 -68.5t72 -120t26 -175.5q0 -112 -22.5 -188t-69.5 -118t-108 -59.5 t-148 -17.5q-137 0 -194 72t-57 228q0 4 0.5 12t0.5 12l204 -2q0 -28 2 -46t8.5 -37t20.5 -28.5t37 -9.5q42 0 62 44.5t20 151.5q0 36 -8.5 67t-32.5 63.5t-62 56t-102 38t-147 14.5v206q60 0 97 10.5t54 35t22 49.5t5 68q0 58 -44.5 88.5t-96.5 30.5q-48 0 -72.5 -31.5 t-24.5 -83.5q0 -74 2.5 -267t2.5 -290q0 -20 0.5 -60t0.5 -59q0 -146 -23 -214q-5 -15 -14 -29.5t-18 -25t-25 -23t-24.5 -19.5t-28.5 -18t-26.5 -14.5t-27.5 -13.5t-22 -11z" />
<glyph unicode="&#xe0;" d="M65 302q0 146 89 238q69 71 149 100.5t190 29.5q99 0 168 -47q0 58 -18.5 100t-48 61.5t-56 27.5t-53.5 8q-178 0 -283 -111l-120 192q134 88 200 106.5t211 20.5q114 0 206.5 -43t149 -129t56.5 -201v-339q0 -70 17 -113t59 -76l-113 -149q-12 9 -35 25t-34 25 t-27.5 28.5t-31.5 44.5q-59 -61 -133.5 -86.5t-206.5 -25.5t-233.5 90t-101.5 223zM165 1321l134 172q89 -83 208 -158t224 -110l-90 -174q-119 39 -258.5 115.5t-217.5 154.5zM318 317q0 -68 38.5 -98t94.5 -30q74 0 133.5 53t76.5 105v47q-28 32 -74.5 54t-93.5 22 q-61 0 -118 -39.5t-57 -113.5z" />
<glyph unicode="&#xe1;" d="M65 302q0 146 89 238q69 71 149 100.5t190 29.5q99 0 168 -47q0 58 -18.5 100t-48 61.5t-56 27.5t-53.5 8q-178 0 -283 -111l-120 192q134 88 200 106.5t211 20.5q114 0 206.5 -43t149 -129t56.5 -201v-339q0 -70 17 -113t59 -76l-113 -149q-12 9 -35 25t-34 25 t-27.5 28.5t-31.5 44.5q-59 -61 -133.5 -86.5t-206.5 -25.5t-233.5 90t-101.5 223zM189 1225q105 35 224 110t208 158l134 -172q-78 -78 -217.5 -154.5t-258.5 -115.5zM318 317q0 -68 38.5 -98t94.5 -30q74 0 133.5 53t76.5 105v47q-28 32 -74.5 54t-93.5 22 q-61 0 -118 -39.5t-57 -113.5z" />
<glyph unicode="&#xe2;" d="M65 302q0 146 89 238q69 71 149 100.5t190 29.5q99 0 168 -47q0 58 -18.5 100t-48 61.5t-56 27.5t-53.5 8q-178 0 -283 -111l-120 192q134 88 200 106.5t211 20.5q114 0 206.5 -43t149 -129t56.5 -201v-339q0 -70 17 -113t59 -76l-113 -149q-12 9 -35 25t-34 25 t-27.5 28.5t-31.5 44.5q-59 -61 -133.5 -86.5t-206.5 -25.5t-233.5 90t-101.5 223zM87 1201l366 297l378 -291l-138 -156l-240 201l-222 -189zM318 317q0 -68 38.5 -98t94.5 -30q74 0 133.5 53t76.5 105v47q-28 32 -74.5 54t-93.5 22q-61 0 -118 -39.5t-57 -113.5z" />
<glyph unicode="&#xe3;" d="M55 1213q14 39 33 71.5t48 63.5t71.5 49t92.5 18q60 0 107.5 -13.5t75.5 -33t50.5 -39t45 -33t46.5 -13.5q77 0 86 100l177 -54q-9 -41 -24.5 -76.5t-42.5 -71t-71.5 -56t-102.5 -20.5q-55 0 -99 13.5t-71 32.5t-50 38t-48 32.5t-52 13.5q-32 0 -56.5 -27t-31.5 -73z M65 302q0 146 89 238q69 71 149 100.5t190 29.5q99 0 168 -47q0 58 -18.5 100t-48 61.5t-56 27.5t-53.5 8q-178 0 -283 -111l-120 192q134 88 200 106.5t211 20.5q114 0 206.5 -43t149 -129t56.5 -201v-339q0 -70 17 -113t59 -76l-113 -149q-12 9 -35 25t-34 25t-27.5 28.5 t-31.5 44.5q-59 -61 -133.5 -86.5t-206.5 -25.5t-233.5 90t-101.5 223zM318 317q0 -68 38.5 -98t94.5 -30q74 0 133.5 53t76.5 105v47q-28 32 -74.5 54t-93.5 22q-61 0 -118 -39.5t-57 -113.5z" />
<glyph unicode="&#xe4;" d="M65 302q0 146 89 238q69 71 149 100.5t190 29.5q99 0 168 -47q0 58 -18.5 100t-48 61.5t-56 27.5t-53.5 8q-178 0 -283 -111l-120 192q134 88 200 106.5t211 20.5q114 0 206.5 -43t149 -129t56.5 -201v-339q0 -70 17 -113t59 -76l-113 -149q-12 9 -35 25t-34 25 t-27.5 28.5t-31.5 44.5q-59 -61 -133.5 -86.5t-206.5 -25.5t-233.5 90t-101.5 223zM133 1185v240h279v-240h-279zM318 317q0 -68 38.5 -98t94.5 -30q74 0 133.5 53t76.5 105v47q-28 32 -74.5 54t-93.5 22q-61 0 -118 -39.5t-57 -113.5zM553 1185v240l282 -3v-240z" />
<glyph unicode="&#xe5;" d="M65 302q0 146 89 238q69 71 149 100.5t190 29.5q99 0 168 -47q0 58 -18.5 100t-48 61.5t-56 27.5t-53.5 8q-178 0 -283 -111l-120 192q134 88 200 106.5t211 20.5q114 0 206.5 -43t149 -129t56.5 -201v-339q0 -70 17 -113t59 -76l-113 -149q-12 9 -35 25t-34 25 t-27.5 28.5t-31.5 44.5q-59 -61 -133.5 -86.5t-206.5 -25.5t-233.5 90t-101.5 223zM222 1286q0 86 81.5 145t194.5 59q112 0 193.5 -59t81.5 -145t-77.5 -140.5t-197.5 -54.5q-116 0 -196 55.5t-80 139.5zM318 317q0 -68 38.5 -98t94.5 -30q74 0 133.5 53t76.5 105v47 q-28 32 -74.5 54t-93.5 22q-61 0 -118 -39.5t-57 -113.5zM411 1286q0 -25 24.5 -44t61.5 -19t61.5 19t24.5 44t-24 43.5t-62 18.5t-62 -18.5t-24 -43.5z" />
<glyph unicode="&#xe6;" d="M0 784q49 130 125 182t175 52q51 0 86 -9t77 -41q27 -23 50 -59q71 109 178 109q96 0 166 -66t103.5 -165t37.5 -217v-116q-172 -7 -318 -7h-32l-2 -173q14 -37 26.5 -51.5t39.5 -14.5q51 0 70 20.5t24 61.5l190 -72q-2 -9 -6.5 -23.5t-25.5 -52t-48.5 -66.5t-79 -52.5 t-114.5 -23.5q-38 0 -70 6t-52 14t-38 20.5t-26 21t-18.5 21t-12.5 14.5q-82 -93 -193 -93q-107 0 -182 53q-107 75 -107 252q0 53 8 101t28 94.5t49.5 80.5t76.5 55t106 21q27 0 47.5 -3t29.5 -6.5t26 -11.5t24 -11q0 35 -1.5 56.5t-7.5 47.5t-17 40.5t-32.5 24.5t-52.5 10 h-9q-40 0 -59 -20.5t-41 -85.5zM256 322q0 -78 18 -119t48 -41q31 0 51 22.5t26.5 48.5t11.5 57t7 37v147q-5 3 -16 9.5t-14.5 8.5t-11.5 6t-12.5 5t-12.5 2.5t-16.5 2t-20.5 0.5q-24 0 -41 -54.5t-17 -131.5zM648 654q100 0 144 6q-5 79 -25.5 113.5t-64.5 34.5 q-54 0 -54 -133v-21z" />
<glyph unicode="&#xe7;" d="M71 527q0 491 493 491q164 0 255 -61q89 -60 128 -151l-220 -102q-27 103 -181 103q-104 0 -161.5 -81.5t-57.5 -197.5q0 -66 10 -118.5t24 -85.5t36 -57t40.5 -36t42 -18.5t35.5 -7.5t27 -1h12q69 0 114.5 37.5t87.5 108.5l226 -134q-87 -193 -331 -219q0 -9 -0.5 -21 t-0.5 -20v-9q78 -4 130.5 -49.5t52.5 -126.5q0 -95 -75 -148.5t-197 -53.5q-53 0 -113.5 14t-100.5 40l60 147q53 -29 129 -29q69 0 73 49v2q0 23 -18.5 39.5t-52.5 16.5q-73 0 -109 -13v166q-112 15 -188 72q-93 72 -131.5 183.5t-38.5 270.5z" />
<glyph unicode="&#xe8;" d="M78 516q0 223 113 364t318 141q229 0 328.5 -139t99.5 -405l-1 -43q-438 -6 -600 -38q12 -83 69.5 -141.5t126.5 -58.5q75 0 120.5 25t101.5 85l178 -156q-42 -47 -73 -73t-77.5 -48t-106.5 -30.5t-149 -8.5q-211 0 -329.5 143.5t-118.5 382.5zM185 1321l134 172 q89 -83 208 -158t224 -110l-90 -174q-119 39 -258.5 115.5t-217.5 154.5zM336 606q136 24 340 24q-4 94 -49.5 141t-115.5 47q-74 0 -122 -61t-53 -151z" />
<glyph unicode="&#xe9;" d="M78 516q0 223 113 364t318 141q229 0 328.5 -139t99.5 -405l-1 -43q-438 -6 -600 -38q12 -83 69.5 -141.5t126.5 -58.5q75 0 120.5 25t101.5 85l178 -156q-42 -47 -73 -73t-77.5 -48t-106.5 -30.5t-149 -8.5q-211 0 -329.5 143.5t-118.5 382.5zM215 1221q105 35 224 110 t208 158l134 -172q-78 -78 -217.5 -154.5t-258.5 -115.5zM336 606q136 24 340 24q-4 94 -49.5 141t-115.5 47q-74 0 -122 -61t-53 -151z" />
<glyph unicode="&#xea;" d="M78 516q0 223 113 364t318 141q229 0 328.5 -139t99.5 -405l-1 -43q-438 -6 -600 -38q12 -83 69.5 -141.5t126.5 -58.5q75 0 120.5 25t101.5 85l178 -156q-42 -47 -73 -73t-77.5 -48t-106.5 -30.5t-149 -8.5q-211 0 -329.5 143.5t-118.5 382.5zM131 1198l366 297 l378 -291l-138 -156l-240 201l-222 -189zM336 606q136 24 340 24q-4 94 -49.5 141t-115.5 47q-74 0 -122 -61t-53 -151z" />
<glyph unicode="&#xeb;" d="M78 516q0 223 113 364t318 141q229 0 328.5 -139t99.5 -405l-1 -43q-438 -6 -600 -38q12 -83 69.5 -141.5t126.5 -58.5q75 0 120.5 25t101.5 85l178 -156q-42 -47 -73 -73t-77.5 -48t-106.5 -30.5t-149 -8.5q-211 0 -329.5 143.5t-118.5 382.5zM172 1185v240h279v-240 h-279zM336 606q136 24 340 24q-4 94 -49.5 141t-115.5 47q-74 0 -122 -61t-53 -151zM592 1185v240l282 -3v-240z" />
<glyph unicode="&#xec;" d="M91 971q141 42 263 42h255l1 -739q0 -51 21.5 -71.5t87.5 -20.5q67 0 116 22.5t97 68.5l97 -190q-61 -50 -160.5 -75.5t-200.5 -25.5q-151 0 -221 38q-93 51 -93 186v607q-113 0 -234 -28zM111 1363l134 172q89 -83 208 -158t224 -110l-90 -174q-119 39 -258.5 115.5 t-217.5 154.5z" />
<glyph unicode="&#xed;" d="M91 971q141 42 263 42h255l1 -739q0 -51 21.5 -71.5t87.5 -20.5q67 0 116 22.5t97 68.5l97 -190q-61 -50 -160.5 -75.5t-200.5 -25.5q-151 0 -221 38q-93 51 -93 186v607q-113 0 -234 -28zM209 1231q105 35 224 110t208 158l134 -172q-78 -78 -217.5 -154.5 t-258.5 -115.5z" />
<glyph unicode="&#xee;" d="M91 971q141 42 263 42h255l1 -739q0 -51 21.5 -71.5t87.5 -20.5q67 0 116 22.5t97 68.5l97 -190q-61 -50 -160.5 -75.5t-200.5 -25.5q-151 0 -221 38q-93 51 -93 186v607q-113 0 -234 -28zM98 1204l366 297l378 -291l-138 -156l-240 201l-222 -189z" />
<glyph unicode="&#xef;" d="M91 971q141 42 263 42h255l1 -739q0 -51 21.5 -71.5t87.5 -20.5q67 0 116 22.5t97 68.5l97 -190q-61 -50 -160.5 -75.5t-200.5 -25.5q-151 0 -221 38q-93 51 -93 186v607q-113 0 -234 -28zM108 1183v240h279v-240h-279zM528 1183v240l282 -3v-240z" />
<glyph unicode="&#xf0;" d="M52 504q0 64 10.5 125.5t40.5 130.5t77.5 122t129.5 91t187 45q-40 55 -67 83q-53 -17 -132.5 -48.5t-103.5 -40.5l-59 202q116 22 177 44q-10 15 -28 31.5t-32.5 27.5t-15.5 14l219 113q17 -22 52.5 -62t46.5 -54l296 94l58 -202l-250 -39q69 -83 103 -126t82 -114.5 t70.5 -125.5t39.5 -126.5t17 -149.5q0 -257 -124 -397.5t-362 -140.5h-2q-198 1 -314 143.5t-116 359.5zM304 504q0 -56 9.5 -105.5t29.5 -93t56 -69t85 -25.5q123 0 178.5 83.5t55.5 245.5q0 93 -25 153t-92 132q-71 0 -125 -19.5t-86 -50.5t-52 -75t-27 -86t-7 -90z" />
<glyph unicode="&#xf1;" d="M68 1004l232 48q31 -74 38 -125q43 39 131.5 69t168.5 30q133 0 216.5 -57t83.5 -173v-518q0 -22 6.5 -39t23.5 -31t27.5 -21t37.5 -21q7 -4 11 -6l-116 -200q-41 13 -78.5 32t-76.5 50t-62.5 77.5t-23.5 102.5v477q0 61 -17.5 90.5t-64.5 29.5q-51 0 -122.5 -29.5 t-131.5 -82.5v-707h-251v706q0 87 -3.5 138.5t-8.5 76.5t-20 83zM90 1200q14 39 33 71.5t48 63.5t71.5 49t92.5 18q60 0 107.5 -13.5t75.5 -33t50.5 -39t45 -33t46.5 -13.5q77 0 86 100l177 -54q-9 -41 -24.5 -76.5t-42.5 -71t-71.5 -56t-102.5 -20.5q-55 0 -99 13.5 t-71 32.5t-50 38t-48 32.5t-52 13.5q-32 0 -56.5 -27t-31.5 -73z" />
<glyph unicode="&#xf2;" d="M72 464q0 568 433 568q144 0 233.5 -49.5t143.5 -151.5q59 -114 59 -288q0 -74 -9 -140t-28 -129t-53 -113t-80.5 -88t-113 -58.5t-148.5 -20.5h-2q-223 0 -329 124.5t-106 345.5zM139 1323l134 172q89 -83 208 -158t224 -110l-90 -174q-119 39 -258.5 115.5 t-217.5 154.5zM324 482q0 -128 48 -206.5t136 -78.5q40 1 64.5 11.5t52.5 38.5q60 66 60 283v16q-2 132 -39 208t-126 76q-107 0 -151.5 -90t-44.5 -258z" />
<glyph unicode="&#xf3;" d="M72 464q0 568 433 568q144 0 233.5 -49.5t143.5 -151.5q59 -114 59 -288q0 -74 -9 -140t-28 -129t-53 -113t-80.5 -88t-113 -58.5t-148.5 -20.5h-2q-223 0 -329 124.5t-106 345.5zM217 1227q105 35 224 110t208 158l134 -172q-78 -78 -217.5 -154.5t-258.5 -115.5z M324 482q0 -128 48 -206.5t136 -78.5q40 1 64.5 11.5t52.5 38.5q60 66 60 283v16q-2 132 -39 208t-126 76q-107 0 -151.5 -90t-44.5 -258z" />
<glyph unicode="&#xf4;" d="M72 464q0 568 433 568q144 0 233.5 -49.5t143.5 -151.5q59 -114 59 -288q0 -74 -9 -140t-28 -129t-53 -113t-80.5 -88t-113 -58.5t-148.5 -20.5h-2q-223 0 -329 124.5t-106 345.5zM127 1195l366 297l378 -291l-138 -156l-240 201l-222 -189zM324 482q0 -128 48 -206.5 t136 -78.5q40 1 64.5 11.5t52.5 38.5q60 66 60 283v16q-2 132 -39 208t-126 76q-107 0 -151.5 -90t-44.5 -258z" />
<glyph unicode="&#xf5;" d="M72 464q0 568 433 568q144 0 233.5 -49.5t143.5 -151.5q59 -114 59 -288q0 -74 -9 -140t-28 -129t-53 -113t-80.5 -88t-113 -58.5t-148.5 -20.5h-2q-223 0 -329 124.5t-106 345.5zM101 1213q14 39 33 71.5t48 63.5t71.5 49t92.5 18q60 0 107.5 -13.5t75.5 -33t50.5 -39 t45 -33t46.5 -13.5q77 0 86 100l177 -54q-9 -41 -24.5 -76.5t-42.5 -71t-71.5 -56t-102.5 -20.5q-55 0 -99 13.5t-71 32.5t-50 38t-48 32.5t-52 13.5q-32 0 -56.5 -27t-31.5 -73zM324 482q0 -128 48 -206.5t136 -78.5q40 1 64.5 11.5t52.5 38.5q60 66 60 283v16 q-2 132 -39 208t-126 76q-107 0 -151.5 -90t-44.5 -258z" />
<glyph unicode="&#xf6;" d="M72 464q0 568 433 568q144 0 233.5 -49.5t143.5 -151.5q59 -114 59 -288q0 -74 -9 -140t-28 -129t-53 -113t-80.5 -88t-113 -58.5t-148.5 -20.5h-2q-223 0 -329 124.5t-106 345.5zM168 1187v240h279v-240h-279zM324 482q0 -128 48 -206.5t136 -78.5q40 1 64.5 11.5 t52.5 38.5q60 66 60 283v16q-2 132 -39 208t-126 76q-107 0 -151.5 -90t-44.5 -258zM588 1187v240l282 -3v-240z" />
<glyph unicode="&#xf7;" d="M66 654q68 3 145 3q54 0 146.5 -1.5t122.5 -1.5h119q127 0 341 -2h18v-245h-18q-135 3 -462 3q-14 0 -95.5 1.5t-138.5 1.5q-99 0 -172 -4v122zM356 2v282h315v-282h-315zM356 758v280h315v-280h-315z" />
<glyph unicode="&#xf8;" d="M0 133l104 115q-32 92 -32 216q0 568 433 568q157 0 254 -62l89 97l150 -140l-107 -115q50 -113 50 -269q0 -74 -9 -140t-28 -129t-53 -113t-80.5 -88t-113 -58.5t-148.5 -20.5h-2q-180 0 -288 86l-73 -80zM324 490l283 312q-36 28 -87 28q-106 0 -150.5 -88t-45.5 -252z M383 259q48 -62 125 -62q40 1 64.5 11.5t52.5 38.5q60 66 60 283v16q0 27 -1 40z" />
<glyph unicode="&#xf9;" d="M58 992l254 28q6 -27 10 -71.5t5.5 -121t1.5 -140t0.5 -187t0.5 -202.5q9 -53 32 -72.5t84 -19.5q112 5 166.5 59.5t54.5 152.5v595h251v-707q1 -37 39 -80t79 -60l-143 -183q-92 42 -127 125q-54 -55 -137.5 -79.5t-202.5 -26.5h-9q-48 0 -93.5 6.5t-91 23t-78.5 41.5 t-54 65t-21 91q0 39 0.5 132t0.5 143q0 422 -22 488zM117 1321l134 172q89 -83 208 -158t224 -110l-90 -174q-119 39 -258.5 115.5t-217.5 154.5z" />
<glyph unicode="&#xfa;" d="M58 992l254 28q6 -27 10 -71.5t5.5 -121t1.5 -140t0.5 -187t0.5 -202.5q9 -53 32 -72.5t84 -19.5q112 5 166.5 59.5t54.5 152.5v595h251v-707q1 -37 39 -80t79 -60l-143 -183q-92 42 -127 125q-54 -55 -137.5 -79.5t-202.5 -26.5h-9q-48 0 -93.5 6.5t-91 23t-78.5 41.5 t-54 65t-21 91q0 39 0.5 132t0.5 143q0 422 -22 488zM263 1227q105 35 224 110t208 158l134 -172q-78 -78 -217.5 -154.5t-258.5 -115.5z" />
<glyph unicode="&#xfb;" d="M58 992l254 28q6 -27 10 -71.5t5.5 -121t1.5 -140t0.5 -187t0.5 -202.5q9 -53 32 -72.5t84 -19.5q112 5 166.5 59.5t54.5 152.5v595h251v-707q1 -37 39 -80t79 -60l-143 -183q-92 42 -127 125q-54 -55 -137.5 -79.5t-202.5 -26.5h-9q-48 0 -93.5 6.5t-91 23t-78.5 41.5 t-54 65t-21 91q0 39 0.5 132t0.5 143q0 422 -22 488zM131 1204l366 297l378 -291l-138 -156l-240 201l-222 -189z" />
<glyph unicode="&#xfc;" d="M58 992l254 28q6 -27 10 -71.5t5.5 -121t1.5 -140t0.5 -187t0.5 -202.5q9 -53 32 -72.5t84 -19.5q112 5 166.5 59.5t54.5 152.5v595h251v-707q1 -37 39 -80t79 -60l-143 -183q-92 42 -127 125q-54 -55 -137.5 -79.5t-202.5 -26.5h-9q-48 0 -93.5 6.5t-91 23t-78.5 41.5 t-54 65t-21 91q0 39 0.5 132t0.5 143q0 422 -22 488zM117 1187v240h279v-240h-279zM537 1187v240l282 -3v-240z" />
<glyph unicode="&#xfd;" d="M42 0h236q0 -174 74 -174q60 0 109.5 79t67.5 165q-160 366 -258 523.5t-170 157.5q-34 0 -44 -1l-1 261q42 2 76 2q56 0 111 -32t103 -86.5t100.5 -143t99 -183.5t103.5 -227q26 76 40.5 171t18 154.5t5.5 182.5t3 164h256q0 -122 -2 -174q-11 -240 -98.5 -511 t-225.5 -502q-73 -123 -144.5 -162.5t-189.5 -39.5q-76 0 -131 33.5t-83.5 91t-41 118.5t-14.5 133zM268 1227q105 35 224 110t208 158l134 -172q-78 -78 -217.5 -154.5t-258.5 -115.5z" />
<glyph unicode="&#xfe;" d="M82 1285l228 26q20 -53 20 -100v-290q81 90 252 90q365 0 365 -460q0 -89 -7 -158.5t-25 -135t-50 -112.5t-79 -82.5t-116 -53t-158 -17.5q-112 0 -176 68q1 -14 6.5 -55t7.5 -66v-91q0 -110 14 -246l-248 -7q-14 114 -14 259l2 885v315q0 88 -22 231zM348 656l2 -345 q77 -118 167 -118q60 0 96.5 28t57 103.5t20.5 206.5q0 146 -29.5 213t-95.5 67q-88 0 -133 -38t-85 -117z" />
<glyph unicode="&#xff;" d="M42 0h236q0 -174 74 -174q60 0 109.5 79t67.5 165q-160 366 -258 523.5t-170 157.5q-34 0 -44 -1l-1 261q42 2 76 2q56 0 111 -32t103 -86.5t100.5 -143t99 -183.5t103.5 -227q26 76 40.5 171t18 154.5t5.5 182.5t3 164h256q0 -122 -2 -174q-11 -240 -98.5 -511 t-225.5 -502q-73 -123 -144.5 -162.5t-189.5 -39.5q-76 0 -131 33.5t-83.5 91t-41 118.5t-14.5 133zM152 1181v240h279v-240h-279zM572 1181v240l282 -3v-240z" />
<glyph unicode="&#x152;" d="M11 597q0 136 12.5 244t43.5 201.5t80 155.5t123.5 97t173.5 35q44 0 80 -7q59 3 185 3q43 0 127.5 -0.5t125.5 -0.5v-198q-49 0 -85.5 0.5t-69.5 0.5q-74 0 -121 -1v-278h209v-205h-209v-437l125 -1q65 2 132 26l66 -200q-121 -33 -342 -33q-23 0 -73 0.5t-79 0.5 q-19 -8 -127 -8q-89 3 -156.5 38.5t-108.5 91t-67 134.5t-35.5 161t-9.5 180zM268 578q0 -173 39.5 -277t110.5 -104h8t2 0.5t2 1t6 0.5l1 928q-169 0 -169 -549z" />
<glyph unicode="&#x153;" d="M24 459q0 121 11 176q6 38 14.5 72t23.5 81t37.5 84.5t52 72t72 53.5t92.5 19q54 0 88.5 -15.5t70.5 -47.5q12 -10 23 -23q54 87 182 87q96 0 166 -66t103.5 -165t37.5 -217v-116q-172 -7 -318 -7h-32l-2 -173q14 -37 26.5 -51.5t39.5 -14.5q51 0 70 20.5t24 61.5 l190 -72q-3 -9 -10 -23.5t-33 -52t-56 -66.5t-81 -52.5t-108 -23.5q-129 0 -221 95q-71 -95 -151 -95q-36 0 -61.5 4t-66 25.5t-77.5 61.5q-107 115 -107 368zM252 456q0 -84 21 -166t57 -82t58 40.5t22 89.5l2 360q0 13 -2 27.5t-8.5 36.5t-23.5 36t-42 14 q-15 0 -33.5 -38.5t-34 -119.5t-16.5 -180v-18zM648 654q100 0 144 6q-5 83 -25 115.5t-76 32.5q-15 0 -23.5 -8t-13 -27.5t-5.5 -40t-1 -57.5v-21z" />
<glyph unicode="&#x178;" d="M14 1222l219 141q174 -344 278 -511q23 34 50.5 83.5t50 94.5t49 105t42 96t37 86.5t24.5 58.5l228 -136q-39 -80 -178.5 -324t-188.5 -314q0 -23 -1 -73.5t-1 -78.5q-5 -225 -5 -322v-128h-250v138q0 42 3.5 226.5t3.5 248.5q-60 86 -191.5 307.5t-169.5 301.5z M136 1435v240h279v-240h-279zM556 1435v240l282 -3v-240z" />
<glyph unicode="&#x2000;" horiz-adv-x="899" />
<glyph unicode="&#x2001;" horiz-adv-x="1798" />
<glyph unicode="&#x2002;" horiz-adv-x="899" />
<glyph unicode="&#x2003;" horiz-adv-x="1798" />
<glyph unicode="&#x2004;" horiz-adv-x="599" />
<glyph unicode="&#x2005;" horiz-adv-x="449" />
<glyph unicode="&#x2006;" horiz-adv-x="299" />
<glyph unicode="&#x2007;" horiz-adv-x="299" />
<glyph unicode="&#x2008;" horiz-adv-x="224" />
<glyph unicode="&#x2009;" horiz-adv-x="359" />
<glyph unicode="&#x200a;" horiz-adv-x="99" />
<glyph unicode="&#x2010;" d="M82 654q68 3 145 3q54 0 146.5 -1.5t122.5 -1.5h119q127 0 341 -2h18v-245h-18q-135 3 -462 3q-14 0 -95.5 1.5t-138.5 1.5q-99 0 -172 -4v122z" />
<glyph unicode="&#x2011;" d="M82 654q68 3 145 3q54 0 146.5 -1.5t122.5 -1.5h119q127 0 341 -2h18v-245h-18q-135 3 -462 3q-14 0 -95.5 1.5t-138.5 1.5q-99 0 -172 -4v122z" />
<glyph unicode="&#x2012;" d="M82 654q68 3 145 3q54 0 146.5 -1.5t122.5 -1.5h119q127 0 341 -2h18v-245h-18q-135 3 -462 3q-14 0 -95.5 1.5t-138.5 1.5q-99 0 -172 -4v122z" />
<glyph unicode="&#x2013;" d="M82 654q68 3 145 3q54 0 146.5 -1.5t122.5 -1.5h119q127 0 341 -2h18v-245h-18q-135 3 -462 3q-14 0 -95.5 1.5t-138.5 1.5q-99 0 -172 -4v122z" />
<glyph unicode="&#x2014;" d="M-5 654q78 3 167 3q62 0 169 -1.5t141 -1.5h137q147 0 394 -2h21v-245h-21q-156 3 -533 3q-16 0 -110 1.5t-160 1.5q-114 0 -198 -4v122z" />
<glyph unicode="&#x2018;" d="M283 845q1 126 34 243t88.5 205t115.5 153t125 111l143 -164q-78 -101 -127.5 -246t-53.5 -321z" />
<glyph unicode="&#x2019;" d="M341 915q84 96 143 237.5t75 316.5l323 -40q-9 -126 -50 -240.5t-102 -199t-125 -145.5t-132 -102z" />
<glyph unicode="&#x201a;" d="M208 -224q84 96 143 237.5t75 316.5l322 -40q-9 -126 -50 -240.5t-101.5 -199t-124.5 -145.5t-132 -102z" />
<glyph unicode="&#x201c;" d="M73 957q7 60 24 117q55 193 124 320t160 204l199 -157q-77 -65 -187 -449q-10 -35 -20 -99zM518 941q8 66 23 117q55 193 124.5 319.5t160.5 204.5l198 -157q-76 -64 -186 -449q-10 -35 -20 -99z" />
<glyph unicode="&#x201d;" d="M79 946q77 65 187 449q9 29 19 98l300 -64q-8 -66 -23 -117q-55 -193 -124.5 -319.5t-160.5 -204.5zM524 930q76 64 186 449q11 36 20 98l300 -64q-8 -66 -23 -117q-55 -193 -124.5 -319.5t-160.5 -204.5z" />
<glyph unicode="&#x201e;" d="M28 -202q77 65 187 449q10 35 20 99l300 -64q-8 -66 -23 -117q-55 -193 -124.5 -319.5t-160.5 -204.5zM473 -217q77 65 187 449q9 29 19 98l300 -64q-8 -66 -23 -117q-55 -193 -124.5 -319.5t-160.5 -204.5z" />
<glyph unicode="&#x2022;" d="M144 504q0 152 107 259t259 107t259 -107t107 -259t-107 -259t-259 -107t-259 107t-107 259z" />
<glyph unicode="&#x2026;" d="M-35 0v313h280v-313h-280zM365 0v313h280v-313h-280zM765 0v313h280v-313h-280z" />
<glyph unicode="&#x202f;" horiz-adv-x="359" />
<glyph unicode="&#x2039;" d="M227 461v115q274 247 304 431l228 -71q-14 -67 -44 -127.5t-77 -115.5t-83.5 -90.5t-96.5 -87.5q113 -104 182.5 -197.5t100.5 -211.5l-218 -87q-59 230 -296 442z" />
<glyph unicode="&#x203a;" d="M294 94q14 67 44 127.5t77 115.5t83.5 90.5t96.5 87.5q-113 104 -182.5 197.5t-100.5 211.5l218 87q59 -230 296 -442v-115q-274 -247 -304 -431z" />
<glyph unicode="&#x205f;" horiz-adv-x="449" />
<glyph unicode="&#x20ac;" d="M1 681q11 28 34.5 97.5t33.5 91.5q22 -2 111 -4q22 131 72 242q29 64 74 112t93.5 73.5t93.5 37.5t85 12q194 0 314 -134l-94 -259q-92 175 -217 175q-143 0 -156 -261h109h77q104 4 129 4l34 -2l-62 -184h-12q-6 0 -62.5 -3t-101.5 -3h-118q0 -12 -1 -34t-1 -33v-25 q30 -1 72 -1q38 0 58.5 0.5t46.5 1t60 0.5h26l-64 -193l-193 2q6 -110 40.5 -161t83.5 -51h18q134 0 194 133l201 -159q-87 -113 -169.5 -150t-228.5 -37q-73 0 -152.5 32t-136.5 106q-50 64 -77 130t-41 157q-54 2 -75 2q-24 0 -90 -2q27 120 55 189q23 0 56.5 0.5 t39.5 0.5v48q0 30 1 44q-118 1 -160 5z" />
<glyph unicode="&#x25fc;" horiz-adv-x="1045" d="M0 0v1045h1045v-1045h-1045z" />
</font>
</defs>
</svg>
