<svg xmlns="http://www.w3.org/2000/svg" width="56mm" height="80mm" viewBox="0 0 198.4252 283.46457"><path fill="#ffffb3" d="M0-.168h198.425v283.465H0z"/><path fill="#fff" d="M27.453 83.215h143.52v153.512H27.452z"/><g style="line-height:125%" font-size="26.707" font-family="SG12" letter-spacing="0" word-spacing="0"><path style="-inkscape-font-specification:SG12" d="M28.09 48.35V28.515h3.31v-3.292h13.218v3.292h3.308v6.618H41.31v-3.31h-6.602v13.22h6.6V41.75h6.618v6.6h-3.308v3.31h-13.22v-3.31H28.09zM51.268 51.66V28.513h3.308v-3.292h13.22v3.292h3.308V51.66h-6.617V45.04h-6.602v6.617h-6.617zm6.617-13.22h6.602v-6.617h-6.602v6.618zM74.445 51.66V25.22H97.59v3.292h3.293V51.66h-6.6V31.822h-3.31V51.66h-6.618V31.822h-3.292V51.66h-6.618zM104.208 51.66V25.22h16.528v3.292h3.31V41.75h-3.31v3.292h-9.91v6.617h-6.618zm6.618-13.22h6.6v-6.617h-6.6v6.618zM127.32 48.35v-9.91h6.62v6.602h6.6v-19.82h6.618v23.13h-3.31v3.307H130.63v-3.31h-3.31zM150.5 51.66V45.04h13.218V41.75h-9.91v-3.31h-3.31v-9.926h3.31v-3.292h16.527v6.6h-13.22v3.31h9.91v3.31h3.31v9.91h-3.31v3.307H150.5z"/></g><g style="line-height:125%" font-size="10.603" font-family="Fantasque Sans Mono" letter-spacing="0" word-spacing="0"><path d="M31.894 59.754c0 1.465-.606 1.962-1.45 1.962-.47 0-.766-.326-1.035-.59V58.87c.367-.592.615-.83 1.325-.83.88 0 1.16.658 1.16 1.714zM28.6 58.656l-.004 4.582c0 .47.026.968.073 1.346l.822-.046c-.036-.352-.083-.787-.083-1.274v-1.072c.248.16.444.327.962.327 1.672 0 2.335-1.125 2.335-2.864 0-1.388-.554-2.418-1.978-2.418-.58 0-.995.18-1.32.47-.006-.217-.032-.33-.058-.496l-.85.103c.053.342.1.787.1 1.217v.124zM35.348 57.952c-.192-.435-.503-.63-.818-.885l-.54.73c.322.285.53.435.53.73v3.95l.807.005v-3.137c.518-1.155 1.175-1.34 1.698-1.34.476 0 .414.315.435.734h.808v-.032c0-.942-.233-1.532-1.098-1.532-.803 0-1.34.186-1.822.776zM40.142 59.48c.005-.798.538-1.497 1.418-1.497.704 0 1.233.528 1.315 1.362-.735.083-2.065.13-2.733.135zm1.413-2.284c-1.465 0-2.23 1.134-2.23 2.615 0 1.62.755 2.724 2.297 2.724 1.233 0 1.823-.683 2.035-.916l-.637-.565c-.202.28-.636.69-1.377.69-1.056 0-1.5-.68-1.5-1.47.92-.012 2.1-.074 3.55-.172.006-.04.006-.118.006-.222 0-.714-.193-2.682-2.145-2.682zM48.37 57.17c-.478 0-.8.363-1.02.772 0-.363-.297-.772-.8-.772-.377 0-.827.358-1.065.772-.01-.238-.083-.715-.16-.88l-.777.207c.088.252.155.51.155.993l.016 4.22h.73v-3.578c.32-.704.677-.942.925-.942.238 0 .25.2.25.346v4.172h.73V58.9c.32-.7.59-.937.838-.937.31 0 .33.336.33.517v3.013c0 .73.52 1.026.886 1.098l.315-.687c-.212-.083-.476-.275-.476-.54v-2.707c0-.492-.13-1.486-.88-1.486zM51.516 55.203v1.165h1.217v-1.165h-1.217zm.54 2.035c-.54 0-1.11.083-1.69.217l.15.735c.493-.114 1.083-.145 1.337-.145v3.37c0 .306.04.72.48.964.23.123.623.196 1.063.196.642 0 1.382-.156 1.827-.523l-.352-.59c-.356.27-.998.377-1.48.377-.476 0-.704-.02-.73-.445 0 0-.005-2.744-.005-4.157h-.6zM60.075 62.534l.424-.606c-.208-.165-.462-.414-.472-.683V57.2h-.818v3.5c-.197.457-.554.612-.797.757-.264.16-.477.202-.824.218-.213 0-.477-.042-.55-.093-.113-.083-.227-.218-.258-.394-.01-1.895.015-3.515-.1-3.992l-.827.14c.14.43.104 2.65.12 4.038 0 .425.346.72.58.88.31.213.75.218 1.07.218h.047c.777-.016 1.28-.362 1.714-.808.114.446.393.658.69.87zM64.832 57.17c-.476 0-.797.363-1.02.772 0-.363-.295-.772-.797-.772-.378 0-.828.358-1.066.772-.012-.238-.084-.715-.162-.88l-.776.207c.088.252.155.51.155.993l.015 4.22h.73v-3.578c.32-.704.68-.942.927-.942.237 0 .248.2.248.346v4.172h.73V58.9c.32-.7.59-.937.838-.937.31 0 .332.336.332.517v3.013c0 .73.518 1.026.885 1.098l.316-.687c-.213-.083-.477-.275-.477-.54v-2.707c0-.492-.13-1.486-.88-1.486zM73.06 60.872c0-.61.615-.994 1.32-1 .538 0 .92.15 1.216.332v.492c-.134.212-.678 1.03-1.765 1.03-.48 0-.77-.31-.77-.854zm3.35-.036v-1.71c0-1.163-.81-1.966-2.062-1.966-.926 0-1.62.31-2.117 1.253l.674.425c.414-.74.74-.896 1.455-.896.88 0 1.236.47 1.236 1.45-.28-.17-.606-.265-1.258-.265-.61 0-1.134.125-1.626.627-.305.316-.46.777-.46 1.17 0 .86.693 1.59 1.58 1.59 1.02 0 1.547-.45 1.95-.84.094.524.404.653.674.86l.43-.616c-.15-.12-.342-.238-.41-.33-.067-.09-.067-.57-.067-.752zM79.484 55.09c-.538 0-1.14.01-1.72.144l.146.74c.316-.072.69-.088.984-.088.155 0 .295.006.383.006l.016 5.513c0 .306.04.72.48.963.23.125.623.197 1.063.197.642 0 1.382-.155 1.827-.523l-.352-.59c-.356.27-.998.378-1.48.378-.476 0-.704-.02-.73-.445 0 0-.015-4.882-.015-6.296h-.6zM84.015 59.754c0-1.237.528-1.75 1.672-1.75.828 0 .978.492 1.035.704l.798-.31c-.114-.27-.275-.58-.59-.824-.31-.238-.694-.362-1.186-.362-1.63 0-2.553.642-2.553 2.542 0 1.03.208 1.828.88 2.35.498.373 1.135.415 1.674.415 1.444 0 1.926-.913 2.097-1.13l-.652-.47c-.27.45-.657.786-1.465.786h-.067c-.57 0-1.64-.036-1.64-1.952zM91.698 61.37c-.26.217-.487.3-.88.305-.865 0-1.316-.61-1.316-1.62 0-1.264.32-2.118 1.398-2.118.917 0 1.248.756 1.258 1.708v.093c0 .767-.124 1.315-.46 1.63zm-.89 1.107h.01c1.667 0 2.164-1.33 2.164-2.806 0-.496-.094-1.08-.306-1.49-.362-.683-.932-1.04-1.952-1.04-1.51 0-2.04 1.428-2.04 2.94 0 1.45.715 2.392 2.123 2.397zM97.626 59.5v1.905c0 .658.383.932.797 1.165l.456-.605c-.312-.202-.447-.352-.447-.637 0-.58.006-.98.006-1.828v-.34c0-.57-.027-.975-.4-1.415-.41-.497-.98-.544-1.605-.544-.528 0-.9.203-1.237.416v-2.392h-.824s.006 3.593.006 6.202c0 .4-.016.642-.057 1.015l.818.042c.027-.238.052-.616.052-1.025v-2.76c.16-.32.684-.703 1.207-.703 1.04 0 1.226.33 1.226 1.506zM102.674 61.37c-.26.217-.487.3-.88.305-.865 0-1.316-.61-1.316-1.62 0-1.264.32-2.118 1.398-2.118.917 0 1.248.756 1.258 1.708v.093c0 .767-.124 1.315-.46 1.63zm-.89 1.107h.01c1.667 0 2.164-1.33 2.164-2.806 0-.496-.094-1.08-.306-1.49-.362-.683-.932-1.04-1.952-1.04-1.51 0-2.04 1.428-2.04 2.94 0 1.45.715 2.392 2.123 2.397zM106.924 55.09c-.538 0-1.14.01-1.72.144l.146.74c.316-.072.69-.088.984-.088.155 0 .295.006.383.006l.016 5.513c0 .306.04.72.48.963.23.125.622.197 1.062.197.642 0 1.383-.155 1.828-.523l-.352-.59c-.356.27-.998.378-1.48.378-.476 0-.704-.02-.73-.445 0 0-.015-4.882-.015-6.296h-.6zM111.884 55.203v1.165h1.217v-1.165h-1.216zm.54 2.035c-.54 0-1.11.083-1.69.217l.15.735c.493-.114 1.083-.145 1.337-.145v3.37c0 .306.042.72.482.964.228.123.62.196 1.062.196.64 0 1.382-.156 1.827-.523l-.35-.59c-.358.27-1 .377-1.482.377-.476 0-.704-.02-.73-.445 0 0-.005-2.744-.005-4.157h-.6zM116.942 59.754c0-1.237.528-1.75 1.673-1.75.828 0 .978.492 1.035.704l.797-.31c-.113-.27-.274-.58-.59-.824-.31-.238-.694-.362-1.185-.362-1.63 0-2.553.642-2.553 2.542 0 1.03.206 1.828.88 2.35.496.373 1.133.415 1.672.415 1.444 0 1.926-.913 2.096-1.13l-.652-.47c-.27.45-.657.786-1.465.786h-.066c-.57 0-1.642-.036-1.642-1.952zM130.605 60.008c0 1.056-.284 1.713-1.165 1.713-.71 0-.952-.237-1.32-.827V58.63c.27-.264.59-.626 1.062-.626.844 0 1.423.538 1.423 2.004zm.813.098c0-1.74-.637-2.905-2.31-2.905-.517 0-.74.183-.988.37v-1.052c0-.47-.026-.968-.072-1.346l-.823.047c.036.35.077.786.077 1.272 0 1.45.005 3.32.005 4.608v.124c0 .43-.046.88-.098 1.222l.853.1c.026-.167.052-.28.057-.5.326.29.74.473 1.32.473 1.424 0 1.978-1.026 1.978-2.414zM133.437 59.48c.005-.798.54-1.497 1.42-1.497.703 0 1.23.528 1.314 1.362-.734.083-2.065.13-2.733.135zm1.414-2.284c-1.464 0-2.23 1.134-2.23 2.615 0 1.62.755 2.724 2.298 2.724 1.232 0 1.823-.683 2.035-.916l-.637-.565c-.202.28-.637.69-1.377.69-1.057 0-1.503-.68-1.503-1.47.922-.012 2.102-.074 3.552-.172.004-.04.004-.118.004-.222 0-.714-.192-2.682-2.143-2.682zM138.496 57.057l-.668.497c.134.13.373.476.414.585.32.796 1.362 3.633 1.362 4.358.548 0 .983-.016 1.278-.383.75-.932 1.528-2.615 1.538-3.883 0-.3-.01-.922-.026-1.005l-.787.02c.01.094.01.29.01.503 0 .17 0 .358-.004.502-.03 1.072-.673 2.574-1.315 3.314-.057-.538-.958-2.827-1.19-3.48-.136-.387-.25-.64-.612-1.03zM144.413 59.48c.005-.798.54-1.497 1.42-1.497.703 0 1.23.528 1.314 1.362-.735.083-2.066.13-2.734.135zm1.414-2.284c-1.465 0-2.232 1.134-2.232 2.615 0 1.62.756 2.724 2.3 2.724 1.23 0 1.82-.683 2.034-.916l-.638-.565c-.202.28-.637.69-1.377.69-1.056 0-1.502-.68-1.502-1.47.922-.012 2.102-.074 3.552-.172.005-.04.005-.118.005-.222 0-.714-.192-2.682-2.143-2.682zM150.595 57.952c-.19-.435-.502-.63-.818-.885l-.538.73c.32.285.527.435.527.73v3.95l.807.005v-3.137c.518-1.155 1.176-1.34 1.7-1.34.475 0 .413.315.433.734h.808v-.032c0-.942-.233-1.532-1.097-1.532-.803 0-1.34.186-1.823.776zM155.38 60.872c0-.61.615-.994 1.32-1 .538 0 .92.15 1.216.332v.492c-.135.212-.678 1.03-1.766 1.03-.48 0-.77-.31-.77-.854zm3.35-.036v-1.71c0-1.163-.81-1.966-2.062-1.966-.927 0-1.62.31-2.117 1.253l.674.425c.414-.74.74-.896 1.454-.896.88 0 1.238.47 1.238 1.45-.28-.17-.606-.265-1.258-.265-.61 0-1.134.125-1.626.627-.305.316-.46.777-.46 1.17 0 .86.693 1.59 1.578 1.59 1.02 0 1.548-.45 1.952-.84.093.524.404.653.673.86l.43-.616c-.15-.12-.342-.238-.41-.33-.066-.09-.066-.57-.066-.752zM160.882 62.876c0-.326.145-.637.435-.75.756-.01 1.05-.01 1.098-.01.626 0 1.398.056 1.398.496 0 .86-.72 1.072-1.315 1.072h-.544c-.683 0-1.072-.156-1.072-.808zm1.238-3.277c-.673 0-1.155-.188-1.155-.788 0-.477.534-.855 1.238-.855.657 0 1.097.202 1.097.87 0 .502-.512.772-1.18.772zm-1.973-.737c0 .373.14.694.316.89-.217.25-.383.56-.383 1.03 0 .405.145.773.44.99-.285.25-.45.616-.45 1.134 0 1.082.77 1.584 1.863 1.584h.534c1.263 0 2.164-.542 2.164-1.883 0-.984-.895-1.29-1.868-1.29-.14 0-.803.01-.937.01-.653 0-.932-.217-.932-.61 0-.212.124-.394.222-.507.337.13.663.165 1.03.165 1.166 0 1.963-.59 1.963-1.57 0-.247-.02-.465-.155-.708.088-.088.29-.114.47-.114.053 0 .166.016.23.026v-.85c-.57 0-.845.052-1.135.32-.337-.206-.72-.31-1.315-.31-1.274 0-2.056.606-2.056 1.693zM166.365 59.48c.005-.798.54-1.497 1.42-1.497.703 0 1.23.528 1.314 1.362-.736.083-2.067.13-2.735.135zm1.414-2.284c-1.467 0-2.233 1.134-2.233 2.615 0 1.62.756 2.724 2.3 2.724 1.23 0 1.82-.683 2.034-.916l-.636-.565c-.202.28-.637.69-1.377.69-1.056 0-1.502-.68-1.502-1.47.922-.012 2.102-.074 3.552-.172.005-.04.005-.118.005-.222 0-.714-.192-2.682-2.144-2.682z" style="-inkscape-font-specification:'Fantasque Sans Mono'"/></g><g><g style="line-height:125%" font-size="10" font-family="Fantasque Sans Mono" letter-spacing="0" word-spacing="0"><path d="M94.885 262.322c-.18-.41-.473-.596-.77-.835l-.51.69c.304.267.5.41.5.687v3.726l.76.005v-2.96c.49-1.088 1.11-1.264 1.602-1.264.45 0 .39.3.41.694h.762v-.03c0-.888-.22-1.444-1.036-1.444-.757 0-1.264.175-1.72.732zM99.407 263.762c.005-.752.508-1.41 1.338-1.41.664 0 1.162.497 1.24 1.283-.693.08-1.948.123-2.578.127zm1.333-2.153c-1.382 0-2.105 1.068-2.105 2.465 0 1.528.713 2.568 2.168 2.568 1.162 0 1.72-.644 1.92-.864l-.6-.533c-.192.263-.602.65-1.3.65-.996 0-1.416-.64-1.416-1.387.87-.01 1.982-.07 3.35-.162.005-.04.005-.112.005-.21 0-.673-.18-2.53-2.022-2.53zM104.74 263.816c.512.27 1.513.46 1.89.728.267.2.418.346.418.654 0 .537-.58.796-1.18.796-.758 0-1.095-.352-1.095-1.006l-.766-.005c0 1.05.625 1.71 1.875 1.71.278 0 .57-.035.844-.1.523-.135 1.08-.58 1.08-1.37 0-1.387-1.25-1.485-2.574-2.037-.195-.088-.293-.2-.293-.434 0-.318.434-.46.95-.46.42 0 .978.206 1.237.508l.55-.542c-.4-.493-1.258-.688-1.854-.688-.855 0-1.646.356-1.65 1.2 0 .543.25.875.566 1.046zM112.332 264.02c0 1.383-.572 1.852-1.367 1.852-.445 0-.723-.308-.977-.557v-2.13c.347-.555.58-.78 1.25-.78.83 0 1.094.62 1.094 1.616zm-3.106-1.034l-.005 4.32c0 .446.026.914.07 1.27l.776-.043c-.034-.332-.078-.742-.078-1.2v-1.012c.234.152.42.31.908.31 1.577 0 2.202-1.06 2.202-2.702 0-1.308-.522-2.28-1.865-2.28-.547 0-.937.17-1.245.445-.005-.206-.03-.313-.054-.47l-.8.098c.048.324.092.744.092 1.15v.116zM116.975 265.545c-.244.205-.46.283-.83.288-.815 0-1.24-.576-1.24-1.53 0-1.19.303-1.996 1.318-1.996.865 0 1.177.713 1.187 1.612v.087c0 .722-.117 1.24-.435 1.538zm-.84 1.045h.01c1.573 0 2.04-1.255 2.04-2.647 0-.47-.086-1.02-.287-1.406-.34-.645-.88-.982-1.84-.982-1.426 0-1.924 1.348-1.924 2.774 0 1.366.674 2.255 2.002 2.26zM120.276 262.068c-.04-.24-.098-.434-.146-.552l-.782.18c.117.46.157.587.157 1.456v3.447l.77-.006v-3.71c.714-.342 1.183-.547 1.495-.547.322 0 .796.16.796.522v2.738c0 .63.45.88.88 1.09l.41-.548c-.274-.146-.518-.254-.518-.576v-2.856c0-.728-.874-1.104-1.46-1.104-.538 0-.987.142-1.602.464zM125.442 263.816c.513.27 1.514.46 1.89.728.268.2.42.346.42.654 0 .537-.58.796-1.182.796-.757 0-1.094-.352-1.094-1.006l-.766-.005c0 1.05.625 1.71 1.875 1.71.278 0 .57-.035.844-.1.522-.135 1.078-.58 1.078-1.37 0-1.387-1.25-1.485-2.573-2.037-.195-.088-.293-.2-.293-.434 0-.318.435-.46.952-.46.42 0 .977.206 1.236.508l.552-.542c-.4-.493-1.26-.688-1.856-.688-.854 0-1.645.356-1.65 1.2 0 .543.25.875.566 1.046zM130.838 259.73v1.098h1.147v-1.1h-1.147zm.507 1.918c-.507 0-1.045.078-1.59.205l.14.694c.464-.108 1.02-.137 1.26-.137v3.18c0 .287.04.677.454.907.214.117.585.185 1 .185.605 0 1.304-.146 1.724-.493l-.332-.557c-.337.253-.943.356-1.397.356-.45 0-.664-.02-.688-.42 0 0-.005-2.59-.005-3.922h-.567zM138.142 264.26c0 .997-.268 1.617-1.098 1.617-.67 0-.9-.225-1.246-.782v-2.133c.254-.25.557-.59 1-.59.797 0 1.344.507 1.344 1.888zm.767.093c0-1.64-.602-2.74-2.18-2.74-.487 0-.697.172-.932.348v-.99c0-.445-.024-.914-.068-1.27l-.776.044c.034.332.073.742.073 1.2 0 1.368.005 3.13.005 4.347v.118c0 .405-.044.83-.093 1.152l.805.093c.024-.156.05-.264.053-.47.308.275.7.446 1.246.446 1.342 0 1.865-.968 1.865-2.277zM141.687 259.622c-.508 0-1.074.01-1.62.137l.136.697c.298-.07.65-.083.928-.083.147 0 .28.005.362.005l.014 5.2c0 .287.04.678.455.907.215.117.586.186 1.002.186.605 0 1.303-.147 1.723-.493l-.332-.557c-.337.254-.942.356-1.396.356-.45 0-.664-.02-.69-.42 0 0-.013-4.605-.013-5.938h-.567zM146.477 267.683c-.39 0-.605-.224-.605-1.09h-.762c0 1.32.532 1.837 1.387 1.837.727 0 1.108-.483 1.367-1.142.644-1.52 1.138-3.13 1.455-4.854.043-.25.067-.527.067-.82h-.77c-.04 1.108-.362 2.52-.724 3.58-.55-1.588-1.343-3.424-2.158-3.546-.137-.02-.38-.04-.542-.04v.748c.176 0 .376.005.537.152.674.605 1.255 2.153 1.714 3.754-.185.518-.45 1.42-.967 1.42z" style="-inkscape-font-specification:'Fantasque Sans Mono'"/></g><path d="M87.088 256.63q0 .166-.133.363-.095 0-.237-.087.008-.047.008-.094 0-.473-.535-.85.017-.08.19-.253.212.07.456.385.252.315.252.535zm1.764-.62q0 .833-.276 1.187-.023.024-.346.284-.244.197-.236.33l.512 8.88h-.426q-.165-3.722-.22-4.66-.15-2.628-.378-4.644.197 0 .465-.244.25-.22.33-.425.15-.4.15-1.653 0-1.26-.362-1.464-.087.19-.087.716 0 .134.008.394.007.252.007.37.197.18.26.354l-.118.102q-.37-.425-1.346-.425-.245 0-.63.08l-.095-.11q.118-.126.26-.213l-.048-1.834q-.126.023-.22.29-.087.222-.087.387 0 .102.008.315.016.212.016.315 0 1.613-.56 1.842-.18-.292-.36-.59-.214-.316-.584-.316-.142 0-.276.07.268.387.827 1.143.52.652 1.182.818v1.865q0 .087-.016.252-.015.165-.015.252 0 .032.008.08 1.07.825 1.07 2.817 0 1.834-1 2.96-1.038 1.173-2.85 1.173-1.762 0-2.825-1.197-1.015-1.15-1.015-2.936 0-1.26.314-1.874.04-.078.756-1.023l-.03-2.37q.542-.11.983-.62.347-.49.694-.97.07-.094.33-.33-.063-.11-.228-.11-.37 0-.598.29l-.34.607h-.156q-.11-.126-.252-.465-.134-.347-.134-.504 0-.11.008-.323.007-.22.007-.33 0-1.44-.377-1.512-.04.12-.04.473v1.228q0 .11.26.348-.046.11-.15.11-.093 0-.29-.04-.19-.047-.283-.047-.945 0-1.355.426-.11-.047-.11-.15 0-.094.26-.306v-1.362l-.07-.11q-.33.173-.33 1.094 0 .19.006.574v.567q0 1.032.466 1.362.11.08.378.18.04.096.03.19l-.52 7.896v1.088q0 .055-.046.133h-.425l.512-8.84q.008-.133.008-.086 0-.086-.166-.165-.165-.088-.346-.308-.322-.402-.322-1.71 0-1.69.323-2.053.166-.096.45-.34.03-.118.19-.338.132-.04.384-.158.142-.11.276-.22.102-.07.378-.07.11 0 .228.078l.228.134q.15.03.425.15.3.204.393 1.33l.11 1.535.205-.346q.236-.393.74-.393.622 0 .622.497 0 .118-.19.322-.14.15-.283.3-.11.235-.362.676-.165.236-.51.503l-.568.44v1.82q.047.022.08.022.124 0 .32-.086.3-.134.324-.142.568-.19 1.64-.19 1.337 0 2.313.434.07-.19.07-.37v-1.488q-.574-.393-.834-.7-.12-.142-.607-.89-.015-.024-.283-.3-.173-.188-.173-.353 0-.496.582-.496t.944.772q.11-.165.11-.362v-1.582q0-.142.118-.473.118-.33.205-.41.03-.03.417-.188.04-.016.276-.165.126-.08.338-.08.165 0 .315.103.126.095.26.19.14.04.378.157.056.11.197.338.142.087.394.292.41.433.41 2.527zm-8.203-.112q-.174.213-.347.418-.19.236-.19.48 0 .07.016.15-.08.023-.237.047-.15-.276-.15-.363 0-.212.268-.527.237-.268.458-.394l.18.188zm6.982-.968v-1.787l-.142-.047q-.22.51-.22 1.472v.315q.118.023.362.047zm-.544-2.173q-.086 0-.14-.055-.237.26-.237.7v1.45h.253v-1.575q0-.102.055-.26.063-.197.07-.26zm-6.896 1.205q0-1.236-.26-1.26-.14.095-.14.15 0 .078.046.197.063.148.07.195.032.158.032.843v.55q0 .04.024.213h.205q0-.1.015-.44.007-.283.007-.448zm-.614.92v-.692q0-.126-.15-1-.062-.086-.14-.102-.095.094-.095.307 0 1.787.007 1.535.126-.024.378-.047zm7.26 7.582q0-3.102-3.38-3.102-3.407 0-3.407 3.133 0 1.693.827 2.677.89 1.055 2.543 1.055 1.582 0 2.527-1.11.89-1.047.89-2.653zm-1.48-.55q-.16-.497-.647-.497-.416 0-.613.472.008-.276.173-.48.173-.206.44-.206.647 0 .647.71zm-.16.55q0 .543-.55.543-.56 0-.56-.56 0-.51.53-.51.58 0 .58.527zm-2.416-.528q-.196-.52-.645-.52-.496 0-.654.52.087-.732.654-.732.598 0 .645.732zm.016.512q0 .56-.56.56-.55 0-.55-.56 0-.512.55-.512.56 0 .56.512zm2.055 1.74q0 .307-.315.716-.307.417-.598.496-.205.055-.567.055-.205 0-.386-.055-.386-.118-.677-.606-.283-.457-.283-.882h2.826v.276zm.212-1.685q-.165 0-.228-.055-.087.173-.19.18v.245h.15q.182-.118.268-.37zm-.55-.142v-.164h-.166l-.048.165h.212zm-1.89.285v-.142q-.134 0-.197-.055-.087.18-.22.18v.245h.14q.277-.126.277-.228zm-.52-.284v-.164H81.9v.165h.205z" style="-inkscape-font-specification:'Fantasque Sans Mono'" font-family="Fantasque Sans Mono" font-size="18.879" letter-spacing="0" word-spacing="0"/><g style="line-height:125%" font-size="10" font-family="Fantasque Sans Mono" letter-spacing="0" word-spacing="0"><path d="M49.81 263.848c.004-.752.507-1.41 1.337-1.41.664 0 1.162.497 1.24 1.283-.693.08-1.948.123-2.578.128zm1.332-2.153c-1.382 0-2.104 1.07-2.104 2.466 0 1.53.713 2.57 2.168 2.57 1.162 0 1.72-.646 1.92-.865l-.602-.532c-.19.263-.6.65-1.3.65-.995 0-1.415-.64-1.415-1.388.868-.01 1.982-.068 3.35-.16.004-.04.004-.113.004-.21 0-.675-.18-2.53-2.022-2.53zM55.15 262.154c-.038-.24-.097-.435-.145-.552l-.782.18c.118.46.157.587.157 1.456v3.447l.77-.005v-3.71c.714-.343 1.183-.548 1.495-.548.323 0 .796.16.796.523v2.74c0 .63.45.878.88 1.088l.41-.547c-.273-.147-.517-.254-.517-.576v-2.857c0-.727-.874-1.103-1.46-1.103-.537 0-.987.14-1.602.464zM61.743 259.825v1.098l1.142.015v-1.1l-1.142-.013zm.327 7.412c-.01.17-.17.57-.718.57h-.083c-.308 0-.72-.033-1.202-.824l-.615.478c.615 1.002 1.318 1.11 1.92 1.11 1.16 0 1.46-.606 1.46-1.314v-5.55h-.573c-.507 0-1.035.077-1.582.204l.137.693c.44-.103.694-.142 1.172-.142h.078l.005 4.777zM67.378 265.63c-.244.205-.46.284-.83.288-.816 0-1.24-.576-1.24-1.528 0-1.19.302-1.997 1.318-1.997.864 0 1.176.713 1.186 1.61v.09c0 .722-.117 1.24-.434 1.537zm-.84 1.045h.01c1.572 0 2.04-1.255 2.04-2.646 0-.47-.087-1.022-.287-1.407-.34-.645-.878-.982-1.84-.982-1.426 0-1.924 1.35-1.924 2.775 0 1.367.674 2.255 2.002 2.26zM71 267.77c-.39 0-.605-.226-.605-1.09h-.76c0 1.32.53 1.836 1.385 1.836.728 0 1.11-.483 1.367-1.142.645-1.52 1.138-3.13 1.456-4.854.043-.25.068-.527.068-.82h-.77c-.04 1.108-.362 2.52-.723 3.58-.552-1.588-1.343-3.424-2.158-3.546-.138-.02-.382-.04-.543-.04v.748c.175 0 .376.005.537.15.673.607 1.255 2.155 1.714 3.756-.186.518-.45 1.42-.967 1.42z" style="-inkscape-font-specification:'Fantasque Sans Mono'"/></g></g></svg>
