<svg xmlns="http://www.w3.org/2000/svg" viewBox="0 0 1530 990" height="990" width="1530"><path d="M262.478 515.533h13.933c10.757 0 16.135-3.545 16.135-10.39 0-6.72-5.745-10.388-16.99-10.388H262.48v20.777zm0-50.112v19.314H274.7c9.166 0 13.934-3.424 13.934-9.656 0-6.357-4.89-9.657-14.055-9.657h-12.102zm-19.433 60.503v-10.39h8.19V465.42h-8.19v-10.387H275.8c15.034 0 24.2 6.966 24.2 19.067 0 7.944-4.644 12.832-10.51 15.155 8.433 2.322 14.42 8.31 14.42 16.5 0 12.955-10.02 20.168-26.4 20.168h-34.465M363.315 489.01c-1.224-4.155-4.28-6.6-8.313-6.6-9.41 0-18.333 6.966-18.333 19.677v13.445h18.09v10.39h-40.334v-10.39h11.488v-31.288h-9.044v-10.39h19.677v8.8c3.3-6.11 10.023-10.51 18.945-10.51 10.023 0 16.255 5.745 18.09 13.934l-10.267 2.932M418.317 504.9c-3.422-1.222-8.556-2.2-13.322-2.2-6.845 0-13.445 2.2-13.445 8.434 0 4.643 4.155 6.843 9.9 6.843 7.944 0 16.867-4.278 16.867-11.61v-1.468zm0-9.29v-2.933c0-7.333-5.867-10.388-12.222-10.388-5.99 0-11.123 2.444-15.28 6.23l-7.088-7.697c4.89-4.524 11.855-8.68 22.368-8.68 13.076 0 23.222 6.968 23.222 20.167v23.223h7.578v10.39h-18.578v-5.502c-2.81 4.525-10.39 7.213-17.846 7.213-10.754 0-20.043-5.5-20.043-16.378 0-12.833 12.59-17.72 24.078-17.72 5.622 0 10.268 1.097 13.813 2.076M482.12 463.466h-12.1v-15.89h12.1v15.89zm20.045 52.066v10.39H449.61v-10.39h21.754v-31.288H454.74v-10.39h27.38v41.678h20.045M515.122 515.533h7.945v-31.29h-7.456v-10.39h18.09v6.723c3.178-5.132 9.78-8.432 17.845-8.432 11.61 0 19.923 7.332 19.923 19.19v24.2h7.945v10.39H552.4v-10.39h8.313v-21.268c0-9.045-5.502-11.612-10.512-11.612-8.19 0-16.377 6.112-16.377 15.522v17.357h8.312v10.39h-27.012v-10.39M594.204 484.244h-13.568v-10.39h13.568v-18.82l10.755-.002v18.822h25.3v10.39h-25.3v21.877c0 8.07 5.62 11.37 12.1 11.37 6.11 0 11.244-3.424 15.033-7.213l7.21 7.455c-4.767 5.134-12.1 9.9-22.244 9.9-13.08 0-22.856-7.21-22.856-21.143v-22.246M697.972 489.01c-1.222-4.155-4.277-6.6-8.31-6.6-9.41 0-18.335 6.966-18.335 19.677v13.445h18.09v10.39h-40.333v-10.39h11.49v-31.288h-9.046v-10.39h19.677v8.8c3.3-6.11 10.024-10.51 18.946-10.51 10.023 0 16.256 5.745 18.09 13.934l-10.268 2.932M726.94 494.51h32.024c-1.59-7.455-8.19-12.466-15.523-12.466-8.31 0-14.665 5.134-16.5 12.467zm43.39 23.468c-5.378 5.62-14.91 9.655-25.544 9.655-17.48 0-29.7-11.734-29.7-27.744 0-16.013 11.855-27.746 28.355-27.746 16.38 0 27.867 12.59 27.867 29.7v1.833h-44.853c1.83 8.678 9.043 13.933 18.453 13.933 7.823 0 14.545-3.178 18.213-7.21l7.21 7.577M793.8 494.51h32.023c-1.59-7.455-8.19-12.466-15.523-12.466-8.31 0-14.668 5.134-16.5 12.467zm43.39 23.468c-5.38 5.62-14.91 9.655-25.545 9.655-17.48 0-29.7-11.734-29.7-27.744 0-16.013 11.856-27.746 28.355-27.746 16.378 0 27.868 12.59 27.868 29.7v1.833H793.31c1.835 8.678 9.045 13.933 18.458 13.933 7.82 0 14.543-3.178 18.21-7.21l7.21 7.577M855.28 542.423h49.38v-10.39h-49.38v10.39z" fill="#100f0d"/><path d="M1169.585 447.91h-28.07c-1.924 0-3.56 1.393-3.855 3.295l-11.352 71.98c-.225 1.42.877 2.703 2.308 2.703h14.404c1.345 0 2.49-.98 2.697-2.302l3.222-20.41c.294-1.897 1.93-3.29 3.847-3.29h8.887c18.49 0 29.16-8.95 31.95-26.686 1.256-7.757.054-13.85-3.58-18.116-3.99-4.69-11.066-7.175-20.46-7.175m3.24 26.29c-1.533 10.08-9.228 10.08-16.678 10.08h-4.232l2.972-18.817c.18-1.137 1.16-1.973 2.31-1.973h1.943c5.067 0 9.85 0 12.317 2.884 1.478 1.727 1.923 4.29 1.365 7.825" fill="#459adb"/><path d="M969.36 447.91h-28.07c-1.924 0-3.555 1.393-3.855 3.295l-11.35 71.98c-.227 1.42.87 2.703 2.306 2.703h13.406c1.92 0 3.55-1.4 3.854-3.288l3.067-19.424c.297-1.897 1.932-3.29 3.85-3.29h8.882c18.49 0 29.164-8.95 31.95-26.686 1.26-7.757.053-13.85-3.576-18.116-3.996-4.69-11.07-7.175-20.464-7.175m3.243 26.29c-1.537 10.08-9.232 10.08-16.677 10.08h-4.237l2.97-18.817c.18-1.137 1.16-1.973 2.31-1.973h1.944c5.07 0 9.85 0 12.324 2.884 1.477 1.727 1.922 4.29 1.365 7.825M1053.267 473.878h-13.442c-1.153 0-2.135.836-2.314 1.976l-.59 3.754-.936-1.357c-2.914-4.224-9.402-5.637-15.882-5.637-14.853 0-27.533 11.252-30.006 27.038-1.28 7.875.54 15.404 5.006 20.65 4.1 4.83 9.955 6.835 16.927 6.835 11.972 0 18.61-7.686 18.61-7.686l-.6 3.735c-.224 1.415.87 2.7 2.315 2.7h12.102c1.923 0 3.554-1.39 3.854-3.286l7.27-46.017c.222-1.42-.876-2.705-2.313-2.705m-18.732 26.165c-1.303 7.677-7.395 12.838-15.174 12.838-3.898 0-7.02-1.256-9.025-3.63-1.99-2.354-2.74-5.707-2.11-9.44 1.21-7.617 7.407-12.936 15.065-12.936 3.816 0 6.917 1.265 8.965 3.662 2.056 2.414 2.867 5.79 2.28 9.507" fill="#293b82"/><path d="M1253.487 473.878h-13.44c-1.148 0-2.13.836-2.313 1.976l-.587 3.754-.94-1.357c-2.913-4.224-9.402-5.637-15.882-5.637-14.85 0-27.534 11.252-30.006 27.038-1.283 7.875.54 15.404 5.006 20.65 4.103 4.83 9.954 6.835 16.93 6.835 11.973 0 18.606-7.686 18.606-7.686l-.598 3.735c-.225 1.415.873 2.7 2.313 2.7h12.103c1.922 0 3.554-1.39 3.857-3.286l7.263-46.017c.225-1.42-.875-2.705-2.313-2.705m-18.728 26.165c-1.3 7.677-7.398 12.838-15.175 12.838-3.9 0-7.02-1.256-9.027-3.63-1.99-2.354-2.74-5.707-2.107-9.44 1.21-7.617 7.405-12.936 15.064-12.936 3.82 0 6.916 1.265 8.964 3.662 2.06 2.414 2.87 5.79 2.28 9.507" fill="#459adb"/><path d="M1124.86 473.878h-13.512c-1.29 0-2.498.64-3.222 1.713l-18.64 27.45-7.9-26.38c-.495-1.65-2.014-2.782-3.737-2.782h-13.28c-1.604 0-2.735 1.576-2.215 3.096l14.874 43.67-13.993 19.742c-1.098 1.553.008 3.692 1.91 3.692h13.497c1.277 0 2.476-.625 3.208-1.674l44.93-64.853c1.074-1.55-.032-3.673-1.922-3.673" fill="#293b82"/><path d="M1269.338 449.886l-11.525 73.3c-.226 1.42.874 2.705 2.312 2.705h11.588c1.912 0 3.55-1.396 3.85-3.294l11.362-71.982c.225-1.42-.875-2.705-2.313-2.705h-12.962c-1.163 0-2.138.835-2.313 1.976" fill="#459adb"/></svg>
