<svg xmlns="http://www.w3.org/2000/svg" width="280mm" height="119054.411" viewBox="0 0 992.12598 111.61351"><path d="M859.67 30.513c-1.782 11.695-10.712 11.695-19.353 11.695h-4.915l3.45-21.835c.205-1.32 1.343-2.29 2.68-2.29h2.255c5.88 0 11.434 0 14.3 3.348 1.712 2.005 2.23 4.98 1.582 9.083M855.91 0h-32.58c-2.23 0-4.125 1.62-4.474 3.823l-13.173 83.54c-.26 1.648 1.017 3.14 2.68 3.14h16.72c1.557 0 2.884-1.135 3.128-2.673l3.74-23.687c.344-2.2 2.243-3.823 4.47-3.823h10.307c21.46 0 33.85-10.383 37.083-30.97 1.458-8.998.06-16.072-4.154-21.024C875.022 2.882 866.81 0 855.91 0M627.294 30.513c-1.78 11.695-10.712 11.695-19.352 11.695h-4.915l3.45-21.835c.204-1.32 1.343-2.29 2.68-2.29h2.254c5.882 0 11.435 0 14.3 3.348 1.714 2.005 2.23 4.98 1.584 9.083M623.534 0h-32.58c-2.23 0-4.125 1.62-4.473 3.823l-13.172 83.54c-.26 1.648 1.012 3.14 2.68 3.14h15.56c2.225 0 4.12-1.623 4.468-3.82l3.558-22.54c.345-2.2 2.243-3.823 4.47-3.823h10.308c21.46 0 33.848-10.383 37.083-30.97 1.457-8.998.058-16.072-4.155-21.024C642.647 2.882 634.435 0 623.534 0M699.17 60.504c-1.507 8.914-8.58 14.9-17.608 14.9-4.524 0-8.15-1.458-10.476-4.213-2.306-2.73-3.175-6.624-2.445-10.954 1.404-8.838 8.596-15.013 17.484-15.013 4.432 0 8.028 1.47 10.4 4.25 2.39 2.803 3.332 6.717 2.647 11.03m21.744-30.365h-15.6c-1.337 0-2.476.97-2.686 2.294l-.684 4.36-1.088-1.58c-3.382-4.9-10.913-6.544-18.432-6.544-17.235 0-31.958 13.064-34.823 31.383-1.49 9.14.627 17.874 5.81 23.97 4.76 5.6 11.552 7.93 19.646 7.93 13.896 0 21.6-8.922 21.6-8.922l-.698 4.335c-.26 1.647 1.013 3.138 2.685 3.138h14.046c2.23 0 4.124-1.616 4.473-3.817l8.435-53.407c.26-1.646-1.017-3.138-2.684-3.138M931.547 60.504c-1.508 8.914-8.582 14.9-17.61 14.9-4.523 0-8.148-1.458-10.475-4.213-2.31-2.73-3.176-6.624-2.445-10.954 1.403-8.838 8.595-15.013 17.483-15.013 4.432 0 8.028 1.47 10.4 4.25 2.39 2.803 3.332 6.717 2.647 11.03M953.29 30.14h-15.6c-1.337 0-2.476.97-2.686 2.294l-.684 4.36-1.092-1.58c-3.378-4.9-10.91-6.544-18.428-6.544-17.236 0-31.96 13.064-34.823 31.383-1.492 9.14.625 17.874 5.81 23.97 4.758 5.6 11.55 7.93 19.645 7.93 13.896 0 21.6-8.922 21.6-8.922l-.698 4.335c-.26 1.647 1.013 3.138 2.685 3.138h14.045c2.23 0 4.125-1.616 4.474-3.817l8.434-53.407c.26-1.646-1.017-3.138-2.684-3.138M804.004 30.14h-15.68c-1.5 0-2.903.742-3.743 1.986L762.95 63.983l-9.166-30.614c-.575-1.916-2.34-3.23-4.34-3.23h-15.41c-1.862 0-3.173 1.83-2.572 3.59l17.265 50.685-16.24 22.914c-1.273 1.797.013 4.284 2.218 4.284h15.664c1.483 0 2.873-.727 3.722-1.945L806.234 34.4c1.247-1.802-.038-4.263-2.23-4.263M971.677 2.296l-13.37 85.07c-.26 1.647 1.012 3.138 2.68 3.138h13.45c2.226 0 4.125-1.622 4.47-3.823L992.09 3.14c.26-1.647-1.012-3.138-2.684-3.138H974.36c-1.34 0-2.477.97-2.683 2.294"/><path d="M16.365 78.44H28.1c9.06 0 13.588-2.945 13.588-8.633 0-5.586-4.84-8.63-14.31-8.63H16.366V78.44zm0-41.64V52.85h10.293c7.72 0 11.734-2.845 11.734-8.025 0-5.28-4.116-8.024-11.836-8.024h-10.19v.002zM0 87.073v-8.63h6.895V36.8H0v-8.634h27.585c12.662 0 20.38 5.788 20.38 15.842 0 6.6-3.91 10.662-8.852 12.593 7.1 1.93 12.147 6.905 12.147 13.71 0 10.763-8.44 16.756-22.233 16.756H0v.002zm101.29-30.67c-1.03-3.453-3.604-5.484-7-5.484-7.926 0-15.44 5.788-15.44 16.35V78.44h15.235v8.632h-33.97v-8.63h9.675v-26h-7.615v-8.634h16.57v7.312c2.78-5.08 8.442-8.735 15.956-8.735 8.442 0 13.692 4.773 15.235 11.577l-8.645 2.44zm46.322 13.2c-2.88-1.015-7.203-1.83-11.22-1.83-5.764 0-11.324 1.83-11.324 7.01 0 3.858 3.5 5.688 8.336 5.688 6.69 0 14.205-3.556 14.205-9.65v-1.218h.002zm0-7.716v-2.438c0-6.095-4.94-8.634-10.293-8.634-5.044 0-9.37 2.032-12.87 5.18l-5.97-6.398c4.12-3.76 9.985-7.21 18.84-7.21 11.013 0 19.556 5.79 19.556 16.756v19.3h6.383v8.63H147.61v-4.57c-2.366 3.76-8.75 5.992-15.028 5.992-9.057 0-16.882-4.57-16.882-13.608 0-10.665 10.604-14.726 20.277-14.726 4.737 0 8.647.912 11.632 1.726zm43.545-39.914h10.19v13.202h-10.19V21.972zm27.07 56.47v8.63h-44.26v-8.63h18.32v-26H178.29v-8.634h23.056v34.63h16.882v.003zm10.915 0h6.69v-26h-6.28v-8.634h15.237v5.583c2.676-4.263 8.234-7.005 15.027-7.005 9.778 0 16.78 6.094 16.78 15.946V78.44h6.69v8.63H260.54v-8.63h6.997v-17.67c0-7.516-4.633-9.648-8.854-9.648-6.895 0-13.792 5.078-13.792 12.898V78.44h7v8.632h-22.748v-8.63zm66.6-26.003h-11.427v-8.632h11.426v-15.64h9.06v15.64h21.307v8.63H304.8v18.18c0 6.703 4.74 9.447 10.192 9.447 5.148 0 9.47-2.845 12.662-5.993l6.075 6.195c-4.015 4.265-10.192 8.227-18.735 8.227-11.01 0-19.25-5.993-19.25-17.568V52.44zm87.393 3.963c-1.03-3.454-3.602-5.485-6.997-5.485-7.927 0-15.44 5.788-15.44 16.35V78.44h15.236v8.632h-33.97v-8.63h9.673v-26h-7.618v-8.634h16.573v7.312c2.78-5.08 8.44-8.735 15.955-8.735 8.438 0 13.69 4.773 15.234 11.577l-8.647 2.44zm24.4 4.568h26.967c-1.337-6.194-6.895-10.358-13.072-10.358-7 0-12.35 4.265-13.894 10.36zm36.54 19.5c-4.524 4.67-12.556 8.024-21.51 8.024-14.718 0-25.014-9.75-25.014-23.053 0-13.304 9.99-23.055 23.883-23.055 13.792 0 23.47 10.463 23.47 24.678v1.524h-37.78c1.544 7.21 7.62 11.577 15.545 11.577 6.587 0 12.247-2.638 15.34-5.99l6.068 6.296zm19.767-19.5h26.97c-1.338-6.194-6.896-10.358-13.073-10.358-7 0-12.354 4.265-13.898 10.36zm36.54 19.5c-4.525 4.67-12.557 8.024-21.51 8.024-14.72 0-25.015-9.75-25.015-23.053 0-13.304 9.985-23.055 23.882-23.055 13.792 0 23.47 10.463 23.47 24.678v1.524h-37.78c1.545 7.21 7.618 11.577 15.545 11.577 6.586 0 12.248-2.638 15.338-5.99l6.07 6.296z" fill-rule="evenodd"/><g style="line-height:125%" font-size="27.633" font-family="Sans" letter-spacing="0" word-spacing="0"><path d="M557.596 80.818v5.797h-43.132v-5.797h43.132z"/></g></svg>
