<svg xmlns="http://www.w3.org/2000/svg" width="449192.391" height="172338.981" viewBox="0 0 421.11782 161.5678"><path d="M260.206 0c-.363 0-.656.284-.656.638V160.93c0 .353.293.638.656.638H420.46c.365 0 .658-.285.658-.638V.638c0-.354-.293-.638-.657-.638H260.207zm60.368 49.268h15.777v55.143h-7.888v7.89h-31.516v-7.89h-7.887V80.785h15.775v15.74h15.74V49.267zm31.632 0h39.403v15.74h-31.516v7.887h23.627v7.89h7.89v23.626h-7.89v7.89h-39.403V96.523h31.515v-7.85h-23.626v-7.89h-7.89V57.12h7.89v-7.85z" fill="#fad316"/><g style="line-height:125%" font-size="81.84" font-family="SG12" letter-spacing="0" word-spacing="0"><path d="M0 103.633V54.52h8.192v-8.15H40.92v8.15h8.192v16.385H32.728v-8.192H16.384V95.44h16.344v-8.15h16.384v16.343H40.92v8.192H8.192v-8.192H0zM57.384 111.825V54.52h8.192v-8.15h32.728v8.15h8.192v57.305H90.112V95.44H73.768v16.385H57.384zm16.384-32.728h16.344V62.713H73.768v16.384zM114.768 111.825V46.37h57.304v8.15h8.152v57.305H163.88V62.713h-8.192v49.112h-16.384V62.713h-8.152v49.112h-16.384zM188.456 111.825V46.37h40.92v8.15h8.192v32.77h-8.192v8.15H204.84v16.385h-16.384zm16.384-32.728h16.344V62.713H204.84v16.384z" style="-inkscape-font-specification:SG12"/></g></svg>
