<svg xmlns="http://www.w3.org/2000/svg" width="734007.723" height="133233.264" viewBox="0 0 688.13223 124.90618"><g font-size="156.171" font-family="SG12" letter-spacing="0" word-spacing="0"><g style="line-height:125%" fill="#fff"><path d="M0 109.274V15.556h15.632V0h62.453v15.556h15.633V46.82H62.453V31.19H31.265v62.454h31.188V78.085h31.265v31.19H78.085v15.63H15.632v-15.63H0zM109.503 124.906V15.556h15.632V0h62.453v15.556h15.632v109.35h-31.264V93.642h-31.19v31.264h-31.263zm31.264-62.453h31.19V31.188h-31.19v31.265zM219.005 124.906V0h109.35v15.556h15.556v109.35h-31.187V31.188H297.09v93.718h-31.264V31.188H250.27v93.718h-31.265zM359.62 124.906V0h78.085v15.556h15.633v62.53h-15.633V93.64h-46.82v31.264H359.62zm31.265-62.453h31.188V31.188h-31.188v31.265z" style="-inkscape-font-specification:SG12"/></g><g style="line-height:125%" fill="#8dc63f"><path d="M484.912 109.274v-46.82h31.265V93.64h31.188V0h31.265v109.274h-15.633v15.632h-62.453v-15.632h-15.632zM594.414 124.906V93.642h62.454V78.085h-46.82V62.453h-15.634V15.556h15.633V0h78.085v31.188H625.68V46.82h46.82v15.633h15.632v46.82H672.5v15.633h-78.086z" style="-inkscape-font-specification:SG12"/></g></g></svg>
