<svg xmlns="http://www.w3.org/2000/svg" width="280mm" height="444269.934" viewBox="0 0 992.12598 416.50305"><path d="M205.726 0c-22.34 0-46.267 7.177-66.214 19.145C51.745 72.603-10.494 197.088 1.474 296.025c3.99 35.107 19.162 66.997 40.704 86.944 8.777 7.978 39.887 33.533 80.58 33.533 31.914 0 62.226-10.388 97.333-32.73 16.756-11.17 32.74-24.728 47.9-41.484 10.372 19.947 30.292 32.704 50.24 32.704 15.957 0 31.143-7.148 42.313-21.51 4.787 13.564 15.138 21.51 31.095 21.51 12.766 0 39.107-11.956 63.044-29.51l-2.39 11.17c-.798 3.192-.805 6.362-.805 8.756.798 6.383 5.592 10.39 11.975 10.39 13.564 0 31.098-12.762 34.29-30.316l5.584-25.534c3.192-13.564 15.187-32.718 31.144-51.07 14.362-15.957 28.712-27.12 35.095-27.12 1.596 0 2.414 1.593 2.414 2.39.797 2.395-1.614 8.784-4.805 17.56-5.585 13.565-12.766 33.513-16.755 59.045-1.596 7.98-1.602 15.956-.805 22.34 2.394 20.744 15.148 32.704 35.095 32.704 17.553 0 55.068-14.354 82.993-43.875 1.596 17.553 5.603 30.31 10.39 38.29 1.596 3.19 6.348 5.584 12.73 5.584 6.384 0 15.166-2.408 23.145-7.195 22.34-11.97 49.473-39.083 73.41-74.19 3.19.798 6.392.805 9.583.805 9.576 0 20.748-4 31.12-9.584-3.19 12.766-4.79 25.534-3.194 36.704 3.19 29.522 28.728 53.46 56.654 53.46 15.16 0 30.314-7.972 41.484-21.536 3.192 15.958 14.367 36.694 45.485 49.46 2.392 1.595 4.792 1.61 6.388 1.61 3.192 0 6.38-.8 7.975-3.196 1.596-1.595 2.39-3.996 2.39-6.39 0-1.595-1.588-4.8-4.78-7.194-6.383-5.585-14.36-15.932-16.755-33.485-.798-7.98 0-18.358 2.39-28.73 6.384-28.724 7.968-35.123 7.17-38.314-.797-6.383-5.573-10.365-12.754-10.365-11.968 0-28.747 11.98-33.534 29.535-6.383 23.936-23.932 41.484-35.9 41.484-15.16 0-22.33-16.765-23.925-31.925-3.19-24.734 6.358-54.253 22.316-72.604 10.373-11.967 23.165-18.34 36.73-18.34 10.372 0 22.328 4 23.924 15.17.798 10.373-4.77 12.76-6.365 15.95-3.99 1.596-7.19 2.4-6.39 6.39.797 7.98 12.77 10.34 23.144 10.34 5.585 0 17.548-1.563 24.73-10.34 5.585-6.383 7.96-15.162 6.365-25.534-3.193-21.543-24.716-35.12-56.63-35.12-31.118 0-59.842 13.57-81.385 39.9-2.393 1.596-4.783 4.003-7.975 7.194-7.18 8.777-19.158 14.365-31.924 14.365h-4c10.373-21.543 15.975-39.91 15.975-55.07 0-29.52-19.133-42.312-37.484-42.312-24.734 0-49.484 22.36-49.484 63.848 0 23.938 9.584 44.68 26.34 55.85-19.947 32.713-46.293 57.46-49.484 57.46-1.596 0-1.593-1.607-2.39-4-2.394-10.373-5.585-31.92-5.585-45.485 0-22.34 3.978-46.267 12.755-71.8.798-3.19 1.61-6.385 1.61-8.78 0-7.18-4.794-11.168-11.975-11.168-13.564 0-32.698 15.952-37.485 30.314-3.99 13.565-6.39 31.91-6.39 58.24V304c-23.936 31.915-52.675 41.484-60.653 41.484-3.99 0-7.184-1.58-8.78-3.975-3.192-3.192-3.188-7.2-2.39-10.39 5.585-29.522 15.165-63.012 23.144-84.554 3.99-11.17 5.577-20.762 4.78-27.145-1.597-10.37-8.78-16.753-19.95-16.753-23.14 0-59.838 23.14-83.774 53.46l7.195-31.12c.798-3.192.78-6.387.78-8.78-.797-6.383-4.793-10.366-11.974-10.366-28.724 0-34.286 14.37-36.68 28.73 0 3.192-7.988 43.863-15.17 78.97-20.744 18.35-43.873 30.34-49.46 30.34-8.775 0-9.583-7.99-9.583-9.585 0-3.99 2.386-17.553 4.78-27.925.798-3.99 1.61-7.19 1.61-9.585.797-3.19.78-6.386.78-8.78-.798-7.18-5.574-10.364-12.755-10.364-12.766 0-29.52 11.98-33.51 29.535-6.383 24.734-23.126 41.484-35.094 41.484-14.362 0-22.354-16.758-23.95-31.12-2.393-20.745 4.794-53.444 23.145-74.19 10.37-11.17 22.334-17.56 35.898-17.56 5.585 0 22.33.803 23.925 14.366 1.596 10.372-3.968 12.776-8.755 15.17-3.192 1.595-7.188 3.18-6.39 7.17 1.596 7.978 15.14 10.365 23.12 10.364 5.585 0 17.573-2.386 24.754-10.365 5.586-6.383 7.986-14.357 6.39-24.73-3.19-21.542-24.74-35.118-56.654-35.118-28.723 0-55.86 11.974-76.604 34.314-21.542 23.14-33.488 55.044-31.095 82.97-15.958 19.15-33.53 31.136-63.85 47.094-18.35 8.776-37.49 13.535-55.044 13.535-51.862 0-80.578-47.058-86.163-93.335-9.575-75.798 31.887-167.56 78.164-219.42C161.85 38.3 188.19 22.34 210.53 22.34c15.958 0 29.53 14.374 31.925 35.12 3.99 32.712 3.963 56.64-31.144 86.163-3.988 3.19-5.563 8.79-3.17 12.78.8 1.595 3.188 3.194 7.976 3.194 6.383 0 14.357-3.188 24.73-7.975 35.106-17.554 51.856-46.308 47.07-82.213C282.328 29.514 247.215 0 205.725 0zm566.516 189.887c4.787 0 12.78 7.985 12.78 28.73 0 10.372-1.596 19.973-5.586 31.143-10.372-11.17-16.78-27.147-16.78-41.508 0-8.777 3.203-18.365 9.586-18.365z"/></svg>
