<?xml version="1.0" encoding="utf-8"?>
<!-- Generator: Adobe Illustrator 18.1.1, SVG Export Plug-In . SVG Version: 6.00 Build 0)  -->
<svg version="1.1" id="Layer_1" xmlns="http://www.w3.org/2000/svg" xmlns:xlink="http://www.w3.org/1999/xlink" x="0px" y="0px"
	 viewBox="0 0 2800 1192" enable-background="new 0 0 2800 1192" xml:space="preserve">
<polyline fill="#F7F7E9" points="0,1190 0,0 2800,0 2800,1190 "/>
<polygon fill="#D3E6E0" points="2800,1141.598 0,1142.098 0,664.25 2800,664.098 "/>
<polyline fill="#728A60" points="2800,1191 2800,848.491 2198.717,955.839 1800.029,879.706 1455.444,936.039 991.035,805 
	751.012,860.493 600.233,843.304 0,914.933 0,1191 "/>
<rect y="1117" fill="#647A55" width="2800" height="25"/>
<rect y="1142" fill="#566949" width="2800" height="25"/>
<rect y="1167" fill="#444D3C" width="2800" height="25"/>
<polygon fill="#D6DECC" points="998,664.098 1088.089,631.099 1139.086,642.098 1295.619,607.101 1473.57,662.598 "/>
<g opacity="0.2">
	<polygon fill="#566949" points="1257.079,665.099 1485.068,701.598 1590.062,691.849 1702.557,718.097 1863.049,665.099 
		1656.557,656.099 	"/>
	<polygon fill="#728A60" points="971.079,665.099 1199.068,684.598 1304.062,674.849 1416.557,698.097 1577.049,657.891 
		1370.557,656.099 	"/>
</g>
<polygon fill="#534741" points="1584,756 1637,756 1633,766 1595,766 "/>
<rect x="1605" y="733" fill="#FFFFFF" width="16" height="23"/>
<g>
	<polygon fill="#566949" points="1257.079,664.098 1485.068,627.599 1590.062,637.348 1702.557,611.099 1863.049,664.098 
		1656.557,673.097 	"/>
	<polygon fill="#728A60" points="971.079,664.098 1199.068,644.599 1304.062,654.348 1416.557,631.099 1577.049,671.306 
		1370.557,673.097 	"/>
</g>
<polygon fill="#FFFFFF" points="739,0 831,51 941,25.5 1007,39 1073,0 "/>
<polygon fill="#BDCDD9" points="1282.575,763 1144.582,766 1282.575,769 1407.068,766 "/>
<polygon fill="#BDCDD9" points="1079.589,754 941.581,756 1072.825,757.5 1204.068,756 "/>
<polygon fill="#BDCDD9" points="2062.773,758 1961.619,761 2062.773,764 2154.031,761 "/>
<polygon fill="#BDCDD9" points="1814.773,830 1713.619,833 1814.773,836 1906.031,833 "/>
<polygon fill="#BDCDD9" points="1677.773,845 1576.619,847 1677.767,848.47 1769.031,847 "/>
<polygon fill="#BDCDD9" points="1785.773,733 1684.619,735 1785.767,736.47 1877.031,735 "/>
<polygon fill="#BDCDD9" points="1304.773,831 1203.619,833 1304.767,834.47 1396.031,833 "/>
<polygon fill="#FFFFFF" points="1723,0 1751,51 1839,89 1942,63 2015,0 "/>
<g>
	<polygon fill="#FFFFFF" points="1323,886.99 1275,950.201 1323,953.701 1371,950.201 	"/>
	<polygon fill="#EDEDED" points="1323,886.99 1311.159,955.602 1319.018,953.41 	"/>
	<polygon fill="#4D4D4D" points="1323,887.201 1323,953.701 1319.017,953.41 	"/>
	
		<line fill="none" stroke="#4D4D4D" stroke-width="2" stroke-linecap="round" stroke-miterlimit="10" x1="1323" y1="887" x2="1323" y2="880"/>
</g>
<g>
	<polygon fill="#FFFFFF" points="1108,936.99 1060,1000.201 1108,1003.701 1156,1000.201 	"/>
	<polygon fill="#EDEDED" points="1108,936.99 1096.159,1005.602 1104.018,1003.41 	"/>
	<polygon fill="#4D4D4D" points="1108,937.201 1108,1003.701 1104.017,1003.41 	"/>
	
		<line fill="none" stroke="#4D4D4D" stroke-width="2" stroke-linecap="round" stroke-miterlimit="10" x1="1108" y1="937" x2="1108" y2="930"/>
</g>
<g>
	<g opacity="0.2">
		<polygon points="2006.771,1040.847 1998.687,1048.082 1997.798,1058.476 1985.085,1068.879 1962.464,1051.839 1958.88,1054.719 
			1943.134,1040.847 1934.156,1023.332 1932.696,1005.032 1940.825,999.531 1955.739,988.251 1978.942,999.531 1991.153,1005.032 
			2003.009,1023.332 		"/>
		<polygon points="1964.53,1010 1963.689,1010 1962.76,1010 1943.113,961.549 1945.513,960.157 1948.923,961.583 		"/>
		<polygon points="1962.076,1003.021 1971.986,1008.269 1971.067,1005.745 1960.407,998.435 		"/>
	</g>
	<g>
		<polygon fill="#56614C" points="1977.413,881.659 1966.697,874.424 1962.024,864.03 1945.525,853.626 1929.106,870.667 
			1924.473,867.787 1913.777,881.659 1911.174,899.173 1916.374,917.474 1926.505,922.974 1945.525,934.255 1964.622,922.974 
			1974.831,917.474 1980.027,899.173 		"/>
		<polygon fill="#534741" points="1946.354,913 1945.513,913 1944.583,913 1942.595,961.204 1945.513,962.473 1948.386,961.232 		
			"/>
		<polygon fill="#534741" points="1946,919.485 1954,914.237 1954,916.761 1946,924.071 		"/>
	</g>
</g>
<g>
	<g opacity="0.2">
		<polygon points="739.771,992.847 731.687,1000.082 730.798,1010.476 718.085,1020.879 695.464,1003.839 691.88,1006.719 
			676.134,992.847 667.156,975.332 665.696,957.032 673.825,951.531 688.739,940.251 711.942,951.531 724.153,957.032 
			736.009,975.332 		"/>
		<polygon points="697.53,962 696.689,962 695.76,962 676.113,913.549 678.513,912.157 681.923,913.583 		"/>
		<polygon points="695.076,955.021 704.986,960.269 704.067,957.745 693.407,950.435 		"/>
	</g>
	<g>
		<polygon fill="#56614C" points="710.414,833.659 699.697,826.424 695.024,816.03 678.525,805.626 662.106,822.667 
			657.473,819.787 646.777,833.659 644.174,851.173 649.374,869.474 659.505,874.974 678.525,886.255 697.622,874.974 
			707.831,869.474 713.027,851.173 		"/>
		<polygon fill="#534741" points="679.354,865 678.513,865 677.583,865 675.595,913.204 678.513,914.473 681.386,913.232 		"/>
		<polygon fill="#534741" points="679,871.485 687,866.237 687,868.761 679,876.071 		"/>
	</g>
</g>
<g>
	<g opacity="0.2">
		<polygon points="839.771,1077.847 831.687,1085.082 830.798,1095.476 818.085,1105.879 795.464,1088.839 791.88,1091.719 
			776.134,1077.847 767.156,1060.333 765.696,1042.032 773.825,1036.531 788.739,1025.251 811.942,1036.531 824.153,1042.032 
			836.009,1060.333 		"/>
		<polygon points="797.53,1047 796.689,1047 795.76,1047 776.113,998.549 778.513,997.157 781.923,998.583 		"/>
		<polygon points="795.076,1040.021 804.986,1045.269 804.067,1042.745 793.407,1035.435 		"/>
	</g>
	<g>
		<polygon fill="#56614C" points="810.414,918.659 799.697,911.424 795.024,901.03 778.525,890.626 762.106,907.667 
			757.473,904.787 746.777,918.659 744.174,936.173 749.374,954.474 759.505,959.974 778.525,971.255 797.622,959.974 
			807.831,954.474 813.027,936.173 		"/>
		<polygon fill="#534741" points="779.354,950 778.513,950 777.583,950 775.595,998.204 778.513,999.473 781.386,998.232 		"/>
		<polygon fill="#534741" points="779,956.485 787,951.237 787,953.761 779,961.071 		"/>
	</g>
</g>
<g>
	<g opacity="0.2">
		<polygon points="2056.206,1078.277 2068.354,1084.86 2076.048,1094.318 2094.506,1103.784 2103.803,1088.279 2108.972,1090.899 
			2114.111,1078.277 2110.679,1062.34 2099.886,1045.688 2088.845,1040.683 2067.803,1030.418 2054.162,1040.683 2046.695,1045.688 
			2048.028,1062.34 		"/>
		<g>
			<polygon points="2074.186,1050 2074.951,1050 2075.797,1050 2061.592,1006.017 2058.493,1004.803 2056.326,1006.022 			"/>
			<polygon points="2071.512,1043.858 2066.25,1048.633 2065.415,1046.336 2069.994,1039.685 			"/>
		</g>
	</g>
	<g>
		<polygon fill="#56614C" points="2029.466,933.83 2039.218,927.247 2043.469,917.789 2058.482,908.323 2073.422,923.828 
			2077.637,921.208 2087.371,933.83 2089.739,949.767 2085.007,966.419 2075.789,971.424 2058.482,981.688 2041.105,971.424 
			2031.816,966.419 2027.088,949.767 		"/>
		<g>
			<polygon fill="#534741" points="2057.728,962 2058.493,962 2059.339,962 2061.148,1006.036 2058.493,1007.278 2055.878,1006.018 
							"/>
			<polygon fill="#534741" points="2057,968.249 2050,963.474 2050,965.771 2057,972.422 			"/>
		</g>
	</g>
</g>
<g>
	<polygon fill="#534741" points="1307.474,685 1351.526,685 1348.202,693 1316.617,693 	"/>
	<rect x="1325" y="666" fill="#FFFFFF" width="13" height="19"/>
</g>
<polygon fill="#FFFFFF" points="1179.97,378.467 1136.472,355.969 1086.974,339.469 999,395 1027,446 1115,484 1218,458 1291,395 
	"/>
<polygon fill="#647A55" points="1455.552,935.651 1877.031,1035.435 1800.492,879.124 "/>
<polygon fill="#647A55" points="751.039,859.844 1050.976,893.941 991.089,804.159 "/>
<g>
	<polygon fill="#534741" points="881.891,801 881.05,801 880.121,801 878.132,858.846 881.05,860.575 883.924,858.769 	"/>
	<polygon fill="#444D3C" points="880.974,801.43 881.119,786.347 882.696,777.93 893.478,765.628 906.541,763.036 891.301,777.447 	
		"/>
	<polygon fill="#444D3C" points="881.041,801.43 881.115,786.761 879.319,777.93 868.537,765.628 855.474,763.036 870.714,777.447 	
		"/>
	<polygon fill="#444D3C" points="880.974,801.43 871.448,783.997 851.627,777.4 822.119,782.912 855.474,786.434 	"/>
	<polygon fill="#444D3C" points="881.119,801.43 890.645,783.997 910.466,777.4 939.974,782.912 906.619,786.434 	"/>
	<polygon fill="#444D3C" points="881.05,801 866.813,794.714 845.177,798.072 839.1,805.166 849.391,803.358 868.92,801 	"/>
	<polygon fill="#444D3C" points="881.1,801 895.337,794.714 916.972,798.072 923.05,805.166 912.759,803.358 893.23,801 	"/>
	<g>
		<polygon fill="#56614C" points="880.974,801.43 865.708,787.364 850.428,785.975 828.55,792.226 848.344,796.567 864.013,796.178 
					"/>
		<polygon fill="#56614C" points="880.974,801.43 876.517,782.415 862.897,772.647 845.012,769.758 828.73,773.986 854.852,778.805 
			870.064,786.594 		"/>
		<polygon fill="#56614C" points="880.974,801.43 865.493,799.352 853.098,802.297 845.516,811.026 843.837,823.146 851.673,813.6 
			865.351,804.909 		"/>
	</g>
	<g>
		<polygon fill="#56614C" points="881.05,801.43 896.316,787.364 911.596,785.975 933.474,792.226 913.679,796.567 898.01,796.178 
					"/>
		<polygon fill="#56614C" points="881.05,801.43 885.507,782.415 899.127,772.647 917.012,769.758 933.293,773.986 907.172,778.805 
			891.959,786.594 		"/>
		<polygon fill="#56614C" points="881.05,801.43 896.53,799.352 908.926,802.297 916.508,811.026 918.187,823.146 910.351,813.6 
			896.673,804.909 		"/>
	</g>
</g>
<path opacity="0.2" d="M956.158,921.095l-19.747,5.855l-4.693-0.388l34.115,3.256l-25.618,4.787l21.981,3.573l-14.84,3.96
	l-18.87-2.706l-10.37-5.597l0.907,1.102l20.153,13.497l-13.947-2.428l-14.976-11.522l-4.446-7.884l-0.145-0.387l1.214,8.271
	l-6.589,11.522l-12.179,2.428l10.328-13.497l0.105-1.092l-6.285,5.588l-16.9,2.706l-17.723-3.96l19.412-3.579l-29.067-4.781
	l32.154-3.298h0l-4.889,0.43l-24.009-5.855l18.315-4.066l7.841,0.181l-11.522-1.591l-8.496-6.645l10.908,1.694l3.24,0.352
	l-9.73-7.534l-5.81-11.352l11.091,8.941l16.641,8.14l15.868,3.076l-21.447-53.446l2.302-1.768l3.489,1.691l17.471,53.525
	l13.639-3.079l10.715-8.14l4.582-8.941l2.453,11.352l-4.254,7.55l3.119-0.368l9.675-1.694l-3.659,6.645l-10.341,1.587l7.561-0.177
	L956.158,921.095z M896.966,911h1.814l0.723,0.785l-0.181-0.61L896.966,911z M901.283,911.782l0.348-0.782h1.814l-2.332,0.174
	L901.283,911.782z"/>
<path opacity="0.2" d="M1670.135,1059.967l-19.747,5.855l-4.693-0.388l34.115,3.256l-25.618,4.787l21.981,3.573l-14.84,3.96
	l-18.87-2.706l-10.37-5.597l0.907,1.102l20.153,13.497l-13.947-2.428l-14.976-11.522l-4.446-7.884l-0.145-0.387l1.214,8.271
	l-6.589,11.522l-12.179,2.428l10.328-13.497l0.105-1.093l-6.285,5.588l-16.9,2.706l-17.723-3.96l19.412-3.579l-29.067-4.781
	l32.155-3.298l0,0l-4.889,0.43l-24.009-5.855l18.315-4.066l7.842,0.181l-11.522-1.591l-8.496-6.645l10.908,1.694l3.24,0.352
	l-9.73-7.534l-5.81-11.352l11.091,8.941l16.641,8.14l15.868,3.076l-21.447-53.446l2.302-1.768l3.489,1.691l17.471,53.525
	l13.639-3.078l10.715-8.14l4.582-8.941l2.453,11.352l-4.254,7.55l3.119-0.368l9.675-1.694l-3.659,6.645l-10.341,1.587l7.561-0.177
	L1670.135,1059.967z M1610.942,1050h1.814l0.723,0.721l-0.181-0.578L1610.942,1050z M1615.26,1050.718l0.348-0.718h1.814
	l-2.332,0.142L1615.26,1050.718z"/>
<g>
	<polygon fill="#534741" points="1595.891,940 1595.05,940 1594.12,940 1592.132,997.846 1595.05,999.575 1597.923,997.769 	"/>
	<polygon fill="#444D3C" points="1594.974,940.43 1595.119,925.347 1596.696,916.93 1607.478,904.628 1620.541,902.036 
		1605.301,916.447 	"/>
	<polygon fill="#444D3C" points="1595.041,940.43 1595.115,925.761 1593.319,916.93 1582.537,904.628 1569.474,902.036 
		1584.714,916.447 	"/>
	<polygon fill="#444D3C" points="1594.974,940.43 1585.448,922.997 1565.627,916.4 1536.119,921.912 1569.474,925.434 	"/>
	<polygon fill="#444D3C" points="1595.119,940.43 1604.645,922.997 1624.466,916.4 1653.974,921.912 1620.619,925.434 	"/>
	<polygon fill="#444D3C" points="1595.05,940 1580.813,933.714 1559.177,937.072 1553.099,944.166 1563.391,942.358 1582.92,940 	
		"/>
	<polygon fill="#444D3C" points="1595.099,940 1609.337,933.714 1630.973,937.072 1637.05,944.166 1626.759,942.358 1607.23,940 	
		"/>
	<g>
		<polygon fill="#56614C" points="1594.974,940.43 1579.708,926.364 1564.428,924.975 1542.55,931.226 1562.344,935.567 
			1578.013,935.178 		"/>
		<polygon fill="#56614C" points="1594.974,940.43 1590.517,921.415 1576.897,911.647 1559.012,908.758 1542.73,912.986 
			1568.852,917.805 1584.064,925.594 		"/>
		<polygon fill="#56614C" points="1594.974,940.43 1579.494,938.352 1567.098,941.297 1559.516,950.026 1557.837,962.146 
			1565.673,952.6 1579.351,943.909 		"/>
	</g>
	<g>
		<polygon fill="#56614C" points="1595.05,940.43 1610.316,926.364 1625.596,924.975 1647.474,931.226 1627.679,935.567 
			1612.01,935.178 		"/>
		<polygon fill="#56614C" points="1595.05,940.43 1599.507,921.415 1613.127,911.647 1631.012,908.758 1647.293,912.986 
			1621.172,917.805 1605.959,925.594 		"/>
		<polygon fill="#56614C" points="1595.05,940.43 1610.53,938.352 1622.926,941.297 1630.508,950.026 1632.187,962.146 
			1624.351,952.6 1610.673,943.909 		"/>
	</g>
</g>
<rect x="1233.762" y="1010.302" transform="matrix(0.9555 -0.295 0.295 0.9555 -243.0663 413.9097)" fill="#423934" width="33.397" height="4.698"/>
<rect x="1233.762" y="1010.302" transform="matrix(0.9736 0.2284 -0.2284 0.9736 264.4006 -258.8833)" fill="#534741" width="33.397" height="4.698"/>
<polygon fill="#FFF1AD" points="1250.377,1010.218 1236.176,1003.031 1233.262,995.488 1237.976,986.66 1240.89,989.317 
	1244.147,974.917 1245.862,981.26 1250.377,965.489 1256.405,984.346 1258.205,979.546 1261.547,989.917 1264.633,987.089 
	1267.254,999.174 "/>
<polygon fill="#FFC74D" points="1250.461,1008.224 1241.73,1000.146 1244.856,998.726 1245.735,994.265 1248.455,995.126 
	1250.461,990.102 1252.781,995.913 1254.796,993.939 1255.181,998.157 1257.653,999.163 "/>
<polygon fill="#BDCDD9" points="679.773,716 600,717.577 600,718.311 679.767,719.47 771.031,718 "/>
<polygon fill="#BDCDD9" points="679.773,801 600,802.577 600,803.311 679.767,804.47 771.031,803 "/>
</svg>
