<svg xmlns="http://www.w3.org/2000/svg" viewBox="0 0 200 116" class="isologo"><g class="lettering"><path d="M21.277 87.337l-7.092 4.095-7.092 4.095L0 99.62l7.093 4.096 7.092 4.095 7.092 4.095L28.37 116l7.09-4.095 7.093-4.094 7.093-4.094-7.093-4.095-7.092 4.096-7.09 4.095-7.093-4.094-7.092-4.095 7.092-4.093 7.092-4.095-7.093-4.095zM49.646 70.96l-7.093 4.093-7.092 4.095-7.09 4.095 7.09 4.094 7.093 4.095 7.093 4.095 7.092 4.094 7.092-4.093-7.092-4.095 7.092-4.095 7.092 4.095 7.092-4.095-7.092-4.094-7.092-4.095-7.092-4.095-7.092-4.094zm0 8.188l7.092 4.095-7.092 4.094-7.093-4.094 7.093-4.095zM86.525 49.666l-7.092 4.095-7.093 4.096-7.092 4.094-8.51 4.914c9.524 5.5 19.585 11.307 28.368 16.38l7.093-4.096L70.92 66.864l4.255-2.457c7.287 3.874 15.145 8.685 21.277 12.284l7.092-4.094L83.688 61.13l-1.418-.818 4.255-2.456 7.092 4.094 7.092 4.095 7.09 4.095 7.094-4.095-7.093-4.095-7.09-4.094-7.093-4.095zM114.894 33.287l-7.092 4.095-7.093 4.095-7.093 4.095 7.092 4.094 7.092 4.095 7.092 4.096 7.092 4.094 7.092-4.094-7.092-4.095 7.092-4.094 7.092-4.094-7.092-4.095-7.092-4.095-7.092-4.095zm0 8.19l7.092 4.095-7.092 4.094-7.092-4.094 7.092-4.095zM143.262 16.91l-7.092 4.093 7.092 4.095 7.093 4.095 7.092 4.094-7.092 4.095-4.256-2.457-7.093 4.095 4.255 2.457 4.256 2.457 2.837 1.638 7.092-4.095 7.092-4.095 7.09-4.095-7.09-4.094-7.093-4.095-7.092-4.095zM171.63.53l-7.09 4.095-7.093 4.094-7.092 4.094 7.092 4.095 4.255 2.456 5.674 3.275 7.092-4.093 7.092-4.095 4.256 2.457-7.093 4.093-7.092 4.095 7.093 4.095 7.093-4.095 7.092-4.095L200 16.91l-7.092-4.096-4.256-2.457-5.673-3.275-7.093 4.094-7.093 4.095-4.255-2.456 7.09-4.095 7.093-4.095L171.63.53z"/></g><g class="lettering-shadow-right"><path d="M107.8 45.57v1.64l7.094 4.094v-1.638zM171.63.53v1.638l5.675 3.276 1.418-.82zM182.98 7.08v1.64l15.602 9.008 1.418-.82zM164.54 12.814v1.638l4.254 2.457v-1.64zM143.262 16.91v1.637l26.95 15.56 1.42-.82zM146.1 34.925v1.638l4.255 2.457v-1.638zM114.894 33.287v1.638l19.858 11.465 1.418-.82zM121.986 53.76v1.64l5.674 3.274 1.418-.818zM86.525 49.666v1.638l26.95 15.56 1.42-.82zM70.922 66.864v1.638L90.78 79.967l1.42-.82zM82.27 60.312v1.638l19.858 11.465 1.418-.82zM49.645 70.96v1.636l26.95 15.56 1.42-.82zM42.553 83.243v1.637l7.092 4.095v-1.638zM56.738 91.432v1.638l5.673 3.276 1.42-.82zM21.277 87.337v1.638l5.673 3.276 1.42-.818zM14.184 99.62v1.64l14.185 8.188v-1.637zM42.553 99.62v1.64l5.674 3.275 1.418-.82z"/><path d="M107.8 45.57v1.64l7.094 4.094v-1.638z"/></g><g class="lettering-shadow-top"><path d="M171.63 2.168V.53l-21.275 12.284 1.418.82zM182.98 8.72V7.08l-14.186 8.19v1.64zM185.816 18.547V16.91l-14.185 8.188 1.42.82zM157.447 34.925v-1.638l-7.092 4.095v1.638zM146.1 36.563v-1.638l-7.093 4.095 1.42.82zM143.262 18.547V16.91l-7.092 4.093 1.42.82zM114.894 34.925v-1.638L93.617 45.57l1.418.82zM121.986 47.21v-1.64l-7.092 4.096v1.638zM86.525 51.304v-1.638L56.738 66.864l1.418.82zM49.645 72.596V70.96L28.37 83.242l1.417.818zM56.738 84.88v-1.637l-7.093 4.094v1.638zM21.277 88.975v-1.638L0 99.62l1.42.82zM42.553 101.26v-1.64l-14.184 8.19v1.638z"/></g></svg>
