<svg xmlns="http://www.w3.org/2000/svg" width="280mm" height="219326.786" viewBox="0 0 992.12598 205.61886"><g fill="#000" font-size="40" font-family="Serif" letter-spacing="0" word-spacing="0"><g style="line-height:125%"><path d="M63.388 146.29v-6.182H74.47V65.452H63.388v-6.24H97.39v6.24H86.31v73.665h39.777v-14.582h7.174v21.756H63.39zM185.112 141.74q14.29 0 21.58-9.797 7.29-9.857 7.29-29.104 0-19.307-7.29-29.106-7.29-9.856-21.58-9.856-14.348 0-21.64 9.856-7.29 9.8-7.29 29.105 0 19.246 7.29 29.103 7.292 9.798 21.64 9.798zm0 6.242q-8.865 0-16.33-2.916-7.408-2.916-13.066-8.574-6.532-6.532-9.74-14.814-3.15-8.283-3.15-18.84 0-10.556 3.15-18.838 3.208-8.34 9.74-14.873 5.716-5.716 13.065-8.574 7.35-2.916 16.332-2.916 18.956 0 30.62 12.423Q227.4 82.483 227.4 102.84q0 10.44-3.208 18.838-3.208 8.34-9.74 14.814-5.716 5.716-13.065 8.632-7.35 2.858-16.273 2.858zM283.098 141.74q14.29 0 21.58-9.797 7.29-9.857 7.29-29.104 0-19.307-7.29-29.106-7.29-9.856-21.58-9.856-14.348 0-21.64 9.856-7.29 9.8-7.29 29.105 0 19.246 7.29 29.103 7.292 9.798 21.64 9.798zm0 6.242q-8.866 0-16.33-2.916-7.408-2.916-13.066-8.574-6.532-6.532-9.74-14.814-3.15-8.283-3.15-18.84 0-10.556 3.15-18.838 3.208-8.34 9.74-14.873 5.716-5.716 13.065-8.574 7.35-2.916 16.33-2.916 18.956 0 30.62 12.423 11.666 12.423 11.666 32.78 0 10.44-3.207 18.838-3.208 8.34-9.74 14.814-5.717 5.716-13.065 8.632-7.348 2.858-16.272 2.858zM338.682 146.29v-6.182h11.08V65.452h-11.08v-6.24h34.003v6.24h-11.082v32.954l37.503-32.954h-9.448v-6.24h28.93v6.24h-9.8L371.402 98.29l41.82 41.818h9.914v6.183h-20.24l-41.293-41.352v35.17h11.082v6.183h-34.003z" style="-inkscape-font-specification:Serif"/></g><g style="line-height:125%" font-weight="bold"><path d="M450.407 146.29v-7.057h7.115l32.78-80.02h13.94l32.836 80.02h8.282v7.058h-40.77v-7.057h8.516l-7.174-17.79h-32.72l-7.29 17.79h10.38v7.058h-25.895zm25.663-31.903h27.004L489.66 81.083l-13.59 33.304zM549.56 146.29v-7.057h11.14V66.27h-11.14V59.21h44.793v7.057h-11.2v29.278H617.8v-29.28h-11.14v-7.056h44.793v7.057h-11.2v72.963h11.2v7.058H606.66v-7.057h11.14v-35.695h-34.646v35.695h11.2v7.058h-44.795zM662.476 146.29v-7.057h11.14V66.27h-11.14V59.21h78.272v20.53h-8.05v-12.54h-36.627V95.14h22.806V84.058h7.99v30.096h-7.99v-11.082H696.07V138.3h37.738v-12.54h7.99v20.53h-79.322zM746.93 146.29v-7.057h7.116l32.78-80.02h13.94l32.836 80.02h8.282v7.058h-40.77v-7.057h8.516l-7.174-17.79h-32.72l-7.29 17.79h10.38v7.058h-25.895zm25.664-31.903h27.004l-13.415-33.304-13.59 33.304zM879.678 139.233h8.107q13.648 0 19.948-8.748 6.357-8.75 6.357-27.82 0-18.957-6.3-27.647-6.298-8.75-20.005-8.75h-8.107v72.965zm-33.595 7.058v-7.057h11.14V66.27h-11.14V59.21h44.677q23.447 0 35.87 11.198 12.423 11.198 12.423 32.254 0 21.172-12.48 32.428-12.425 11.2-35.813 11.2h-44.677z" style="-inkscape-font-specification:Serif"/></g></g><path fill="none" stroke="#000" stroke-width="4.47936" d="M2.24 2.238H989.89v201.138H2.24z"/></svg>
