<svg xmlns="http://www.w3.org/2000/svg" xmlns:xlink="http://www.w3.org/1999/xlink" width="1024" height="768" viewBox="0 0 1024 768.00001"><defs><linearGradient id="a"><stop offset="0" stop-color="#afe9dd"/><stop offset="1" stop-color="#6f918a"/></linearGradient><linearGradient gradientUnits="userSpaceOnUse" y2="796.005" x2="809.222" y1="125.395" x1="326.458" id="b" xlink:href="#a"/></defs><path fill="#28170b" d="M1.788 1.788h1020.424v764.424H1.788z"/><g fill="#fff" fill-rule="evenodd"><path d="M512 625.072l-207.567-119.84V281.535L512 401.374l207.567-119.84v223.7L512 625.07z"/><path d="M512 142.928l-207.567 119.84v223.698L512 366.626l207.567 119.84v-223.7L512 142.93z"/></g><path d="M180-91.11l-468.187 270.307v504.575L180 413.464l468.187 270.308V179.197L180-91.11z" fill="url(#b)" fill-rule="evenodd" transform="matrix(.42856 0 0 .42856 434.86 191.362)"/><path d="M512 501.39l200.647-115.844L512 269.703 311.356 385.546z" fill="#7aab36" fill-rule="evenodd"/><g class="lettering" fill="#eef4d7"><path d="M442.548 409.91l-6.088 3.516-6.087 3.515-6.088 3.515 6.088 3.515 6.087 3.515 6.088 3.515 6.088 3.515 6.088-3.515 6.088-3.515 6.087-3.515-6.088-3.515-6.088 3.515-6.088 3.515-6.088-3.515-6.088-3.515 6.088-3.514 6.088-3.514-6.088-3.515zM466.9 395.852l-6.088 3.515-6.088 3.514-6.088 3.516 6.088 3.515 6.088 3.516 6.087 3.515 6.087 3.515 6.088-3.514-6.088-3.514 6.088-3.515 6.088 3.516 6.088-3.515-6.087-3.514-6.088-3.515-6.088-3.513-6.088-3.515zm0 7.03l6.087 3.514-6.088 3.515-6.088-3.514 6.087-3.515zM498.556 377.575l-6.088 3.515-6.088 3.514-6.088 3.515-7.305 4.217c8.176 4.72 16.812 9.706 24.35 14.06l6.09-3.516-18.264-10.543 3.653-2.11c6.254 3.327 13 7.456 18.263 10.545l6.087-3.514-17.046-9.842-1.217-.703 3.653-2.11 6.088 3.516 6.088 3.514 6.087 3.515 6.087-3.516-6.088-3.515-6.088-3.516-6.088-3.514zM522.908 363.516l-6.09 3.514-6.086 3.515-6.088 3.515 6.088 3.515 6.087 3.515 6.088 3.514 6.087 3.515 6.088-3.516-6.088-3.514 6.088-3.515 6.088-3.515-6.087-3.515-6.088-3.515-6.087-3.514zm0 7.03l6.087 3.514-6.087 3.515-6.09-3.515 6.09-3.515zM547.258 349.456l-6.087 3.515 6.088 3.516 6.088 3.515 6.088 3.516-6.088 3.514-3.652-2.11-6.088 3.516 3.652 2.11 3.653 2.108 2.436 1.406 6.088-3.515 6.088-3.515 6.088-3.514-6.088-3.515-6.088-3.514-6.088-3.515zM571.61 335.397l-6.088 3.515-6.088 3.515-6.088 3.515 6.088 3.514 3.653 2.11 4.87 2.81 6.088-3.514 6.088-3.515 3.653 2.11-6.09 3.514-6.086 3.516 6.087 3.515 6.09-3.514 6.086-3.515 6.088-3.514-6.087-3.514-3.652-2.11-4.87-2.81-6.088 3.514-6.087 3.514-3.653-2.108 6.088-3.515 6.087-3.515-6.087-3.515z" fill-rule="evenodd"/></g><g fill="#6c5d53" fill-rule="evenodd" class="lettering-shadow-right"><path d="M516.82 374.06v1.406l6.087 3.515v-1.405zM571.61 335.397v1.406l4.87 2.812 1.218-.703zM581.35 341.02v1.407l13.393 7.732 1.218-.704zM565.522 345.942v1.405l3.653 2.11v-1.407zM547.258 349.456v1.406l23.134 13.356 1.218-.702zM549.694 364.92v1.407l3.652 2.11v-1.407zM522.907 363.516v1.405l17.046 9.843 1.218-.703zM528.995 381.09v1.405l4.87 2.812 1.218-.703zM498.556 377.575v1.406l23.134 13.357 1.217-.703zM485.163 392.337v1.406l17.046 9.84 1.216-.702zM494.903 386.713v1.406l17.046 9.84 1.217-.702zM466.9 395.852v1.406l23.133 13.356 1.218-.703zM460.81 406.396v1.406l6.09 3.515v-1.406zM472.987 413.426v1.406l4.87 2.81 1.218-.7zM442.548 409.91v1.407l4.87 2.812 1.218-.704zM436.46 420.455v1.406l12.176 7.03v-1.405zM460.81 420.455v1.406l4.872 2.813 1.217-.703z"/><path d="M516.82 374.06v1.406l6.087 3.515v-1.405z"/></g><g class="lettering-shadow-top" fill="#483e37" fill-rule="evenodd"><path d="M571.61 336.803v-1.406l-18.264 10.545 1.218.702zM581.35 342.427v-1.406l-12.175 7.03v1.406zM583.785 350.862v-1.406l-12.175 7.03 1.217.703zM559.434 364.92v-1.404l-6.088 3.514v1.406zM549.694 366.327v-1.406l-6.088 3.516 1.217.703zM547.258 350.862v-1.406l-6.087 3.515 1.218.704zM522.907 364.92v-1.404l-18.263 10.544 1.217.703zM528.995 375.466v-1.406l-6.088 3.515v1.406zM498.556 378.98v-1.405l-25.57 14.762 1.22.703zM466.9 397.258v-1.406l-18.264 10.544 1.217.703zM472.987 407.802v-1.406l-6.088 3.515v1.407zM442.548 411.317v-1.406l-18.263 10.545 1.217.703zM460.81 421.86v-1.405l-12.174 7.03v1.406z"/></g><path d="M712.647 385.546v114.3L512 615.687v-114.3z" fill="#6c6753" fill-rule="evenodd"/><path d="M311.355 385.546v114.3L512 615.687v-114.3z" fill="#918a6f" fill-rule="evenodd"/><g transform="matrix(.38614 0 0 .38614 64.854 180.554)"><ellipse ry="27.733" rx="62.816" cy="496.267" cx="830.922" fill="#414141" fill-opacity=".2"/><g fill-rule="evenodd"><path d="M782.887 492l13.856 8V380l-13.856-8z" fill="#a46626"/><path d="M810.6 492l-13.857 8V380l13.857-8z" fill="#714a23"/></g><g fill-rule="evenodd"><path d="M900.666 360l-103.923 60-103.923-60 103.923-60z" fill="#8dc63f"/><path d="M900.666 376v-16l-103.923 60v16z" fill="#3c6128"/><path d="M692.82 376v-16l103.923 60v16z" fill="#72a74b"/><path d="M872.954 360l-76.21 44v-16l76.21-44z" fill="#3c6128"/><path d="M720.533 360l76.21 44v-16l-76.21-44z" fill="#72a74b"/><path d="M845.24 344l-48.497 28v-16l48.498-28z" fill="#3c6128"/><path d="M748.246 344l48.497 28v-16l-48.497-28z" fill="#72a74b"/><path d="M817.528 328l-20.785 12v-16l20.785-12z" fill="#3c6128"/><path d="M775.96 328l20.783 12v-16l-20.784-12z" fill="#72a74b"/></g></g><path d="M557.08 455.087a24.256 10.71 0 0 0-24.256 10.71 24.256 10.71 0 0 0 22.344 10.666l24.724-14.274a24.256 10.71 0 0 0-22.813-7.103z" fill="#414141" fill-opacity=".2"/><g fill-rule="evenodd"><path d="M538.53 464.15l5.35 3.088V420.9l-5.35-3.088z" fill="#a46626"/><path d="M549.232 464.15l-5.35 3.088V420.9l5.35-3.088z" fill="#714a23"/></g><g fill-rule="evenodd"><path d="M584.01 413.18l-40.13 23.167-40.128-23.168 40.13-23.17z" fill="#8dc63f"/><path d="M584.01 419.357v-6.178l-40.13 23.167v6.178z" fill="#3c6128"/><path d="M503.752 419.357v-6.178l40.13 23.167v6.178z" fill="#72a74b"/><path d="M573.31 413.18l-29.43 16.99v-6.18L573.31 407z" fill="#3c6128"/><path d="M514.453 413.18l29.428 16.99v-6.18L514.454 407z" fill="#72a74b"/><path d="M562.608 407l-18.727 10.812v-6.178l18.728-10.812z" fill="#3c6128"/><path d="M525.154 407l18.727 10.812v-6.178l-18.726-10.812z" fill="#72a74b"/><path d="M551.907 400.822l-8.026 4.634v-6.178l8.027-4.634z" fill="#3c6128"/><path d="M535.855 400.822l8.026 4.634v-6.178l-8.025-4.634z" fill="#72a74b"/></g><g transform="matrix(.38614 0 0 .38614 319.23 189.654)"><ellipse cx="830.922" cy="496.267" rx="62.816" ry="27.733" fill="#414141" fill-opacity=".2"/><g fill-rule="evenodd"><path d="M782.887 492l13.856 8V380l-13.856-8z" fill="#a46626"/><path d="M810.6 492l-13.857 8V380l13.857-8z" fill="#714a23"/></g><g fill-rule="evenodd"><path d="M900.666 360l-103.923 60-103.923-60 103.923-60z" fill="#8dc63f"/><path d="M900.666 376v-16l-103.923 60v16z" fill="#3c6128"/><path d="M692.82 376v-16l103.923 60v16z" fill="#72a74b"/><path d="M872.954 360l-76.21 44v-16l76.21-44z" fill="#3c6128"/><path d="M720.533 360l76.21 44v-16l-76.21-44z" fill="#72a74b"/><path d="M845.24 344l-48.497 28v-16l48.498-28z" fill="#3c6128"/><path d="M748.246 344l48.497 28v-16l-48.497-28z" fill="#72a74b"/><path d="M817.528 328l-20.785 12v-16l20.785-12z" fill="#3c6128"/><path d="M775.96 328l20.783 12v-16l-20.784-12z" fill="#72a74b"/></g></g><path d="M311.355 453.508L512 569.35v46.338L311.356 499.845z" fill="#2b1100" fill-rule="evenodd"/><path d="M712.647 453.508L512 569.35v46.338l200.647-115.843z" fill="#28170b" fill-rule="evenodd"/><path d="M311.355 453.508v30.89L512 600.243v-30.89z" fill="#6c5d53" fill-rule="evenodd"/><path d="M712.647 453.508v30.89L512 600.243v-30.89z" fill="#483e37" fill-rule="evenodd"/><path d="M712.647 385.546v15.446L512 516.835V501.39z" fill="#454837" fill-rule="evenodd"/><path d="M311.355 385.546v15.446L512 516.835V501.39z" fill="#676c53" fill-rule="evenodd"/><text style="line-height:125%" x="389.939" y="386.272" font-size="40" font-family="Sans" letter-spacing="0" word-spacing="0" transform="translate(0 -284.362)"><tspan x="389.939" y="386.272" style="-inkscape-font-specification:SG12" font-family="SG12" fill="#fff">CAMPJS VI</tspan></text><text style="line-height:125%" x="390.799" y="987.298" font-size="27.895" font-family="Sans" letter-spacing="0" word-spacing="0" fill="#fff" transform="translate(0 -284.362)"><tspan x="390.799" y="987.298">Nov 20 - 23 2015</tspan></text><text style="line-height:125%" x="386.286" y="1018.776" font-size="19.896" font-family="Sans" letter-spacing="0" word-spacing="0" fill="#fff" transform="translate(0 -284.362)"><tspan x="386.286" y="1018.776">Springbrook, Queensland</tspan></text></svg>
