<svg xmlns="http://www.w3.org/2000/svg" xmlns:xlink="http://www.w3.org/1999/xlink" width="280mm" height="307163.203" viewBox="0 0 992.12598 287.9655"><g transform="matrix(3.53395 0 0 3.53395 -497.734 -2366.8)"><path d="M222.076 730.487c-1.75-.4-3.61-.656-5.487-.656-3.218 0-6.142.56-8.3 1.457-.24.12-.406.37-.406.65 0 .104.022.21.065.295.25.738-.167 1.536-2.254 2-3.096.677-5.05 3.875-6.168 4.93-1.314 1.248-5.02 2.014-4.463 1.266.437-.576 2.106-2.388 3.118-4.346.91-1.748 1.72-2.247 2.832-3.918.33-.49 1.594-2.21 1.963-3.57.413-1.33.274-2.998.434-3.684.228-.99 1.16-3.137 1.232-4.355.04-.68-2.866.984-4.245.984-1.38 0-2.725-.828-3.956-.884-1.523-.074-2.505 1.173-3.887.95-.785-.122-1.453-.814-2.825-.864-1.96-.074-4.36 1.087-8.855.945-4.426-.144-8.514-5.595-9.07-6.46-.656-1.013-1.456-1.013-2.324-.212-.87.79-1.95.166-2.25-.367-.582-1.015-2.133-3.98-4.537-4.604-3.324-.862-5.008 1.84-4.79 3.986.223 2.182 1.635 2.794 2.29 3.955.65 1.157.986 1.908 2.21 2.422.875.363 1.198.9.94 1.613-.228.62-1.133.766-1.733.794-1.265.06-2.152-.283-2.8-.696-.752-.483-1.368-1.148-2.02-2.277-.763-1.25-1.96-1.79-3.355-1.79-.665 0-1.29.175-1.84.455-2.186 1.142-4.79 1.813-7.59 1.813l-3.164.003c6.06 17.966 23.06 30.9 43.08 30.9 15.99 0 30.05-8.25 38.152-20.733"/><path d="M193.93 726.327c.235.225.638.99.146 1.967-.277.517-.576.877-1.105 1.302-.643.514-1.89 1.105-3.6.015-.924-.58-.982-.778-2.253-.61-.908.116-1.268-.805-.945-1.565.33-.76 1.668-1.376 3.34-.397.753.44 1.923 1.376 2.945.545.427-.336.683-.563 1.27-1.247.028-.027.065-.043.11-.043.035 0 .07.012.094.034M180.385 682.008c-5.248.38-5.796.945-6.778 1.988-1.385 1.48-3.213-1.91-3.213-1.91-1.1-.232-2.425-1.998-1.708-3.645.708-1.63 2.013-1.144 2.42-.636.495.618 1.556 1.63 2.935 1.594 1.38-.037 2.968-.326 5.187-.326 2.247 0 3.755.837 3.838 1.56.077.613-.18 1.19-2.68 1.376m5.515-8.67h-.025c-.08 0-.144-.062-.144-.136 0-.055.035-.104.084-.126 1.02-.535 2.536-.966 4.272-1.138.52-.056 1.03-.087 1.52-.087h.262c2.915.07 5.244 1.226 5.21 2.587-.036 1.36-2.422 2.41-5.34 2.348-.938-.025-1.825-.16-2.585-.382-.095-.02-.157-.098-.157-.19 0-.09.062-.167.16-.19 1.813-.42 3.04-1.11 2.955-1.76-.116-.857-2.49-1.325-5.308-1.042-.31.032-.61.072-.902.118m23.668 20.378c-.45 1.508-1.086 3.438-3.93 4.897-.415.212-.57-.136-.382-.462 1.078-1.827 1.265-2.283 1.58-3 .433-1.055.667-2.554-.204-5.675-1.708-6.147-5.278-14.367-7.867-17.03-2.502-2.573-7.033-3.3-11.132-2.246-1.508.383-4.46 1.916-9.932.685-9.47-2.133-10.873 2.607-11.415 4.672-.548 2.065-1.853 7.935-1.853 7.935-.434 2.394-1.003 6.55 13.706 9.353 6.85 1.302 7.196 3.075 7.503 4.346.546 2.282 1.414 3.587 2.393 4.24.98.652 0 1.193-1.087 1.3-2.914.306-13.702-2.788-20.085-6.41-5.22-3.19-5.305-6.057-4.11-8.495-7.887-.852-13.805.74-14.876 4.472-1.844 6.402 14.084 17.34 32.22 22.83 19.034 5.76 38.61 1.737 40.785-10.22.987-5.432-3.59-9.452-11.312-11.19"/><g id="a"><path d="M228.91 728.064h.41l.62 1.016h.4l-.672-1.034c.348-.043.61-.225.61-.644 0-.464-.274-.667-.825-.667h-.896v2.345h.354v-1.016zm0-.3v-.73h.484c.244 0 .508.058.508.344 0 .363-.264.385-.566.385h-.425z"/><path d="M231.628 727.91c0 1.266-1.028 2.294-2.296 2.294-1.268 0-2.3-1.028-2.3-2.293 0-1.264 1.032-2.298 2.3-2.298 1.268 0 2.296 1.034 2.296 2.3m-2.296-1.89c-1.046 0-1.893.842-1.893 1.892 0 1.037.846 1.88 1.892 1.88 1.04 0 1.887-.843 1.887-1.88 0-1.05-.847-1.893-1.888-1.893"/></g><path d="M252.54 708.666c0-4.168-.09-7.23-.257-10h6.814l.296 5.912h.22c1.534-4.383 5.166-6.617 8.524-6.617.766 0 1.216.03 1.85.173v7.412c-.74-.148-1.428-.225-2.376-.225-3.748 0-6.352 2.385-7.057 5.953-.13.692-.203 1.526-.203 2.373v16.136h-7.876l.065-21.116zM279.49 716.342c.207 5.64 4.574 8.107 9.616 8.107 3.62 0 6.214-.57 8.59-1.44l1.166 5.412c-2.662 1.13-6.358 1.97-10.877 1.97-10.11 0-16.035-6.24-16.035-15.774 0-8.59 5.21-16.712 15.226-16.712 10.126 0 13.42 8.32 13.42 15.13 0 1.465-.13 2.635-.278 3.368l-20.827-.062zm13.69-5.482c.038-2.884-1.218-7.583-6.49-7.583-4.848 0-6.864 4.398-7.218 7.583h13.71zM326.65 716.29c0 .826-.062 1.595-.24 2.297-.792 3.407-3.58 5.598-6.8 5.598-4.955 0-7.793-4.176-7.793-9.892 0-5.774 2.81-10.246 7.88-10.246 3.542 0 6.078 2.5 6.77 5.528.136.637.182 1.425.182 2.053v4.663zm7.866-29.61l-7.867-2.22v17.556h-.13c-1.394-2.3-4.466-4.053-8.728-4.053-7.49 0-14.008 6.192-13.958 16.617 0 9.565 5.887 15.903 13.323 15.903 4.49 0 8.252-2.14 10.11-5.627h.14l.354 4.928h7.018c-.145-2.118-.262-5.54-.262-8.726v-34.38zM355.336 697.926c-2.373 0-4.5.683-6.282 1.785-1.853 1.085-3.358 2.762-4.257 4.492h-.126v-14.56l-3.08-.912v41.055h3.08V710.74c0-1.266.096-2.143.423-3.07 1.33-3.877 4.983-7.054 9.4-7.054 6.376 0 8.586 5.112 8.586 10.72v18.45h3.08V711c0-11.6-7.873-13.074-10.824-13.074M393.817 722.386c0 2.466.1 5.01.456 7.396h-2.838l-.455-4.46h-.145c-1.51 2.4-4.983 5.17-9.935 5.17-6.27 0-9.19-4.41-9.19-8.558 0-7.187 6.352-11.52 19.03-11.385v-.832c0-3.084-.6-9.227-7.975-9.18-2.727 0-5.568.73-7.824 2.32l-.978-2.238c2.85-1.93 6.325-2.693 9.145-2.693 8.99 0 10.71 6.747 10.71 12.31v12.15zm-3.077-9.248c-6.79-.194-15.75.834-15.75 8.31 0 4.475 2.955 6.488 6.202 6.488 5.192 0 8.147-3.213 9.224-6.245.222-.66.324-1.332.324-1.867v-6.685zM406.09 691.777v6.86h8.885v2.5h-8.885v20.242c0 3.96 1.228 6.44 4.58 6.44 1.603 0 2.742-.208 3.54-.488l.37 2.385c-1.005.425-2.418.748-4.298.748-2.275 0-4.162-.714-5.38-2.204-1.41-1.636-1.893-4.25-1.893-7.43v-19.694h-5.258v-2.5h5.257v-5.724l3.08-1.135z"/><use xlink:href="#a" height="30" width="93" transform="translate(189.957 .063)"/></g></svg>
