<svg xmlns="http://www.w3.org/2000/svg" width="1.73in" height="2in" viewBox="0 0 155.69999 180"><g fill="#fff" fill-rule="evenodd"><path d="M77.85 180L0 135.26V51.746l77.85 44.74 77.85-44.74v83.514L77.85 180z"/><path d="M77.852 0L0 44.74v83.514l36.076-20.733v17.644h93.768v-11.77l25.857 14.86V44.74L77.853 0z"/></g><path d="M77.85 3.505L2.945 46.752v80.73L77.85 84.233l74.907 43.247V46.753L77.85 3.505z" fill="#d3edff" fill-rule="evenodd"/><path d="M77.85 133.824l74.907-43.247L77.85 47.33 2.945 90.576z" fill="#7aab36" fill-rule="evenodd"/><g class="lettering" fill="#eef4d7"><path d="M51.922 99.673l-2.273 1.312-2.274 1.313-2.272 1.312 2.272 1.312 2.273 1.312 2.272 1.312 2.273 1.313 2.272-1.314 2.273-1.312 2.273-1.312-2.273-1.312-2.273 1.312-2.272 1.312-2.273-1.312-2.273-1.312 2.272-1.312 2.273-1.313-2.273-1.312zM61.013 94.425l-2.273 1.312-2.273 1.312-2.272 1.31 2.272 1.313 2.273 1.312 2.273 1.313 2.273 1.312 2.273-1.312-2.274-1.313 2.273-1.312 2.27 1.312 2.274-1.312-2.273-1.312-2.27-1.31-2.274-1.313-2.273-1.312zm0 2.624l2.273 1.31-2.273 1.313-2.273-1.312 2.273-1.31zM72.832 87.6l-2.273 1.313-2.274 1.313-2.273 1.312-2.727 1.574 9.09 5.25 2.274-1.313c-2.29-1.322-4.795-2.77-6.82-3.938l1.365-.787c2.335 1.242 4.853 2.783 6.818 3.937l2.273-1.313c-2.42-1.4-4.2-2.426-6.364-3.675l-.454-.262 1.364-.787 2.272 1.312 2.273 1.312 2.273 1.312 2.273-1.312-2.273-1.312-2.273-1.312-2.273-1.313zM81.923 82.352l-2.273 1.313-2.273 1.312-2.273 1.312 2.273 1.31 2.273 1.313 2.273 1.313 2.272 1.312 2.273-1.312-2.273-1.313 2.273-1.312 2.273-1.31-2.272-1.313-2.273-1.312-2.272-1.313zm0 2.625l2.272 1.312-2.272 1.31-2.273-1.31 2.273-1.313zM91.014 77.104l-2.273 1.312 2.274 1.312 2.273 1.312 2.272 1.312-2.273 1.313-1.364-.788-2.273 1.312 1.364.787 1.363.787.91.525 2.272-1.313 2.272-1.312 2.273-1.313-2.273-1.312-2.273-1.312-2.273-1.312zM100.105 71.855l-2.273 1.312-2.273 1.312-2.273 1.31 2.272 1.314 1.363.787 1.818 1.05 2.274-1.312 2.273-1.312 1.363.788-2.272 1.312-2.273 1.312 2.273 1.312 2.272-1.312 2.273-1.312 2.273-1.312-2.273-1.313-1.363-.786-1.82-1.05-2.27 1.313-2.274 1.312-1.364-.79 2.273-1.31 2.273-1.313-2.273-1.312z" fill-rule="evenodd"/></g><g fill="#6c5d53" fill-rule="evenodd" class="lettering-shadow-right"><path d="M79.65 86.29v.524l2.273 1.312V87.6zM100.105 71.855v.525l1.818 1.05.455-.263zM103.74 73.954v.525l5 2.886.456-.262zM97.832 75.79v.526l1.364.788v-.525zM91.014 77.104v.524l8.636 4.987.455-.263zM91.923 82.877v.525l1.364.787v-.525zM81.923 82.352v.525l6.363 3.674.455-.26zM84.195 88.913v.525l1.82 1.05.453-.263zM72.832 87.6v.526l8.636 4.986.455-.262zM67.83 93.112v.525l6.365 3.674.455-.26zM71.468 91.013v.525l6.364 3.674.454-.263zM61.013 94.424v.525l8.637 4.986.454-.263zM58.74 98.36v.526l2.273 1.312v-.525zM63.286 100.985v.525l1.818 1.05.455-.262zM51.922 99.673v.525l1.818 1.05.455-.263zM49.65 103.61v.525l4.545 2.624v-.526zM58.74 103.61v.525l1.818 1.05.455-.263z"/><path d="M79.65 86.29v.524l2.273 1.312V87.6z"/></g><g class="lettering-shadow-top" fill="#483e37" fill-rule="evenodd"><path d="M100.105 72.38v-.525l-6.818 3.936.454.264zM103.74 74.48v-.526l-4.544 2.625v.524zM104.65 77.628v-.524l-4.545 2.624.454.262zM95.56 82.877v-.525l-2.273 1.313v.524zM91.923 83.402v-.525L89.65 84.19l.455.262zM91.014 77.628v-.524l-2.273 1.312.456.262zM81.923 82.877v-.525l-6.82 3.937.456.26zM84.195 86.814v-.525l-2.272 1.31v.526zM72.83 88.126V87.6l-9.544 5.512.454.263zM61.013 94.95v-.526l-6.818 3.937.454.263zM63.286 98.886v-.525l-2.273 1.313v.525zM51.922 100.198v-.525l-6.818 3.937.454.262zM58.74 104.135v-.525l-4.545 2.624v.525z"/></g><path d="M152.757 90.577v42.67L77.85 176.495v-42.67z" fill="#6c6753" fill-rule="evenodd"/><path d="M2.944 90.577v42.67l74.907 43.248v-42.67z" fill="#918a6f" fill-rule="evenodd"/><g transform="matrix(.14416 0 0 .14416 -89.083 14.047)"><ellipse cx="830.922" cy="496.267" rx="62.816" ry="27.733" fill="#414141" fill-opacity=".2"/><g fill-rule="evenodd"><path d="M782.887 492l13.856 8V380l-13.856-8z" fill="#a46626"/><path d="M810.6 492l-13.857 8V380l13.857-8z" fill="#714a23"/></g><g fill-rule="evenodd"><path d="M900.666 360l-103.923 60-103.923-60 103.923-60z" fill="#8dc63f"/><path d="M900.666 376v-16l-103.923 60v16z" fill="#3c6128"/><path d="M692.82 376v-16l103.923 60v16z" fill="#72a74b"/><path d="M872.954 360l-76.21 44v-16l76.21-44z" fill="#3c6128"/><path d="M720.533 360l76.21 44v-16l-76.21-44z" fill="#72a74b"/><path d="M845.24 344l-48.497 28v-16l48.498-28z" fill="#3c6128"/><path d="M748.246 344l48.497 28v-16l-48.497-28z" fill="#72a74b"/><path d="M817.528 328l-20.785 12v-16l20.785-12z" fill="#3c6128"/><path d="M775.96 328l20.783 12v-16l-20.784-12z" fill="#72a74b"/></g></g><path d="M94.68 116.54a9.055 3.998 0 0 0-9.055 3.997 9.055 3.998 0 0 0 8.342 3.982l9.23-5.33a9.055 3.998 0 0 0-8.517-2.65z" fill="#414141" fill-opacity=".2"/><g fill-rule="evenodd"><path d="M87.755 119.922l1.998 1.153v-17.3l-1.998-1.152z" fill="#a46626"/><path d="M91.75 119.922l-1.997 1.153v-17.3l1.997-1.152z" fill="#714a23"/></g><g fill-rule="evenodd"><path d="M104.734 100.893l-14.98 8.65-14.983-8.65 14.983-8.65z" fill="#8dc63f"/><path d="M104.734 103.2v-2.307l-14.98 8.65v2.306z" fill="#3c6128"/><path d="M74.77 103.2v-2.307l14.983 8.65v2.306z" fill="#72a74b"/><path d="M100.74 100.893l-10.987 6.343v-2.306l10.986-6.343z" fill="#3c6128"/><path d="M78.767 100.893l10.986 6.343v-2.306l-10.986-6.343z" fill="#72a74b"/><path d="M96.744 98.587l-6.99 4.036v-2.306l6.99-4.037z" fill="#3c6128"/><path d="M82.762 98.587l6.99 4.036v-2.306l-6.99-4.037z" fill="#72a74b"/><path d="M92.75 96.28l-2.997 1.73v-2.306l2.996-1.73z" fill="#3c6128"/><path d="M86.757 96.28l2.996 1.73v-2.306l-2.996-1.73z" fill="#72a74b"/></g><g transform="matrix(.14416 0 0 .14416 5.884 17.444)"><ellipse ry="27.733" rx="62.816" cy="496.267" cx="830.922" fill="#414141" fill-opacity=".2"/><g fill-rule="evenodd"><path d="M782.887 492l13.856 8V380l-13.856-8z" fill="#a46626"/><path d="M810.6 492l-13.857 8V380l13.857-8z" fill="#714a23"/></g><g fill-rule="evenodd"><path d="M900.666 360l-103.923 60-103.923-60 103.923-60z" fill="#8dc63f"/><path d="M900.666 376v-16l-103.923 60v16z" fill="#3c6128"/><path d="M692.82 376v-16l103.923 60v16z" fill="#72a74b"/><path d="M872.954 360l-76.21 44v-16l76.21-44z" fill="#3c6128"/><path d="M720.533 360l76.21 44v-16l-76.21-44z" fill="#72a74b"/><path d="M845.24 344l-48.497 28v-16l48.498-28z" fill="#3c6128"/><path d="M748.246 344l48.497 28v-16l-48.497-28z" fill="#72a74b"/><path d="M817.528 328l-20.785 12v-16l20.785-12z" fill="#3c6128"/><path d="M775.96 328l20.783 12v-16l-20.784-12z" fill="#72a74b"/></g></g><path d="M2.944 115.948l74.907 43.248v17.3l-74.906-43.25z" fill="#2b1100" fill-rule="evenodd"/><path d="M152.757 115.948L77.85 159.196v17.3l74.907-43.25z" fill="#28170b" fill-rule="evenodd"/><path d="M2.944 115.948v11.533l74.907 43.25v-11.534z" fill="#6c5d53" fill-rule="evenodd"/><path d="M152.757 115.948v11.533L77.85 170.73v-11.534z" fill="#483e37" fill-rule="evenodd"/><path d="M152.757 90.577v5.766L77.85 139.59v-5.766z" fill="#454837" fill-rule="evenodd"/><path d="M2.944 90.577v5.766L77.85 139.59v-5.766z" fill="#676c53" fill-rule="evenodd"/></svg>
