<svg xmlns="http://www.w3.org/2000/svg" width="1.73in" height="2in" viewBox="0 0 155.69999 180"><path d="M77.85 135.6l77.942-45-77.942-45-77.942 45z" fill="#7aab36" fill-rule="evenodd"/><g class="lettering" fill="#eef4d7"><path d="M50.87 100.065l-2.364 1.366-2.365 1.366-2.364 1.365 2.365 1.367 2.366 1.365 2.365 1.366 2.366 1.365 2.364-1.365 2.365-1.366 2.365-1.365-2.365-1.366-2.365 1.367-2.364 1.365-2.365-1.365-2.364-1.366 2.365-1.364 2.366-1.365-2.365-1.365zM60.33 94.604l-2.365 1.365-2.365 1.365-2.364 1.365 2.364 1.365 2.365 1.366 2.365 1.366 2.365 1.365 2.365-1.364-2.365-1.365 2.365-1.365 2.365 1.366 2.365-1.365-2.365-1.365-2.365-1.365-2.365-1.366-2.365-1.366zm0 2.73l2.365 1.366-2.365 1.365-2.365-1.365 2.365-1.365zM72.628 87.504l-2.365 1.365-2.365 1.365-2.365 1.365-2.838 1.64 9.46 5.46 2.364-1.365-7.095-4.096 1.42-.82c2.428 1.29 5.05 2.895 7.093 4.095l2.365-1.365-6.62-3.823-.474-.273 1.418-.82 2.364 1.366 2.365 1.365 2.365 1.366 2.365-1.365-2.365-1.365-2.365-1.365-2.365-1.366zM82.087 82.043l-2.365 1.365-2.365 1.365-2.365 1.366 2.365 1.364 2.365 1.365 2.365 1.365 2.365 1.365 2.365-1.365-2.365-1.366 2.365-1.366 2.365-1.365-2.365-1.367-2.365-1.365-2.365-1.365zm0 2.73l2.365 1.366-2.365 1.364-2.365-1.365 2.365-1.367zM91.547 76.58l-2.365 1.366 2.365 1.366 2.364 1.365 2.366 1.366-2.365 1.365-1.418-.82-2.364 1.366 1.42.82 1.417.82.946.545 2.366-1.367 2.365-1.365 2.366-1.365-2.365-1.366-2.364-1.365-2.365-1.366zM101.006 71.12l-2.365 1.365-2.364 1.365-2.364 1.366 2.364 1.365 1.42.82 1.89 1.093 2.366-1.366 2.365-1.365 1.42.82-2.366 1.364-2.364 1.366 2.365 1.365 2.366-1.365 2.365-1.366 2.366-1.365-2.365-1.364-1.418-.82-1.892-1.092-2.365 1.366-2.365 1.365-1.42-.82 2.366-1.365 2.365-1.365-2.364-1.365z" fill-rule="evenodd"/></g><g fill="#6c5d53" fill-rule="evenodd" class="lettering-shadow-right"><path d="M79.722 86.14v.545l2.365 1.365v-.546zM101.006 71.12v.546l1.892 1.092.473-.273zM104.79 73.304v.546l5.203 3.004.473-.273zM98.64 75.216v.546l1.42.82v-.547zM91.547 76.58v.547l8.986 5.19.473-.274zM92.493 82.59v.545l1.418.82v-.547zM82.087 82.043v.546l6.622 3.822.472-.273zM84.452 88.87v.546l1.892 1.092.473-.273zM72.628 87.504v.546l8.986 5.19.473-.275zM67.425 93.24v.545l6.62 3.823.474-.273zM71.21 91.054v.546l6.62 3.823.473-.273zM60.33 94.604v.546l8.987 5.188.473-.273zM57.965 98.7v.546l2.365 1.365v-.545zM62.695 101.43v.547l1.892 1.092.473-.274zM50.87 100.065v.546l1.893 1.094.473-.273zM48.506 104.16v.548l4.73 2.73v-.546zM57.965 104.16v.548l1.892 1.092.473-.273z"/><path d="M79.722 86.14v.545l2.365 1.365v-.546z"/></g><g class="lettering-shadow-top" fill="#483e37" fill-rule="evenodd"><path d="M101.006 71.666v-.546l-7.095 4.096.474.273zM104.79 73.85v-.546l-4.73 2.73v.547zM105.736 77.127v-.546l-4.73 2.732.473.273zM96.276 82.59v-.547l-2.365 1.365v.546zM92.493 83.135v-.546l-2.365 1.364.473.273zM91.547 77.127v-.546l-2.365 1.366.473.274zM82.087 82.59v-.547l-7.095 4.096.473.272zM84.452 86.685v-.546l-2.365 1.364v.546zM72.628 88.05v-.546l-9.933 5.735.473.272zM60.33 95.15v-.546L53.236 98.7l.473.273zM62.695 99.246V98.7l-2.365 1.365v.546zM50.87 100.61v-.545l-7.094 4.096.473.275zM57.965 104.708v-.547l-4.73 2.732v.546z"/></g><path d="M155.792 90.6V135L77.85 180v-44.4z" fill="#6c6753" fill-rule="evenodd"/><path d="M-.092 90.6V135l77.942 45v-44.4z" fill="#918a6f" fill-rule="evenodd"/><g transform="matrix(.15 0 0 .15 -95.85 10.97)"><ellipse cx="830.922" cy="496.267" rx="62.816" ry="27.733" fill="#414141" fill-opacity=".2"/><g fill-rule="evenodd"><path d="M782.887 492l13.856 8V380l-13.856-8z" fill="#a46626"/><path d="M810.6 492l-13.857 8V380l13.857-8z" fill="#714a23"/></g><g fill-rule="evenodd"><path d="M900.666 360l-103.923 60-103.923-60 103.923-60z" fill="#8dc63f"/><path d="M900.666 376v-16l-103.923 60v16z" fill="#3c6128"/><path d="M692.82 376v-16l103.923 60v16z" fill="#72a74b"/><path d="M872.954 360l-76.21 44v-16l76.21-44z" fill="#3c6128"/><path d="M720.533 360l76.21 44v-16l-76.21-44z" fill="#72a74b"/><path d="M845.24 344l-48.497 28v-16l48.498-28z" fill="#3c6128"/><path d="M748.246 344l48.497 28v-16l-48.497-28z" fill="#72a74b"/><path d="M817.528 328l-20.785 12v-16l20.785-12z" fill="#3c6128"/><path d="M775.96 328l20.783 12v-16l-20.784-12z" fill="#72a74b"/></g></g><path d="M95.36 117.615a9.422 4.16 0 0 0-9.42 4.16 9.422 4.16 0 0 0 8.68 4.143l9.603-5.545a9.422 4.16 0 0 0-8.862-2.758z" fill="#414141" fill-opacity=".2"/><g fill-rule="evenodd"><path d="M88.156 121.135l2.08 1.2v-18l-2.08-1.2z" fill="#a46626"/><path d="M92.313 121.135l-2.078 1.2v-18l2.078-1.2z" fill="#714a23"/></g><g fill-rule="evenodd"><path d="M105.823 101.335l-15.588 9-15.59-9 15.59-9z" fill="#8dc63f"/><path d="M105.823 103.735v-2.4l-15.588 9v2.4z" fill="#3c6128"/><path d="M74.646 103.735v-2.4l15.59 9v2.4z" fill="#72a74b"/><path d="M101.666 101.335l-11.43 6.6v-2.4l11.43-6.6z" fill="#3c6128"/><path d="M78.803 101.335l11.432 6.6v-2.4l-11.432-6.6z" fill="#72a74b"/><path d="M97.51 98.935l-7.275 4.2v-2.4l7.274-4.2z" fill="#3c6128"/><path d="M82.96 98.935l7.275 4.2v-2.4l-7.275-4.2z" fill="#72a74b"/><path d="M93.352 96.535l-3.117 1.8v-2.4l3.117-1.8z" fill="#3c6128"/><path d="M87.117 96.535l3.118 1.8v-2.4l-3.118-1.8z" fill="#72a74b"/></g><g transform="matrix(.15 0 0 .15 2.967 14.504)"><ellipse ry="27.733" rx="62.816" cy="496.267" cx="830.922" fill="#414141" fill-opacity=".2"/><g fill-rule="evenodd"><path d="M782.887 492l13.856 8V380l-13.856-8z" fill="#a46626"/><path d="M810.6 492l-13.857 8V380l13.857-8z" fill="#714a23"/></g><g fill-rule="evenodd"><path d="M900.666 360l-103.923 60-103.923-60 103.923-60z" fill="#8dc63f"/><path d="M900.666 376v-16l-103.923 60v16z" fill="#3c6128"/><path d="M692.82 376v-16l103.923 60v16z" fill="#72a74b"/><path d="M872.954 360l-76.21 44v-16l76.21-44z" fill="#3c6128"/><path d="M720.533 360l76.21 44v-16l-76.21-44z" fill="#72a74b"/><path d="M845.24 344l-48.497 28v-16l48.498-28z" fill="#3c6128"/><path d="M748.246 344l48.497 28v-16l-48.497-28z" fill="#72a74b"/><path d="M817.528 328l-20.785 12v-16l20.785-12z" fill="#3c6128"/><path d="M775.96 328l20.783 12v-16l-20.784-12z" fill="#72a74b"/></g></g><path d="M-.092 117l77.942 45v18L-.092 135z" fill="#2b1100" fill-rule="evenodd"/><path d="M155.792 117L77.85 162v18l77.942-45z" fill="#28170b" fill-rule="evenodd"/><path d="M-.092 117v12l77.942 45v-12z" fill="#6c5d53" fill-rule="evenodd"/><path d="M155.792 117v12L77.85 174v-12z" fill="#483e37" fill-rule="evenodd"/><path d="M155.792 90.6v6l-77.942 45v-6z" fill="#454837" fill-rule="evenodd"/><path d="M-.092 90.6v6l77.942 45v-6z" fill="#676c53" fill-rule="evenodd"/></svg>
