<svg xmlns="http://www.w3.org/2000/svg" width="60" height="65" viewBox="0 0 60 65" class="header-tree"><g transform="matrix(.28868 0 0 .28868 -41.756 -126.785)"><ellipse ry="27.733" rx="62.816" cy="636.629" cx="282.75" fill="#414141" fill-opacity=".2"/><g fill-rule="evenodd"><path d="M234.715 632.362l13.856 8v-120l-13.855-8z" fill="#a46626"/><path d="M262.428 632.362l-13.857 8v-120l13.858-8z" fill="#714a23"/></g><g fill-rule="evenodd"><path d="M352.495 500.362l-103.924 60-103.922-60 103.923-60z" fill="#8dc63f"/><path d="M352.494 516.362v-16l-103.923 60v16z" fill="#3c6128"/><path d="M144.648 516.362v-16l103.923 60v16z" fill="#72a74b"/><path d="M324.782 500.362l-76.21 44v-16l76.21-44z" fill="#3c6128"/><path d="M172.36 500.362l76.21 44v-16l-76.21-44z" fill="#72a74b"/><path d="M297.07 484.362l-48.5 28v-16l48.5-28z" fill="#3c6128"/><path d="M200.074 484.362l48.497 28v-16l-48.496-28z" fill="#72a74b"/><path d="M269.356 468.362l-20.785 12v-16l20.786-12z" fill="#3c6128"/><path d="M227.787 468.362l20.784 12v-16l-20.783-12z" fill="#72a74b"/></g></g></svg>
