<?xml version="1.0" encoding="UTF-8" standalone="no"?>
<!-- Created with Inkscape (http://www.inkscape.org/) -->

<svg
   xmlns:dc="http://purl.org/dc/elements/1.1/"
   xmlns:cc="http://creativecommons.org/ns#"
   xmlns:rdf="http://www.w3.org/1999/02/22-rdf-syntax-ns#"
   xmlns:svg="http://www.w3.org/2000/svg"
   xmlns="http://www.w3.org/2000/svg"
   xmlns:sodipodi="http://sodipodi.sourceforge.net/DTD/sodipodi-0.dtd"
   xmlns:inkscape="http://www.inkscape.org/namespaces/inkscape"
   width="56mm"
   height="80mm"
   viewBox="0 0 198.4252 283.46457"
   id="svg2"
   version="1.1"
   inkscape:version="0.91 r13725"
   sodipodi:docname="beer-label.svg"
   inkscape:export-filename="/home/damo/code/campjs/campjs-vi/src/svg/beer-label.png"
   inkscape:export-xdpi="400.04999"
   inkscape:export-ydpi="400.04999">
  <defs
     id="defs4" />
  <sodipodi:namedview
     id="base"
     pagecolor="#ffffff"
     bordercolor="#666666"
     borderopacity="1.0"
     inkscape:pageopacity="0.0"
     inkscape:pageshadow="2"
     inkscape:zoom="23.339778"
     inkscape:cx="95.370465"
     inkscape:cy="22.797272"
     inkscape:document-units="px"
     inkscape:current-layer="layer2"
     showgrid="false"
     inkscape:window-width="1916"
     inkscape:window-height="1030"
     inkscape:window-x="0"
     inkscape:window-y="48"
     inkscape:window-maximized="0" />
  <metadata
     id="metadata7">
    <rdf:RDF>
      <cc:Work
         rdf:about="">
        <dc:format>image/svg+xml</dc:format>
        <dc:type
           rdf:resource="http://purl.org/dc/dcmitype/StillImage" />
        <dc:title></dc:title>
      </cc:Work>
    </rdf:RDF>
  </metadata>
  <g
     inkscape:groupmode="layer"
     id="layer3"
     inkscape:label="label-background">
    <rect
       style="opacity:1;fill:#ffffb3;fill-opacity:1;stroke:none;stroke-width:5;stroke-miterlimit:4;stroke-dasharray:none"
       id="rect4552"
       width="198.4252"
       height="283.46457"
       x="-2.282811e-06"
       y="-0.16772647" />
  </g>
  <g
     inkscape:label="background"
     inkscape:groupmode="layer"
     id="layer1"
     transform="translate(0,-768.89764)"
     style="display:inline" />
  <g
     inkscape:groupmode="layer"
     id="layer2"
     inkscape:label="text"
     style="display:inline">
    <g
       id="g4239"
       transform="matrix(1.0003209,0,0,0.9442327,-0.03183502,6.5581338)">
      <rect
         y="81.184105"
         x="27.47599"
         height="162.57863"
         width="143.47321"
         id="rect4259"
         style="display:inline;opacity:1;fill:#ffffff;fill-opacity:1;stroke:none;stroke-width:1.02894175;stroke-miterlimit:4;stroke-dasharray:none;stroke-opacity:1" />
    </g>
    <g
       id="g4227"
       transform="translate(-1.5385524e-8,-2.7871109)">
      <g
         style="fill:#000000;fill-opacity:1"
         transform="matrix(1.2377211,0,0,1.2377211,6.1618179,-4.6014749)"
         id="g4261">
        <g
           id="text4155"
           style="font-style:normal;font-weight:normal;font-size:26.7066288px;line-height:125%;font-family:Sans;letter-spacing:0px;word-spacing:0px;fill:#000000;fill-opacity:1;stroke:none;stroke-width:1px;stroke-linecap:butt;stroke-linejoin:miter;stroke-opacity:1"
           transform="scale(1.0000052,0.99999481)">
          <path
             inkscape:connector-curvature="0"
             id="path4365"
             style="font-style:normal;font-variant:normal;font-weight:normal;font-stretch:normal;font-family:SG12;-inkscape-font-specification:SG12;fill:#000000;fill-opacity:1"
             d="m 17.716444,45.034062 0,-16.026586 2.673271,0 0,-2.66023 10.680043,0 0,2.66023 2.673271,0 0,5.346542 -5.346542,0 0,-2.673271 -5.333501,0 0,10.680044 5.333501,0 0,-2.660231 5.346542,0 0,5.333502 -2.673271,0 0,2.673271 -10.680043,0 0,-2.673271 -2.673271,0 z" />
          <path
             inkscape:connector-curvature="0"
             id="path4367"
             style="font-style:normal;font-variant:normal;font-weight:normal;font-stretch:normal;font-family:SG12;-inkscape-font-specification:SG12;fill:#000000;fill-opacity:1"
             d="m 36.442381,47.707333 0,-18.699857 2.673271,0 0,-2.66023 10.680043,0 0,2.66023 2.673271,0 0,18.699857 -5.346542,0 0,-5.346542 -5.333501,0 0,5.346542 -5.346542,0 z m 5.346542,-10.680044 5.333501,0 0,-5.346542 -5.333501,0 0,5.346542 z" />
          <path
             inkscape:connector-curvature="0"
             id="path4369"
             style="font-style:normal;font-variant:normal;font-weight:normal;font-stretch:normal;font-family:SG12;-inkscape-font-specification:SG12;fill:#000000;fill-opacity:1"
             d="m 55.168318,47.707333 0,-21.360087 18.699856,0 0,2.66023 2.660231,0 0,18.699857 -5.333502,0 0,-16.026586 -2.673271,0 0,16.026586 -5.346542,0 0,-16.026586 -2.66023,0 0,16.026586 -5.346542,0 z" />
          <path
             inkscape:connector-curvature="0"
             id="path4371"
             style="font-style:normal;font-variant:normal;font-weight:normal;font-stretch:normal;font-family:SG12;-inkscape-font-specification:SG12;fill:#000000;fill-opacity:1"
             d="m 79.214716,47.707333 0,-21.360087 13.353314,0 0,2.66023 2.673271,0 0,10.693084 -2.673271,0 0,2.660231 -8.006772,0 0,5.346542 -5.346542,0 z m 5.346542,-10.680044 5.333501,0 0,-5.346542 -5.333501,0 0,5.346542 z" />
          <path
             inkscape:connector-curvature="0"
             id="path4373"
             style="font-style:normal;font-variant:normal;font-weight:normal;font-stretch:normal;font-family:SG12;-inkscape-font-specification:SG12;fill:#000000;fill-opacity:1"
             d="m 97.888487,45.034062 0,-8.006773 5.346543,0 0,5.333502 5.3335,0 0,-16.013545 5.34654,0 0,18.686816 -2.67327,0 0,2.673271 -10.68004,0 0,-2.673271 -2.673273,0 z" />
          <path
             inkscape:connector-curvature="0"
             id="path4375"
             style="font-style:normal;font-variant:normal;font-weight:normal;font-stretch:normal;font-family:SG12;-inkscape-font-specification:SG12;fill:#000000;fill-opacity:1"
             d="m 116.61442,47.707333 0,-5.346542 10.68005,0 0,-2.660231 -8.00678,0 0,-2.673271 -2.67327,0 0,-8.019813 2.67327,0 0,-2.66023 13.35332,0 0,5.333501 -10.68004,0 0,2.673271 8.00677,0 0,2.673271 2.67327,0 0,8.006773 -2.67327,0 0,2.673271 -13.35332,0 z" />
        </g>
      </g>
      <g
         style="font-style:normal;font-weight:normal;font-size:6.66485548px;line-height:125%;font-family:Sans;letter-spacing:0px;word-spacing:0px;display:inline;fill:#000000;fill-opacity:1;stroke:none;stroke-width:1px;stroke-linecap:butt;stroke-linejoin:miter;stroke-opacity:1"
         id="text4293-6">
        <path
           d="m 31.894247,62.54102 c 0,1.465187 -0.605749,1.962212 -1.449655,1.962212 -0.471138,0 -0.766246,-0.326173 -1.035468,-0.590217 l 0,-2.25732 c 0.367591,-0.590216 0.616103,-0.828374 1.325399,-0.828374 0.880147,0 1.159724,0.657522 1.159724,1.713699 z m -3.292788,-1.097595 -0.0052,4.581944 c 0,0.471138 0.02589,0.968163 0.07248,1.346108 l 0.823197,-0.0466 c -0.03624,-0.352059 -0.08284,-0.786955 -0.08284,-1.273625 l 0,-1.071709 c 0.248512,0.160497 0.445251,0.326172 0.962985,0.326172 1.67228,0 2.33498,-1.123482 2.33498,-2.863068 0,-1.387527 -0.553975,-2.417817 -1.977744,-2.417817 -0.579861,0 -0.994049,0.181207 -1.320221,0.471138 -0.0052,-0.217449 -0.03106,-0.33135 -0.05695,-0.497025 l -0.849083,0.103547 c 0.05177,0.341704 0.09837,0.786955 0.09837,1.216674 l 0,0.124257 z"
           style="font-style:normal;font-variant:normal;font-weight:normal;font-stretch:normal;font-size:10.60318947px;font-family:'Fantasque Sans Mono';-inkscape-font-specification:'Fantasque Sans Mono';fill:#000000;fill-opacity:1"
           id="path4283" />
        <path
           d="M 35.347532,60.739307 C 35.15597,60.30441 34.84533,60.107671 34.529512,59.853982 l -0.538443,0.730004 c 0.320995,0.284754 0.528088,0.434897 0.528088,0.730005 l 0,3.95031 0.807665,0.0052 0,-3.137467 c 0.517734,-1.154547 1.175256,-1.340931 1.698167,-1.340931 0.476315,0 0.414187,0.315818 0.434897,0.735182 l 0.807664,0 0,-0.03106 c 0,-0.942276 -0.23298,-1.532492 -1.097595,-1.532492 -0.802488,0 -1.340931,0.186384 -1.822423,0.776601 z"
           style="font-style:normal;font-variant:normal;font-weight:normal;font-stretch:normal;font-size:10.60318947px;font-family:'Fantasque Sans Mono';-inkscape-font-specification:'Fantasque Sans Mono';fill:#000000;fill-opacity:1"
           id="path4285" />
        <path
           d="m 40.141747,62.266621 c 0.0052,-0.79731 0.538443,-1.49625 1.418591,-1.49625 0.704118,0 1.232206,0.528088 1.315044,1.36164 -0.735182,0.08284 -2.065758,0.129433 -2.733635,0.13461 z m 1.413414,-2.283206 c -1.465187,0 -2.231433,1.133837 -2.231433,2.614556 0,1.620507 0.755891,2.72328 2.298738,2.72328 1.232207,0 1.822423,-0.683408 2.034694,-0.916389 l -0.636813,-0.56433 c -0.201916,0.279577 -0.636812,0.688586 -1.377172,0.688586 -1.056177,0 -1.501428,-0.678231 -1.501428,-1.470364 0.921566,-0.01035 2.102,-0.07248 3.551654,-0.170852 0.0052,-0.04142 0.0052,-0.119079 0.0052,-0.222625 0,-0.714473 -0.191562,-2.681862 -2.143418,-2.681862 z"
           style="font-style:normal;font-variant:normal;font-weight:normal;font-stretch:normal;font-size:10.60318947px;font-family:'Fantasque Sans Mono';-inkscape-font-specification:'Fantasque Sans Mono';fill:#000000;fill-opacity:1"
           id="path4287" />
        <path
           d="m 48.368537,59.957528 c -0.476315,0 -0.79731,0.362414 -1.019936,0.771424 0,-0.362414 -0.295108,-0.771424 -0.79731,-0.771424 -0.377945,0 -0.828374,0.357237 -1.066531,0.771424 -0.01036,-0.238158 -0.08284,-0.714473 -0.160498,-0.880148 l -0.776601,0.207094 c 0.08801,0.253689 0.15532,0.512556 0.15532,0.994049 l 0.01553,4.219531 0.730005,0 0,-3.577541 c 0.320995,-0.704118 0.678232,-0.942276 0.926744,-0.942276 0.238157,0 0.248512,0.201916 0.248512,0.346882 l 0,4.172935 0.730005,0 0,-3.582718 c 0.320995,-0.698941 0.590216,-0.937099 0.838729,-0.937099 0.31064,0 0.331349,0.336527 0.331349,0.517734 l 0,0.06731 0,2.93555 0,0.01036 c 0,0.730005 0.517734,1.025113 0.885325,1.097596 L 49.725,64.689616 c -0.212271,-0.08284 -0.476315,-0.274399 -0.476315,-0.538443 l 0,-2.707748 c 0,-0.491848 -0.129434,-1.485897 -0.880148,-1.485897 z"
           style="font-style:normal;font-variant:normal;font-weight:normal;font-stretch:normal;font-size:10.60318947px;font-family:'Fantasque Sans Mono';-inkscape-font-specification:'Fantasque Sans Mono';fill:#000000;fill-opacity:1"
           id="path4289" />
        <path
           d="m 51.51636,57.99014 0,1.164901 1.216675,0 0,-1.164901 -1.216675,0 z m 0.538443,2.034694 c -0.538443,0 -1.10795,0.08284 -1.687812,0.217448 l 0.150143,0.735182 c 0.491847,-0.113901 1.082063,-0.144965 1.335753,-0.144965 l 0,3.370447 c 0,0.305463 0.04142,0.71965 0.481493,0.962985 0.227802,0.124256 0.62128,0.196739 1.061354,0.196739 0.64199,0 1.382349,-0.15532 1.8276,-0.522911 l -0.352059,-0.590217 c -0.357236,0.269222 -0.999226,0.377946 -1.480718,0.377946 -0.476316,0 -0.704118,-0.02071 -0.730005,-0.445251 0,0 -0.0052,-2.74399 -0.0052,-4.157403 l -0.600572,0 z"
           style="font-style:normal;font-variant:normal;font-weight:normal;font-stretch:normal;font-size:10.60318947px;font-family:'Fantasque Sans Mono';-inkscape-font-specification:'Fantasque Sans Mono';fill:#000000;fill-opacity:1"
           id="path4291" />
        <path
           d="m 60.074502,65.321251 0.424541,-0.605748 C 60.29195,64.549828 60.03826,64.301316 60.027906,64.032094 l 0,-4.043502 -0.81802,0 0,3.499881 c -0.196739,0.455606 -0.553975,0.610926 -0.79731,0.755892 -0.264044,0.160497 -0.476315,0.201916 -0.823197,0.217448 -0.212271,0 -0.476315,-0.04142 -0.548798,-0.09319 -0.113901,-0.08284 -0.227803,-0.217448 -0.258867,-0.393478 -0.01035,-1.894906 0.01553,-3.515413 -0.09837,-3.991728 l -0.828374,0.139788 c 0.139788,0.429719 0.103547,2.650798 0.119079,4.038324 0,0.424542 0.346881,0.71965 0.579861,0.880148 0.310641,0.212271 0.750715,0.217448 1.07171,0.217448 l 0.0466,0 c 0.7766,-0.01553 1.278802,-0.362414 1.713699,-0.807665 0.113901,0.445251 0.393477,0.657522 0.688586,0.869793 z"
           style="font-style:normal;font-variant:normal;font-weight:normal;font-stretch:normal;font-size:10.60318947px;font-family:'Fantasque Sans Mono';-inkscape-font-specification:'Fantasque Sans Mono';fill:#000000;fill-opacity:1"
           id="path4293" />
        <path
           d="m 64.832473,59.957528 c -0.476315,0 -0.79731,0.362414 -1.019936,0.771424 0,-0.362414 -0.295108,-0.771424 -0.79731,-0.771424 -0.377946,0 -0.828374,0.357237 -1.066532,0.771424 -0.01035,-0.238158 -0.08284,-0.714473 -0.160497,-0.880148 l -0.776601,0.207094 c 0.08801,0.253689 0.15532,0.512556 0.15532,0.994049 l 0.01553,4.219531 0.730005,0 0,-3.577541 c 0.320995,-0.704118 0.678231,-0.942276 0.926744,-0.942276 0.238157,0 0.248512,0.201916 0.248512,0.346882 l 0,4.172935 0.730005,0 0,-3.582718 c 0.320995,-0.698941 0.590216,-0.937099 0.838729,-0.937099 0.31064,0 0.331349,0.336527 0.331349,0.517734 l 0,0.06731 0,2.93555 0,0.01036 c 0,0.730005 0.517734,1.025113 0.885325,1.097596 l 0.315818,-0.688586 c -0.212271,-0.08284 -0.476315,-0.274399 -0.476315,-0.538443 l 0,-2.707748 c 0,-0.491848 -0.129434,-1.485897 -0.880148,-1.485897 z"
           style="font-style:normal;font-variant:normal;font-weight:normal;font-stretch:normal;font-size:10.60318947px;font-family:'Fantasque Sans Mono';-inkscape-font-specification:'Fantasque Sans Mono';fill:#000000;fill-opacity:1"
           id="path4295" />
        <path
           d="m 73.059266,63.659326 c 0,-0.610926 0.616103,-0.994049 1.320221,-0.999227 0.538444,0 0.921567,0.150143 1.216675,0.33135 l 0,0.491847 c -0.134611,0.212271 -0.678231,1.03029 -1.765473,1.03029 -0.481492,0 -0.771423,-0.31064 -0.771423,-0.85426 z m 3.349738,-0.03624 0,-1.708522 c 0,-1.164901 -0.807665,-1.967388 -2.060581,-1.967388 -0.926743,0 -1.620507,0.31064 -2.117531,1.252916 l 0.673054,0.424541 c 0.414187,-0.740359 0.740359,-0.895679 1.454832,-0.895679 0.880148,0 1.237384,0.471138 1.237384,1.449655 -0.279576,-0.170852 -0.605749,-0.264045 -1.258093,-0.264045 -0.610926,0 -1.133838,0.124257 -1.625685,0.626458 -0.305463,0.315818 -0.460783,0.776601 -0.460783,1.170079 0,0.859438 0.693764,1.589443 1.579088,1.589443 1.019936,0 1.548025,-0.450429 1.951857,-0.838729 0.09319,0.522911 0.403833,0.652345 0.673054,0.859438 l 0.429719,-0.616103 c -0.150143,-0.119079 -0.341704,-0.238158 -0.40901,-0.33135 -0.06731,-0.08801 -0.06731,-0.569507 -0.06731,-0.750714 z"
           style="font-style:normal;font-variant:normal;font-weight:normal;font-stretch:normal;font-size:10.60318947px;font-family:'Fantasque Sans Mono';-inkscape-font-specification:'Fantasque Sans Mono';fill:#000000;fill-opacity:1"
           id="path4297" />
        <path
           d="m 79.484344,57.876238 c -0.538443,0 -1.139014,0.01035 -1.718876,0.144966 l 0.144965,0.740359 c 0.315818,-0.07248 0.688586,-0.08802 0.983695,-0.08802 0.15532,0 0.295108,0.0052 0.383123,0.0052 l 0.01553,5.513865 c 0,0.305463 0.04142,0.71965 0.481492,0.962985 0.227803,0.124257 0.621281,0.196739 1.061355,0.196739 0.64199,0 1.382349,-0.15532 1.8276,-0.522911 l -0.352059,-0.590217 c -0.357236,0.269222 -0.999226,0.377946 -1.480719,0.377946 -0.476315,0 -0.704118,-0.02071 -0.730005,-0.445251 0,0 -0.01553,-4.88223 -0.01553,-6.295644 l -0.600571,0 z"
           style="font-style:normal;font-variant:normal;font-weight:normal;font-stretch:normal;font-size:10.60318947px;font-family:'Fantasque Sans Mono';-inkscape-font-specification:'Fantasque Sans Mono';fill:#000000;fill-opacity:1"
           id="path4299" />
        <path
           d="m 84.014516,62.54102 c 0,-1.237384 0.528089,-1.74994 1.672281,-1.74994 0.828374,0 0.978517,0.491847 1.035468,0.704118 l 0.79731,-0.31064 c -0.113902,-0.269222 -0.274399,-0.579862 -0.590217,-0.823197 -0.31064,-0.238158 -0.693763,-0.362414 -1.18561,-0.362414 -1.630862,0 -2.552428,0.64199 -2.552428,2.542073 0,1.030291 0.207093,1.827601 0.880147,2.350512 0.497025,0.372769 1.133837,0.414187 1.672281,0.414187 1.444477,0 1.925969,-0.911211 2.096822,-1.12866 l -0.652345,-0.471137 c -0.269222,0.450428 -0.657522,0.786955 -1.465187,0.786955 l -0.06731,0 c -0.569507,0 -1.641217,-0.03624 -1.641217,-1.951857 z"
           style="font-style:normal;font-variant:normal;font-weight:normal;font-stretch:normal;font-size:10.60318947px;font-family:'Fantasque Sans Mono';-inkscape-font-specification:'Fantasque Sans Mono';fill:#000000;fill-opacity:1"
           id="path4301" />
        <path
           d="m 91.697684,64.15635 c -0.258867,0.217448 -0.48667,0.300286 -0.880147,0.305463 -0.864616,0 -1.315044,-0.610926 -1.315044,-1.620507 0,-1.263271 0.320995,-2.117531 1.397881,-2.117531 0.916389,0 1.247739,0.755891 1.258093,1.708521 l 0,0.09319 c 0,0.766246 -0.124256,1.315044 -0.460783,1.630862 z m -0.890502,1.107951 0.01036,0 c 1.667103,0 2.164127,-1.330577 2.164127,-2.806118 0,-0.497025 -0.09319,-1.082064 -0.305463,-1.491074 -0.362414,-0.683408 -0.931921,-1.040645 -1.951857,-1.040645 -1.511782,0 -2.039871,1.428946 -2.039871,2.940729 0,1.449655 0.714473,2.39193 2.122709,2.397108 z"
           style="font-style:normal;font-variant:normal;font-weight:normal;font-stretch:normal;font-size:10.60318947px;font-family:'Fantasque Sans Mono';-inkscape-font-specification:'Fantasque Sans Mono';fill:#000000;fill-opacity:1"
           id="path4303" />
        <path
           d="m 97.625734,62.287331 0,1.90526 c 0,0.657522 0.383123,0.931921 0.79731,1.164902 l 0.455606,-0.605749 c -0.31064,-0.201916 -0.445251,-0.352059 -0.445251,-0.636813 0,-0.579862 0.0052,-0.978517 0.0052,-1.8276 l 0,-0.341705 c 0,-0.569507 -0.02589,-0.973339 -0.398655,-1.413413 -0.40901,-0.497024 -0.978517,-0.543621 -1.604975,-0.543621 -0.528088,0 -0.900857,0.201917 -1.237384,0.414188 l 0,-2.391931 -0.823197,0 c 0,0 0.0052,3.593073 0.0052,6.202452 0,0.398655 -0.01553,0.64199 -0.05695,1.014758 l 0.818019,0.04142 c 0.02589,-0.238158 0.05177,-0.616103 0.05177,-1.025113 l 0,-2.759522 c 0.160497,-0.320995 0.683408,-0.704118 1.20632,-0.704118 1.040645,0 1.227029,0.33135 1.227029,1.506606 z"
           style="font-style:normal;font-variant:normal;font-weight:normal;font-stretch:normal;font-size:10.60318947px;font-family:'Fantasque Sans Mono';-inkscape-font-specification:'Fantasque Sans Mono';fill:#000000;fill-opacity:1"
           id="path4305" />
        <path
           d="m 102.67364,64.15635 c -0.25886,0.217448 -0.48667,0.300286 -0.88014,0.305463 -0.86462,0 -1.31505,-0.610926 -1.31505,-1.620507 0,-1.263271 0.321,-2.117531 1.39788,-2.117531 0.91639,0 1.24774,0.755891 1.2581,1.708521 l 0,0.09319 c 0,0.766246 -0.12426,1.315044 -0.46079,1.630862 z m -0.8905,1.107951 0.0104,0 c 1.6671,0 2.16412,-1.330577 2.16412,-2.806118 0,-0.497025 -0.0932,-1.082064 -0.30546,-1.491074 -0.36241,-0.683408 -0.93192,-1.040645 -1.95186,-1.040645 -1.51178,0 -2.039867,1.428946 -2.039867,2.940729 0,1.449655 0.714477,2.39193 2.122707,2.397108 z"
           style="font-style:normal;font-variant:normal;font-weight:normal;font-stretch:normal;font-size:10.60318947px;font-family:'Fantasque Sans Mono';-inkscape-font-specification:'Fantasque Sans Mono';fill:#000000;fill-opacity:1"
           id="path4307" />
        <path
           d="m 106.92424,57.876238 c -0.53845,0 -1.13902,0.01035 -1.71888,0.144966 l 0.14497,0.740359 c 0.31581,-0.07248 0.68858,-0.08802 0.98369,-0.08802 0.15532,0 0.29511,0.0052 0.38312,0.0052 l 0.0155,5.513865 c 0,0.305463 0.0414,0.71965 0.4815,0.962985 0.2278,0.124257 0.62128,0.196739 1.06135,0.196739 0.64199,0 1.38235,-0.15532 1.8276,-0.522911 l -0.35206,-0.590217 c -0.35723,0.269222 -0.99922,0.377946 -1.48072,0.377946 -0.47631,0 -0.70411,-0.02071 -0.73,-0.445251 0,0 -0.0155,-4.88223 -0.0155,-6.295644 l -0.60057,0 z"
           style="font-style:normal;font-variant:normal;font-weight:normal;font-stretch:normal;font-size:10.60318947px;font-family:'Fantasque Sans Mono';-inkscape-font-specification:'Fantasque Sans Mono';fill:#000000;fill-opacity:1"
           id="path4309" />
        <path
           d="m 111.88413,57.99014 0,1.164901 1.21668,0 0,-1.164901 -1.21668,0 z m 0.53844,2.034694 c -0.53844,0 -1.10795,0.08284 -1.68781,0.217448 l 0.15014,0.735182 c 0.49185,-0.113901 1.08207,-0.144965 1.33576,-0.144965 l 0,3.370447 c 0,0.305463 0.0414,0.71965 0.48149,0.962985 0.2278,0.124256 0.62128,0.196739 1.06136,0.196739 0.64199,0 1.38234,-0.15532 1.8276,-0.522911 l -0.35206,-0.590217 c -0.35724,0.269222 -0.99923,0.377946 -1.48072,0.377946 -0.47632,0 -0.70412,-0.02071 -0.73001,-0.445251 0,0 -0.005,-2.74399 -0.005,-4.157403 l -0.60058,0 z"
           style="font-style:normal;font-variant:normal;font-weight:normal;font-stretch:normal;font-size:10.60318947px;font-family:'Fantasque Sans Mono';-inkscape-font-specification:'Fantasque Sans Mono';fill:#000000;fill-opacity:1"
           id="path4311" />
        <path
           d="m 116.94239,62.54102 c 0,-1.237384 0.52809,-1.74994 1.67228,-1.74994 0.82837,0 0.97852,0.491847 1.03547,0.704118 l 0.79731,-0.31064 c -0.11391,-0.269222 -0.2744,-0.579862 -0.59022,-0.823197 -0.31064,-0.238158 -0.69376,-0.362414 -1.18561,-0.362414 -1.63086,0 -2.55243,0.64199 -2.55243,2.542073 0,1.030291 0.20709,1.827601 0.88015,2.350512 0.49702,0.372769 1.13384,0.414187 1.67228,0.414187 1.44448,0 1.92597,-0.911211 2.09682,-1.12866 l -0.65234,-0.471137 c -0.26922,0.450428 -0.65753,0.786955 -1.46519,0.786955 l -0.0673,0 c -0.5695,0 -1.64121,-0.03624 -1.64121,-1.951857 z"
           style="font-style:normal;font-variant:normal;font-weight:normal;font-stretch:normal;font-size:10.60318947px;font-family:'Fantasque Sans Mono';-inkscape-font-specification:'Fantasque Sans Mono';fill:#000000;fill-opacity:1"
           id="path4313" />
        <path
           d="m 130.60539,62.79471 c 0,1.056177 -0.28476,1.713699 -1.1649,1.713699 -0.7093,0 -0.95263,-0.238158 -1.32023,-0.828374 l 0,-2.262497 c 0.26923,-0.264044 0.59022,-0.626458 1.06136,-0.626458 0.8439,0 1.42377,0.538443 1.42377,2.00363 z m 0.81284,0.09837 c 0,-1.739585 -0.63681,-2.904487 -2.30909,-2.904487 -0.51774,0 -0.74036,0.181207 -0.98888,0.367592 l 0,-1.051 c 0,-0.471138 -0.0259,-0.968163 -0.0725,-1.346108 l -0.8232,0.0466 c 0.0362,0.352059 0.0777,0.786955 0.0777,1.273625 0,1.449655 0.005,3.318674 0.005,4.607831 l 0,0.124257 c 0,0.429719 -0.0466,0.880147 -0.0984,1.221851 l 0.85426,0.09837 c 0.0259,-0.165675 0.0518,-0.279576 0.057,-0.497025 0.32618,0.289931 0.74036,0.471138 1.32023,0.471138 1.42376,0 1.97774,-1.025113 1.97774,-2.41264 z"
           style="font-style:normal;font-variant:normal;font-weight:normal;font-stretch:normal;font-size:10.60318947px;font-family:'Fantasque Sans Mono';-inkscape-font-specification:'Fantasque Sans Mono';fill:#000000;fill-opacity:1"
           id="path4315" />
        <path
           d="m 133.43739,62.266621 c 0.005,-0.79731 0.53844,-1.49625 1.41859,-1.49625 0.70412,0 1.23221,0.528088 1.31504,1.36164 -0.73518,0.08284 -2.06576,0.129433 -2.73363,0.13461 z m 1.41341,-2.283206 c -1.46519,0 -2.23143,1.133837 -2.23143,2.614556 0,1.620507 0.75589,2.72328 2.29874,2.72328 1.2322,0 1.82242,-0.683408 2.03469,-0.916389 l -0.63681,-0.56433 c -0.20192,0.279577 -0.63681,0.688586 -1.37717,0.688586 -1.05618,0 -1.50143,-0.678231 -1.50143,-1.470364 0.92156,-0.01035 2.102,-0.07248 3.55165,-0.170852 0.005,-0.04142 0.005,-0.119079 0.005,-0.222625 0,-0.714473 -0.19156,-2.681862 -2.14342,-2.681862 z"
           style="font-style:normal;font-variant:normal;font-weight:normal;font-stretch:normal;font-size:10.60318947px;font-family:'Fantasque Sans Mono';-inkscape-font-specification:'Fantasque Sans Mono';fill:#000000;fill-opacity:1"
           id="path4317" />
        <path
           d="m 138.49565,59.843627 -0.66787,0.497024 c 0.13461,0.129434 0.37276,0.476316 0.41418,0.58504 0.321,0.79731 1.36164,3.634491 1.36164,4.359319 0.5488,0 0.9837,-0.01553 1.27881,-0.383123 0.75071,-0.931921 1.52731,-2.614556 1.53767,-3.883004 0,-0.300286 -0.0104,-0.921566 -0.0259,-1.004404 l -0.78696,0.02071 c 0.0104,0.09319 0.0104,0.28993 0.0104,0.502201 0,0.170853 0,0.357237 -0.005,0.502202 -0.0311,1.071709 -0.67305,2.573137 -1.31504,3.313497 -0.057,-0.538443 -0.95781,-2.826827 -1.19079,-3.479172 -0.13461,-0.3883 -0.24851,-0.64199 -0.61093,-1.03029 z"
           style="font-style:normal;font-variant:normal;font-weight:normal;font-stretch:normal;font-size:10.60318947px;font-family:'Fantasque Sans Mono';-inkscape-font-specification:'Fantasque Sans Mono';fill:#000000;fill-opacity:1"
           id="path4319" />
        <path
           d="m 144.41335,62.266621 c 0.005,-0.79731 0.53844,-1.49625 1.41859,-1.49625 0.70412,0 1.23221,0.528088 1.31504,1.36164 -0.73518,0.08284 -2.06576,0.129433 -2.73363,0.13461 z m 1.41341,-2.283206 c -1.46519,0 -2.23143,1.133837 -2.23143,2.614556 0,1.620507 0.75589,2.72328 2.29874,2.72328 1.2322,0 1.82242,-0.683408 2.03469,-0.916389 l -0.63681,-0.56433 c -0.20192,0.279577 -0.63681,0.688586 -1.37717,0.688586 -1.05618,0 -1.50143,-0.678231 -1.50143,-1.470364 0.92156,-0.01035 2.102,-0.07248 3.55165,-0.170852 0.005,-0.04142 0.005,-0.119079 0.005,-0.222625 0,-0.714473 -0.19156,-2.681862 -2.14342,-2.681862 z"
           style="font-style:normal;font-variant:normal;font-weight:normal;font-stretch:normal;font-size:10.60318947px;font-family:'Fantasque Sans Mono';-inkscape-font-specification:'Fantasque Sans Mono';fill:#000000;fill-opacity:1"
           id="path4321" />
        <path
           d="m 150.59509,60.739307 c -0.19156,-0.434897 -0.5022,-0.631636 -0.81802,-0.885325 l -0.53845,0.730004 c 0.321,0.284754 0.52809,0.434897 0.52809,0.730005 l 0,3.95031 0.80767,0.0052 0,-3.137467 c 0.51773,-1.154547 1.17525,-1.340931 1.69816,-1.340931 0.47632,0 0.41419,0.315818 0.4349,0.735182 l 0.80767,0 0,-0.03106 c 0,-0.942276 -0.23298,-1.532492 -1.0976,-1.532492 -0.80249,0 -1.34093,0.186384 -1.82242,0.776601 z"
           style="font-style:normal;font-variant:normal;font-weight:normal;font-stretch:normal;font-size:10.60318947px;font-family:'Fantasque Sans Mono';-inkscape-font-specification:'Fantasque Sans Mono';fill:#000000;fill-opacity:1"
           id="path4323" />
        <path
           d="m 155.37895,63.659326 c 0,-0.610926 0.61611,-0.994049 1.32022,-0.999227 0.53845,0 0.92157,0.150143 1.21668,0.33135 l 0,0.491847 c -0.13461,0.212271 -0.67823,1.03029 -1.76547,1.03029 -0.4815,0 -0.77143,-0.31064 -0.77143,-0.85426 z m 3.34974,-0.03624 0,-1.708522 c 0,-1.164901 -0.80766,-1.967388 -2.06058,-1.967388 -0.92674,0 -1.62051,0.31064 -2.11753,1.252916 l 0.67305,0.424541 c 0.41419,-0.740359 0.74036,-0.895679 1.45483,-0.895679 0.88015,0 1.23739,0.471138 1.23739,1.449655 -0.27958,-0.170852 -0.60575,-0.264045 -1.25809,-0.264045 -0.61093,0 -1.13384,0.124257 -1.62569,0.626458 -0.30546,0.315818 -0.46078,0.776601 -0.46078,1.170079 0,0.859438 0.69376,1.589443 1.57909,1.589443 1.01993,0 1.54802,-0.450429 1.95185,-0.838729 0.0932,0.522911 0.40384,0.652345 0.67306,0.859438 l 0.42972,-0.616103 c -0.15015,-0.119079 -0.34171,-0.238158 -0.40901,-0.33135 -0.0673,-0.08801 -0.0673,-0.569507 -0.0673,-0.750714 z"
           style="font-style:normal;font-variant:normal;font-weight:normal;font-stretch:normal;font-size:10.60318947px;font-family:'Fantasque Sans Mono';-inkscape-font-specification:'Fantasque Sans Mono';fill:#000000;fill-opacity:1"
           id="path4325" />
        <path
           d="m 160.88245,65.662956 c 0,-0.326173 0.14497,-0.636813 0.4349,-0.750715 0.75589,-0.01035 1.051,-0.01035 1.0976,-0.01035 0.62645,0 1.39788,0.05695 1.39788,0.497024 0,0.859439 -0.71965,1.071709 -1.31505,1.071709 l -0.54362,0 c -0.68341,0 -1.07171,-0.15532 -1.07171,-0.807664 z m 1.23739,-3.277256 c -0.67306,0 -1.15455,-0.186384 -1.15455,-0.786955 0,-0.476315 0.53327,-0.854261 1.23738,-0.854261 0.65753,0 1.0976,0.201916 1.0976,0.869793 0,0.502202 -0.51256,0.771423 -1.18043,0.771423 z m -1.97257,-0.735182 c 0,0.372769 0.13979,0.693764 0.31582,0.890502 -0.21745,0.248513 -0.38312,0.559153 -0.38312,1.030291 0,0.403832 0.14496,0.771423 0.44007,0.988871 -0.28475,0.248513 -0.45043,0.616104 -0.45043,1.133838 0,1.082063 0.77142,1.584265 1.86384,1.584265 l 0.53327,0 c 1.26327,0 2.16413,-0.54362 2.16413,-1.884551 0,-0.983694 -0.89568,-1.289157 -1.86902,-1.289157 -0.13979,0 -0.80249,0.01035 -0.9371,0.01035 -0.65235,0 -0.93192,-0.217448 -0.93192,-0.610926 0,-0.212271 0.12425,-0.393477 0.22262,-0.507379 0.33653,0.129434 0.6627,0.165675 1.03029,0.165675 1.16491,0 1.96222,-0.590217 1.96222,-1.568734 0,-0.248512 -0.0207,-0.46596 -0.15532,-0.709295 0.088,-0.08802 0.28993,-0.113901 0.47113,-0.113901 0.0518,0 0.16568,0.01553 0.22781,0.02589 l 0,-0.849083 c -0.56951,0 -0.84391,0.05177 -1.13384,0.320995 -0.33653,-0.207094 -0.71965,-0.310641 -1.31505,-0.310641 -1.27362,0 -2.0554,0.605749 -2.0554,1.69299 z"
           style="font-style:normal;font-variant:normal;font-weight:normal;font-stretch:normal;font-size:10.60318947px;font-family:'Fantasque Sans Mono';-inkscape-font-specification:'Fantasque Sans Mono';fill:#000000;fill-opacity:1"
           id="path4327" />
        <path
           d="m 166.36527,62.266621 c 0.005,-0.79731 0.53844,-1.49625 1.41859,-1.49625 0.70412,0 1.2322,0.528088 1.31504,1.36164 -0.73518,0.08284 -2.06576,0.129433 -2.73363,0.13461 z m 1.41341,-2.283206 c -1.46519,0 -2.23143,1.133837 -2.23143,2.614556 0,1.620507 0.75589,2.72328 2.29874,2.72328 1.2322,0 1.82242,-0.683408 2.03469,-0.916389 l -0.63681,-0.56433 c -0.20192,0.279577 -0.63682,0.688586 -1.37717,0.688586 -1.05618,0 -1.50143,-0.678231 -1.50143,-1.470364 0.92156,-0.01035 2.102,-0.07248 3.55165,-0.170852 0.005,-0.04142 0.005,-0.119079 0.005,-0.222625 0,-0.714473 -0.19156,-2.681862 -2.14342,-2.681862 z"
           style="font-style:normal;font-variant:normal;font-weight:normal;font-stretch:normal;font-size:10.60318947px;font-family:'Fantasque Sans Mono';-inkscape-font-specification:'Fantasque Sans Mono';fill:#000000;fill-opacity:1"
           id="path4329" />
      </g>
    </g>
    <g
       id="g4181"
       transform="translate(-11.346823,10.661893)"
       style="fill:#000000;fill-opacity:1">
      <g
         style="font-style:normal;font-weight:normal;font-size:6.28570795px;line-height:125%;font-family:Sans;letter-spacing:0px;word-spacing:0px;display:inline;fill:#000000;fill-opacity:1;stroke:none;stroke-width:1px;stroke-linecap:butt;stroke-linejoin:miter;stroke-opacity:1"
         id="text4293">
        <path
           d="m 106.23224,251.66011 c -0.18067,-0.41016 -0.47363,-0.5957 -0.77149,-0.83496 l -0.50781,0.68848 c 0.30274,0.26855 0.49805,0.41015 0.49805,0.68847 l 0,3.72559 0.76172,0.005 0,-2.95898 c 0.48828,-1.08887 1.1084,-1.26465 1.60156,-1.26465 0.44922,0 0.39063,0.29785 0.41016,0.69336 l 0.76172,0 0,-0.0293 c 0,-0.88867 -0.21973,-1.44531 -1.03516,-1.44531 -0.75684,0 -1.26465,0.17578 -1.71875,0.73242 z"
           style="font-style:normal;font-variant:normal;font-weight:normal;font-stretch:normal;font-size:10px;font-family:'Fantasque Sans Mono';-inkscape-font-specification:'Fantasque Sans Mono';fill:#000000;fill-opacity:1"
           id="path4332" />
        <path
           d="m 110.75372,253.10054 c 0.005,-0.75195 0.50782,-1.41113 1.33789,-1.41113 0.66407,0 1.16211,0.49804 1.24024,1.28418 -0.69336,0.0781 -1.94824,0.12207 -2.57813,0.12695 z m 1.33301,-2.15332 c -1.38183,0 -2.10449,1.06934 -2.10449,2.46582 0,1.52832 0.71289,2.56836 2.16797,2.56836 1.16211,0 1.71875,-0.64453 1.91894,-0.86426 l -0.60058,-0.53222 c -0.19043,0.26367 -0.60059,0.64941 -1.29883,0.64941 -0.99609,0 -1.41602,-0.63965 -1.41602,-1.38672 0.86914,-0.01 1.98243,-0.0684 3.34961,-0.16113 0.005,-0.0391 0.005,-0.11231 0.005,-0.20996 0,-0.67383 -0.18067,-2.5293 -2.02149,-2.5293 z"
           style="font-style:normal;font-variant:normal;font-weight:normal;font-stretch:normal;font-size:10px;font-family:'Fantasque Sans Mono';-inkscape-font-specification:'Fantasque Sans Mono';fill:#000000;fill-opacity:1"
           id="path4334" />
        <path
           d="m 116.08575,253.15425 c 0.5127,0.26856 1.51368,0.45899 1.88965,0.72754 0.26856,0.2002 0.41992,0.34668 0.41992,0.6543 0,0.53711 -0.58105,0.7959 -1.18164,0.7959 -0.75683,0 -1.09375,-0.35157 -1.09375,-1.00586 l -0.7666,-0.005 c 0,1.04981 0.625,1.70899 1.875,1.70899 0.27832,0 0.57129,-0.0342 0.84473,-0.0977 0.52246,-0.13672 1.0791,-0.58105 1.0791,-1.37207 0,-1.38672 -1.25,-1.48437 -2.57324,-2.03613 -0.19531,-0.0879 -0.29297,-0.2002 -0.29297,-0.43457 0,-0.31738 0.43457,-0.45899 0.95215,-0.45899 0.41992,0 0.97656,0.20508 1.23535,0.50782 l 0.55176,-0.542 c -0.40039,-0.49316 -1.25977,-0.68847 -1.85547,-0.68847 -0.85449,0 -1.64551,0.35644 -1.65039,1.20117 0,0.54199 0.24902,0.87402 0.5664,1.04492 z"
           style="font-style:normal;font-variant:normal;font-weight:normal;font-stretch:normal;font-size:10px;font-family:'Fantasque Sans Mono';-inkscape-font-specification:'Fantasque Sans Mono';fill:#000000;fill-opacity:1"
           id="path4336" />
        <path
           d="m 123.67853,253.35933 c 0,1.38184 -0.57129,1.85059 -1.36719,1.85059 -0.44434,0 -0.72266,-0.30762 -0.97656,-0.55665 l 0,-2.1289 c 0.34668,-0.55664 0.58105,-0.78125 1.25,-0.78125 0.83008,0 1.09375,0.62012 1.09375,1.61621 z m -3.10547,-1.03516 -0.005,4.32129 c 0,0.44434 0.0244,0.91309 0.0684,1.26953 l 0.77636,-0.0439 c -0.0342,-0.33203 -0.0781,-0.74219 -0.0781,-1.20117 l 0,-1.01075 c 0.23437,0.15137 0.41992,0.30762 0.9082,0.30762 1.57715,0 2.20215,-1.05957 2.20215,-2.70019 0,-1.3086 -0.52246,-2.28028 -1.86523,-2.28028 -0.54688,0 -0.9375,0.1709 -1.24512,0.44434 -0.005,-0.20508 -0.0293,-0.3125 -0.0537,-0.46875 l -0.80078,0.0976 c 0.0488,0.32227 0.0928,0.74219 0.0928,1.14747 l 0,0.11718 z"
           style="font-style:normal;font-variant:normal;font-weight:normal;font-stretch:normal;font-size:10px;font-family:'Fantasque Sans Mono';-inkscape-font-specification:'Fantasque Sans Mono';fill:#000000;fill-opacity:1"
           id="path4338" />
        <path
           d="m 128.32208,254.88277 c -0.24414,0.20507 -0.45898,0.2832 -0.83008,0.28808 -0.81543,0 -1.24023,-0.57617 -1.24023,-1.52832 0,-1.1914 0.30273,-1.99707 1.31836,-1.99707 0.86426,0 1.17676,0.71289 1.18652,1.61133 l 0,0.0879 c 0,0.72266 -0.11718,1.24024 -0.43457,1.53809 z m -0.83984,1.04492 0.01,0 c 1.57227,0 2.04102,-1.25488 2.04102,-2.64649 0,-0.46875 -0.0879,-1.0205 -0.28809,-1.40625 -0.34179,-0.64453 -0.8789,-0.98144 -1.84082,-0.98144 -1.42578,0 -1.92382,1.34766 -1.92382,2.77344 0,1.36718 0.67382,2.25586 2.00195,2.26074 z"
           style="font-style:normal;font-variant:normal;font-weight:normal;font-stretch:normal;font-size:10px;font-family:'Fantasque Sans Mono';-inkscape-font-specification:'Fantasque Sans Mono';fill:#000000;fill-opacity:1"
           id="path4340" />
        <path
           d="m 131.62286,251.4062 c -0.0391,-0.23925 -0.0977,-0.43457 -0.14648,-0.55175 l -0.78125,0.18066 c 0.11719,0.45898 0.15625,0.58594 0.15625,1.45508 l 0,3.44726 0.77148,-0.005 0,-3.71094 c 0.71289,-0.34179 1.18164,-0.54687 1.49414,-0.54687 0.32227,0 0.7959,0.16113 0.7959,0.52246 l 0,2.73926 c 0,0.62988 0.44922,0.8789 0.87891,1.08886 l 0.41016,-0.54687 c -0.27344,-0.14648 -0.51758,-0.25391 -0.51758,-0.57617 l 0,-2.85645 c 0,-0.72754 -0.87403,-1.10351 -1.45996,-1.10351 -0.53711,0 -0.98633,0.1416 -1.60157,0.46386 z"
           style="font-style:normal;font-variant:normal;font-weight:normal;font-stretch:normal;font-size:10px;font-family:'Fantasque Sans Mono';-inkscape-font-specification:'Fantasque Sans Mono';fill:#000000;fill-opacity:1"
           id="path4342" />
        <path
           d="m 136.78888,253.15425 c 0.51269,0.26856 1.51367,0.45899 1.88965,0.72754 0.26855,0.2002 0.41992,0.34668 0.41992,0.6543 0,0.53711 -0.58105,0.7959 -1.18164,0.7959 -0.75684,0 -1.09375,-0.35157 -1.09375,-1.00586 l -0.7666,-0.005 c 0,1.04981 0.625,1.70899 1.875,1.70899 0.27832,0 0.57129,-0.0342 0.84472,-0.0977 0.52247,-0.13672 1.07911,-0.58105 1.07911,-1.37207 0,-1.38672 -1.25,-1.48437 -2.57325,-2.03613 -0.19531,-0.0879 -0.29297,-0.2002 -0.29297,-0.43457 0,-0.31738 0.43458,-0.45899 0.95215,-0.45899 0.41993,0 0.97657,0.20508 1.23535,0.50782 l 0.55176,-0.542 c -0.40039,-0.49316 -1.25976,-0.68847 -1.85547,-0.68847 -0.85449,0 -1.6455,0.35644 -1.65039,1.20117 0,0.54199 0.24903,0.87402 0.56641,1.04492 z"
           style="font-style:normal;font-variant:normal;font-weight:normal;font-stretch:normal;font-size:10px;font-family:'Fantasque Sans Mono';-inkscape-font-specification:'Fantasque Sans Mono';fill:#000000;fill-opacity:1"
           id="path4344" />
        <path
           d="m 142.18439,249.06734 0,1.09863 1.14746,0 0,-1.09863 -1.14746,0 z m 0.50781,1.91894 c -0.50781,0 -1.04492,0.0781 -1.5918,0.20508 l 0.1416,0.69336 c 0.46387,-0.10742 1.02051,-0.13672 1.25977,-0.13672 l 0,3.17871 c 0,0.28809 0.0391,0.67871 0.4541,0.90821 0.21485,0.11718 0.58594,0.18554 1.00098,0.18554 0.60547,0 1.30371,-0.14648 1.72363,-0.49316 l -0.33203,-0.55664 c -0.33691,0.2539 -0.94238,0.35644 -1.39648,0.35644 -0.44922,0 -0.66407,-0.0195 -0.68848,-0.41992 0,0 -0.005,-2.58789 -0.005,-3.9209 l -0.56641,0 z"
           style="font-style:normal;font-variant:normal;font-weight:normal;font-stretch:normal;font-size:10px;font-family:'Fantasque Sans Mono';-inkscape-font-specification:'Fantasque Sans Mono';fill:#000000;fill-opacity:1"
           id="path4346" />
        <path
           d="m 149.48907,253.59859 c 0,0.99609 -0.26855,1.61621 -1.09863,1.61621 -0.66894,0 -0.89844,-0.22461 -1.24512,-0.78125 l 0,-2.13379 c 0.25391,-0.24902 0.55665,-0.59082 1.00098,-0.59082 0.7959,0 1.34277,0.50781 1.34277,1.88965 z m 0.76661,0.0928 c 0,-1.64062 -0.60059,-2.73926 -2.17774,-2.73926 -0.48828,0 -0.69824,0.1709 -0.93262,0.34668 l 0,-0.99121 c 0,-0.44433 -0.0244,-0.91308 -0.0684,-1.26953 l -0.77637,0.0439 c 0.0342,0.33203 0.0732,0.74218 0.0732,1.20117 0,1.36718 0.005,3.12988 0.005,4.3457 l 0,0.11719 c 0,0.40527 -0.0439,0.83008 -0.0928,1.15234 l 0.80566,0.0928 c 0.0244,-0.15625 0.0488,-0.26368 0.0537,-0.46875 0.30762,0.27343 0.69825,0.44433 1.24512,0.44433 1.34278,0 1.86524,-0.9668 1.86524,-2.27539 z"
           style="font-style:normal;font-variant:normal;font-weight:normal;font-stretch:normal;font-size:10px;font-family:'Fantasque Sans Mono';-inkscape-font-specification:'Fantasque Sans Mono';fill:#000000;fill-opacity:1"
           id="path4348" />
        <path
           d="m 153.034,248.95992 c -0.50782,0 -1.07422,0.01 -1.6211,0.13671 l 0.13672,0.69825 c 0.29785,-0.0684 0.64942,-0.083 0.92774,-0.083 0.14648,0 0.27832,0.005 0.36132,0.005 l 0.0146,5.2002 c 0,0.28808 0.0391,0.67871 0.4541,0.9082 0.21485,0.11719 0.58594,0.18555 1.00098,0.18555 0.60547,0 1.30371,-0.14649 1.72363,-0.49317 l -0.33203,-0.55664 c -0.33691,0.25391 -0.94238,0.35645 -1.39648,0.35645 -0.44922,0 -0.66406,-0.0195 -0.68848,-0.41992 0,0 -0.0146,-4.6045 -0.0146,-5.9375 l -0.5664,0 z"
           style="font-style:normal;font-variant:normal;font-weight:normal;font-stretch:normal;font-size:10px;font-family:'Fantasque Sans Mono';-inkscape-font-specification:'Fantasque Sans Mono';fill:#000000;fill-opacity:1"
           id="path4350" />
        <path
           d="m 157.82404,257.02144 c -0.39063,0 -0.60547,-0.22461 -0.60547,-1.08887 l -0.76172,0 c 0,1.31836 0.53222,1.83594 1.38672,1.83594 0.72754,0 1.1084,-0.4834 1.36718,-1.14258 0.64454,-1.51855 1.1377,-3.12988 1.45508,-4.85351 0.0439,-0.24903 0.0684,-0.52735 0.0684,-0.82032 l -0.77148,0 c -0.0391,1.1084 -0.36133,2.51953 -0.72266,3.5791 -0.55176,-1.58691 -1.34277,-3.42285 -2.1582,-3.54492 -0.13672,-0.0195 -0.38086,-0.0391 -0.54199,-0.0391 l 0,0.74707 c 0.17578,0 0.37597,0.005 0.53711,0.15137 0.67382,0.60547 1.25488,2.15332 1.71386,3.75488 -0.18554,0.51758 -0.44922,1.4209 -0.96679,1.4209 z"
           style="font-style:normal;font-variant:normal;font-weight:normal;font-stretch:normal;font-size:10px;font-family:'Fantasque Sans Mono';-inkscape-font-specification:'Fantasque Sans Mono';fill:#000000;fill-opacity:1"
           id="path4352" />
      </g>
      <g
         id="g4317"
         transform="matrix(0.85398987,0,0,0.85398987,-82.934462,65.543674)"
         style="fill:#000000;fill-opacity:1">
        <g
           style="font-style:normal;font-weight:normal;font-size:18.87904167px;line-height:125%;font-family:Sans;letter-spacing:0px;word-spacing:0px;display:inline;fill:#000000;fill-opacity:1;stroke:none;stroke-width:1px;stroke-linecap:butt;stroke-linejoin:miter;stroke-opacity:1"
           id="text4327">
          <path
             d="m 212.3793,211.27286 q 0,0.19358 -0.15671,0.42404 -0.11062,0 -0.27655,-0.1014 0.009,-0.0553 0.009,-0.11062 0,-0.5531 -0.62685,-0.99557 0.0184,-0.0922 0.22124,-0.29499 0.2489,0.083 0.53466,0.4517 0.29499,0.36873 0.29499,0.62684 z m 2.06489,-0.72824 q 0,0.97713 -0.32264,1.39196 -0.0277,0.0276 -0.4056,0.33185 -0.28577,0.23046 -0.27655,0.38717 l 0.59919,10.39822 -0.49779,0 q -0.19358,-4.36024 -0.25811,-5.45722 -0.17515,-3.07891 -0.44248,-5.43879 0.23046,0 0.54388,-0.28576 0.29498,-0.25811 0.38717,-0.49779 0.17514,-0.47013 0.17514,-1.93584 0,-1.47492 -0.42404,-1.7146 -0.1014,0.22124 -0.1014,0.83886 0,0.15672 0.009,0.46092 0.009,0.29498 0.009,0.43326 0.23046,0.21202 0.3042,0.41482 l -0.13827,0.11984 q -0.43326,-0.49779 -1.57633,-0.49779 -0.28576,0 -0.73746,0.0922 l -0.11062,-0.12905 q 0.13827,-0.14749 0.3042,-0.2489 l -0.0553,-2.14786 q -0.14749,0.0277 -0.25811,0.34108 -0.1014,0.25811 -0.1014,0.4517 0,0.11983 0.009,0.36873 0.0184,0.24889 0.0184,0.36873 0,1.88975 -0.6545,2.15708 -0.21202,-0.34108 -0.42404,-0.69137 -0.2489,-0.36873 -0.68216,-0.36873 -0.16593,0 -0.32264,0.083 0.31343,0.4517 0.96792,1.33665 0.60841,0.76512 1.38275,0.9587 l 0,2.18473 q 0,0.10141 -0.0184,0.29499 -0.0184,0.19358 -0.0184,0.29498 0,0.0369 0.009,0.0922 1.25369,0.96792 1.25369,3.30014 0,2.14786 -1.17072,3.46608 -1.21682,1.37352 -3.33702,1.37352 -2.0649,0 -3.30937,-1.40118 -1.18915,-1.34587 -1.18915,-3.43842 0,-1.47492 0.36873,-2.19395 0.0461,-0.0922 0.88495,-1.19838 l -0.0369,-2.7747 q 0.63606,-0.12905 1.15228,-0.72824 0.40561,-0.57154 0.81121,-1.13385 0.083,-0.11062 0.38717,-0.38717 -0.0738,-0.12905 -0.26733,-0.12905 -0.43326,0 -0.70059,0.34107 -0.009,0.0184 -0.39638,0.70981 l -0.18437,0 q -0.12906,-0.14749 -0.29499,-0.54388 -0.15671,-0.4056 -0.15671,-0.58997 0,-0.12906 0.009,-0.37795 0.009,-0.25811 0.009,-0.38717 0,-1.68694 -0.44248,-1.76991 -0.0461,0.13828 -0.0461,0.5531 l 0,1.43805 q 0,0.12906 0.3042,0.40561 -0.0553,0.12905 -0.17514,0.12905 -0.11062,0 -0.34108,-0.0461 -0.22124,-0.0553 -0.33186,-0.0553 -1.10619,0 -1.58554,0.49779 -0.12906,-0.0553 -0.12906,-0.17515 0,-0.11062 0.30421,-0.35951 l 0,-1.59476 -0.083,-0.12906 q -0.38717,0.2028 -0.38717,1.28134 0,0.22124 0.009,0.67294 0,0.44247 0,0.66371 0,1.2076 0.54388,1.59476 0.12906,0.0922 0.44248,0.21202 0.0461,0.11062 0.0369,0.22124 l -0.60841,9.24594 q 0,0 0,1.27212 0,0.0645 -0.0553,0.15671 l -0.49778,0 0.59919,-10.35213 q 0.009,-0.15671 0.009,-0.1014 0,-0.1014 -0.19358,-0.19358 -0.19358,-0.1014 -0.4056,-0.35951 -0.37795,-0.47014 -0.37795,-2.00037 0,-1.98193 0.37795,-2.40597 0.19358,-0.11062 0.52544,-0.39639 0.0369,-0.13827 0.22124,-0.39639 0.15671,-0.0461 0.45169,-0.18436 0.16593,-0.12906 0.32264,-0.25811 0.11984,-0.083 0.44248,-0.083 0.12906,0 0.26733,0.0922 0.13827,0.083 0.26733,0.15672 0.17515,0.0369 0.49779,0.17514 0.35029,0.23968 0.46091,1.55789 0.0645,0.89418 0.12906,1.79757 0.083,-0.13828 0.23967,-0.40561 0.27655,-0.46091 0.86652,-0.46091 0.72825,0 0.72825,0.58075 0,0.13828 -0.22124,0.37795 -0.16593,0.17515 -0.33186,0.3503 -0.12906,0.27654 -0.42404,0.79277 -0.19359,0.27655 -0.59919,0.58997 -0.33186,0.25811 -0.66372,0.51622 l 0,2.12942 q 0.0553,0.0277 0.0922,0.0277 0.14749,0 0.37795,-0.1014 0.35029,-0.15671 0.37794,-0.16593 0.66372,-0.22124 1.91741,-0.22124 1.56711,0 2.71017,0.50701 0.083,-0.22124 0.083,-0.43326 l 0,-1.74226 q -0.67294,-0.46091 -0.97714,-0.82043 -0.13828,-0.16592 -0.70981,-1.04166 -0.0184,-0.0277 -0.33186,-0.3503 -0.2028,-0.22124 -0.2028,-0.41482 0,-0.58075 0.68215,-0.58075 0.68216,0 1.1062,0.90339 0.12905,-0.19358 0.12905,-0.42404 l 0,-1.85287 q 0,-0.16593 0.13828,-0.5531 0.13827,-0.38717 0.23967,-0.47935 0.0369,-0.0369 0.48857,-0.22124 0.0461,-0.0184 0.32264,-0.19359 0.14749,-0.0922 0.39639,-0.0922 0.19358,0 0.36873,0.11984 0.14749,0.11062 0.3042,0.22124 0.16593,0.0461 0.44248,0.18436 0.0645,0.12906 0.23046,0.39639 0.16593,0.1014 0.46091,0.34108 0.47935,0.507 0.47935,2.95907 z m -9.60545,-0.12906 q -0.2028,0.24889 -0.4056,0.48857 -0.22124,0.27655 -0.22124,0.56231 0,0.083 0.0184,0.17515 -0.0922,0.0277 -0.27655,0.0553 -0.17515,-0.32264 -0.17515,-0.42404 0,-0.24889 0.31342,-0.61763 0.27655,-0.31342 0.53466,-0.46091 l 0.21202,0.22124 z m 8.17662,-1.13385 0,-2.09255 -0.16593,-0.0553 q -0.25811,0.59919 -0.25811,1.72382 l 0,0.36873 q 0.13827,0.0277 0.42404,0.0553 z m -0.63606,-2.54425 q -0.1014,0 -0.16593,-0.0645 -0.27655,0.3042 -0.27655,0.82042 l 0,1.69617 0.29498,0 0,-1.84366 q 0,-0.11984 0.0645,-0.3042 0.0737,-0.23046 0.083,-0.30421 z m -8.07522,1.4104 q 0,-1.44727 -0.3042,-1.47492 -0.16593,0.11062 -0.16593,0.17514 0,0.0922 0.0553,0.23046 0.0737,0.17515 0.083,0.23046 0.0369,0.18436 0.0369,0.98635 l 0,0.64528 q 0,0.0461 0.0277,0.2489 l 0.23968,0 q 0,-0.11984 0.0184,-0.51623 0.009,-0.33185 0.009,-0.52544 z m -0.71902,1.07854 0,-0.81121 q 0,-0.14749 -0.17515,-1.17072 -0.0737,-0.1014 -0.16593,-0.11984 -0.11062,0.11062 -0.11062,0.35952 0,2.09255 0.009,1.79756 0.14749,-0.0276 0.44248,-0.0553 z m 8.49925,8.87721 q 0,-3.63201 -3.95464,-3.63201 -3.99152,0 -3.99152,3.66888 0,1.98193 0.96792,3.13422 1.04167,1.23525 2.97751,1.23525 1.85287,0 2.95907,-1.29978 1.04166,-1.22603 1.04166,-3.10656 z m -1.73304,-0.64528 q -0.18436,-0.58075 -0.75589,-0.58075 -0.48857,0 -0.71903,0.55309 0.009,-0.32264 0.2028,-0.56231 0.2028,-0.23968 0.51623,-0.23968 0.75589,0 0.75589,0.82965 z m -0.18436,0.64528 q 0,0.63606 -0.64528,0.63606 -0.6545,0 -0.6545,-0.6545 0,-0.59919 0.61763,-0.59919 0.68215,0 0.68215,0.61763 z m -2.83001,-0.61763 q -0.23046,-0.6084 -0.7559,-0.6084 -0.58075,0 -0.76512,0.6084 0.1014,-0.8573 0.76512,-0.8573 0.70059,0 0.7559,0.8573 z m 0.0184,0.59919 q 0,0.6545 -0.65449,0.6545 -0.64528,0 -0.64528,-0.6545 0,-0.59919 0.64528,-0.59919 0.65449,0 0.65449,0.59919 z m 2.40597,2.03724 q 0,0.35951 -0.36873,0.83886 -0.35951,0.48857 -0.70059,0.58076 -0.23967,0.0645 -0.66371,0.0645 -0.23968,0 -0.4517,-0.0645 -0.45169,-0.13828 -0.79277,-0.70981 -0.33186,-0.53466 -0.33186,-1.03245 l 3.30936,0 0,0.32264 z m 0.2489,-1.97271 q -0.19359,0 -0.26733,-0.0645 -0.1014,0.2028 -0.22124,0.21202 l 0,0.28577 0.17515,0 q 0.21202,-0.13828 0.31342,-0.43326 z m -0.64528,-0.16593 0,-0.19359 -0.19359,0 -0.0553,0.19359 0.2489,0 z m -2.21239,0.33186 0,-0.16593 q -0.15671,0 -0.23046,-0.0645 -0.1014,0.21202 -0.25811,0.21202 l 0,0.28577 0.16593,0 q 0.32264,-0.1475 0.32264,-0.26733 z m -0.60841,-0.33186 0,-0.19359 -0.23967,0 0,0.19359 0.23967,0 z"
             style="font-style:normal;font-variant:normal;font-weight:normal;font-stretch:normal;font-family:'Fantasque Sans Mono';-inkscape-font-specification:'Fantasque Sans Mono';fill:#000000;fill-opacity:1"
             id="path4403" />
        </g>
      </g>
      <g
         style="font-style:normal;font-weight:normal;font-size:5.72107458px;line-height:125%;font-family:Sans;letter-spacing:0px;word-spacing:0px;display:inline;fill:#000000;fill-opacity:1;stroke:none;stroke-width:1px;stroke-linecap:butt;stroke-linejoin:miter;stroke-opacity:1"
         id="text4464">
        <path
           d="m 61.156136,253.18625 c 0.0049,-0.75195 0.507812,-1.41113 1.33789,-1.41113 0.664063,0 1.16211,0.49804 1.240235,1.28418 -0.69336,0.0781 -1.948243,0.12207 -2.578125,0.12695 z m 1.333007,-2.15332 c -1.381836,0 -2.104492,1.06933 -2.104492,2.46582 0,1.52832 0.712891,2.56836 2.167969,2.56836 1.162109,0 1.71875,-0.64453 1.918945,-0.86426 l -0.600586,-0.53223 c -0.190429,0.26368 -0.600586,0.64942 -1.298828,0.64942 -0.996094,0 -1.416015,-0.63965 -1.416015,-1.38672 0.86914,-0.01 1.982421,-0.0684 3.349609,-0.16113 0.0049,-0.0391 0.0049,-0.11231 0.0049,-0.20996 0,-0.67383 -0.180664,-2.5293 -2.021485,-2.5293 z"
           style="font-style:normal;font-variant:normal;font-weight:normal;font-stretch:normal;font-size:10px;font-family:'Fantasque Sans Mono';-inkscape-font-specification:'Fantasque Sans Mono';fill:#000000;fill-opacity:1"
           id="path4355" />
        <path
           d="m 66.497932,251.49191 c -0.03906,-0.23925 -0.09766,-0.43457 -0.146484,-0.55175 l -0.78125,0.18066 c 0.117188,0.45898 0.15625,0.58594 0.15625,1.45508 l 0,3.44726 0.771484,-0.005 0,-3.71094 c 0.712891,-0.34179 1.181641,-0.54687 1.494141,-0.54687 0.322266,0 0.795898,0.16113 0.795898,0.52246 l 0,2.73926 c 0,0.62988 0.449219,0.8789 0.878907,1.08886 l 0.410156,-0.54687 c -0.273438,-0.14649 -0.517578,-0.25391 -0.517578,-0.57617 l 0,-2.85645 c 0,-0.72754 -0.874024,-1.10351 -1.459961,-1.10351 -0.537109,0 -0.986328,0.1416 -1.601563,0.46386 z"
           style="font-style:normal;font-variant:normal;font-weight:normal;font-stretch:normal;font-size:10px;font-family:'Fantasque Sans Mono';-inkscape-font-specification:'Fantasque Sans Mono';fill:#000000;fill-opacity:1"
           id="path4357" />
        <path
           d="m 73.089729,249.16281 0,1.09863 1.142578,0.0147 0,-1.09863 -1.142578,-0.0146 z m 0.327149,7.41211 c -0.0098,0.1709 -0.170899,0.57129 -0.717774,0.57129 l -0.08301,0 c -0.307617,0 -0.717773,-0.0342 -1.201171,-0.8252 l -0.615235,0.47852 c 0.615235,1.00098 1.31836,1.1084 1.918946,1.1084 1.162109,0 1.45996,-0.60547 1.45996,-1.31348 l 0,-5.55176 -0.571289,0 c -0.507812,0 -1.035156,0.0781 -1.582031,0.20508 l 0.136719,0.69336 c 0.439453,-0.10254 0.693359,-0.1416 1.171875,-0.1416 l 0.07813,0 0.0049,4.77539 z"
           style="font-style:normal;font-variant:normal;font-weight:normal;font-stretch:normal;font-size:10px;font-family:'Fantasque Sans Mono';-inkscape-font-specification:'Fantasque Sans Mono';fill:#000000;fill-opacity:1"
           id="path4359" />
        <path
           d="m 78.724495,254.96848 c -0.244141,0.20507 -0.458984,0.2832 -0.830078,0.28808 -0.81543,0 -1.240235,-0.57617 -1.240235,-1.52832 0,-1.19141 0.302735,-1.99707 1.31836,-1.99707 0.864258,0 1.176758,0.71289 1.186523,1.61133 l 0,0.0879 c 0,0.72266 -0.117187,1.24023 -0.43457,1.53809 z m -0.839844,1.04492 0.0098,0 c 1.572265,0 2.041015,-1.25489 2.041015,-2.64649 0,-0.46875 -0.08789,-1.0205 -0.288086,-1.40625 -0.341796,-0.64453 -0.878906,-0.98144 -1.84082,-0.98144 -1.425781,0 -1.923828,1.34765 -1.923828,2.77344 0,1.36718 0.673828,2.25585 2.001953,2.26074 z"
           style="font-style:normal;font-variant:normal;font-weight:normal;font-stretch:normal;font-size:10px;font-family:'Fantasque Sans Mono';-inkscape-font-specification:'Fantasque Sans Mono';fill:#000000;fill-opacity:1"
           id="path4361" />
        <path
           d="m 82.347542,257.10715 c -0.390625,0 -0.605469,-0.22461 -0.605469,-1.08887 l -0.761719,0 c 0,1.31836 0.532227,1.83594 1.386719,1.83594 0.727539,0 1.108398,-0.4834 1.367188,-1.14258 0.644531,-1.51856 1.137695,-3.12988 1.455078,-4.85352 0.04394,-0.24902 0.06836,-0.52734 0.06836,-0.82031 l -0.771484,0 c -0.03906,1.1084 -0.361328,2.51953 -0.722657,3.5791 -0.551757,-1.58691 -1.342773,-3.42285 -2.158203,-3.54492 -0.136718,-0.0195 -0.380859,-0.0391 -0.541992,-0.0391 l 0,0.74707 c 0.175781,0 0.375977,0.005 0.537109,0.15137 0.673829,0.60546 1.254883,2.15332 1.713868,3.75488 -0.185547,0.51758 -0.449219,1.4209 -0.966797,1.4209 z"
           style="font-style:normal;font-variant:normal;font-weight:normal;font-stretch:normal;font-size:10px;font-family:'Fantasque Sans Mono';-inkscape-font-specification:'Fantasque Sans Mono';fill:#000000;fill-opacity:1"
           id="path4363" />
      </g>
    </g>
  </g>
</svg>
