<?xml version="1.0" encoding="UTF-8" standalone="no"?>
<!-- Created with Inkscape (http://www.inkscape.org/) -->

<svg
   xmlns:dc="http://purl.org/dc/elements/1.1/"
   xmlns:cc="http://creativecommons.org/ns#"
   xmlns:rdf="http://www.w3.org/1999/02/22-rdf-syntax-ns#"
   xmlns:svg="http://www.w3.org/2000/svg"
   xmlns="http://www.w3.org/2000/svg"
   xmlns:sodipodi="http://sodipodi.sourceforge.net/DTD/sodipodi-0.dtd"
   xmlns:inkscape="http://www.inkscape.org/namespaces/inkscape"
   viewBox="0 0 200 116"
   id="svg63120"
   class="isologo"
   version="1.1"
   inkscape:version="0.91 r13725"
   sodipodi:docname="isologo.svg">
  <defs
     id="defs63122" />
  <sodipodi:namedview
     id="base"
     pagecolor="#ffffff"
     bordercolor="#666666"
     borderopacity="1.0"
     inkscape:pageopacity="0.0"
     inkscape:pageshadow="2"
     inkscape:zoom="2.2350001"
     inkscape:cx="84.296799"
     inkscape:cy="-41.031935"
     inkscape:document-units="px"
     inkscape:current-layer="svg63120"
     showgrid="false"
     units="px"
     fit-margin-top="0"
     fit-margin-left="0"
     fit-margin-right="0"
     fit-margin-bottom="0"
     inkscape:window-width="956"
     inkscape:window-height="1030"
     inkscape:window-x="960"
     inkscape:window-y="48"
     inkscape:window-maximized="0" />
  <metadata
     id="metadata63125">
    <rdf:RDF>
      <cc:Work
         rdf:about="">
        <dc:format>image/svg+xml</dc:format>
        <dc:type
           rdf:resource="http://purl.org/dc/dcmitype/StillImage" />
        <dc:title></dc:title>
      </cc:Work>
    </rdf:RDF>
  </metadata>
  <g
     transform="matrix(0.204734,0,0,0.204734,-113.47487,307.55688)"
     style="display:inline"
     class="lettering">
    <g
       transform="translate(900.66606,-1708)"
       id="g4263" />
    <g
       style="fill:#0066ff"
       transform="translate(623.53792,-1548)"
       id="g4178">
      <path
         style="fill:#214478;fill-opacity:1;fill-rule:evenodd;stroke:none;stroke-width:1px;stroke-linecap:butt;stroke-linejoin:miter;stroke-opacity:1"
         d="m 346.41016,1000 -34.64063,20 -34.64062,20 -34.64258,20 34.64258,20 34.64062,20 34.64063,20 34.64062,20 34.64063,-20 34.64257,-20 34.64063,-20 -34.64063,-20 -34.64257,20 -34.64063,20 -34.64062,-20 -34.64063,-20 34.64063,-20 34.64062,-20 -34.64062,-20 z"
         transform="translate(-311.76914,-527.6378)"
         id="path4162"
         inkscape:connector-curvature="0" />
    </g>
    <g
       style="fill:#214478;fill-opacity:1"
       transform="translate(796.743,-1648)"
       id="g4221">
      <path
         style="fill:#214478;fill-opacity:1;fill-rule:evenodd;stroke:none;stroke-width:1px;stroke-linecap:butt;stroke-linejoin:miter;stroke-opacity:1"
         d="m 484.97461,920 -34.64063,20 -34.64257,20 -34.64063,20 34.64063,20 34.64257,20 34.64063,20 34.64062,20 34.64063,-20 -34.64063,-20 34.64063,-20 34.64062,20 34.64258,-20 -34.64258,-20 -34.64062,-20 -34.64063,-20 -34.64062,-20 z m 0,40 34.64062,20 -34.64062,20 -34.64063,-20 34.64063,-20 z"
         transform="translate(-484.97422,-427.6378)"
         id="path4162-3"
         inkscape:connector-curvature="0" />
    </g>
    <path
       id="path4211-9"
       d="m 976.87668,-1259.6378 -34.64063,20 -34.64258,20 -34.64062,20 -41.56921,24 c 46.52168,26.8602 95.66241,55.2302 138.56446,80 l 34.641,-20 c -34.87789,-20.1373 -73.07423,-42.1898 -103.92382,-60 l 20.78539,-12 c 35.58828,18.9239 73.96973,42.4206 103.92303,60 l 34.641,-20 c -36.9043,-21.3064 -64.02635,-36.9667 -96.99544,-56 l -6.92774,-4 20.78516,-12 34.64062,20 34.6406,20 34.6407,20 34.6425,-20 -34.6425,-20 -34.6407,-20 -34.6406,-20 z"
       style="fill:#214478;fill-opacity:1;fill-rule:evenodd;stroke:none;stroke-width:1px;stroke-linecap:butt;stroke-linejoin:miter;stroke-opacity:1"
       inkscape:connector-curvature="0"
       sodipodi:nodetypes="cccccccccccccccccccccc" />
    <g
       style="fill:#214478;fill-opacity:1"
       transform="translate(803.672,-1652)"
       id="g4336">
      <g
         style="fill:#214478;fill-opacity:1"
         transform="translate(173.20509,-99.999998)"
         id="g4294">
        <path
           style="fill:#214478;fill-opacity:1;fill-rule:evenodd;stroke:none;stroke-width:1px;stroke-linecap:butt;stroke-linejoin:miter;stroke-opacity:1"
           d="m 796.74414,740 -34.64258,20 -34.64062,20 -34.64063,20 34.64063,20 34.64062,20 34.64258,20 34.64063,20 34.64062,-20 -34.64062,-20 34.64062,-20 34.64063,-20 -34.64063,-20 -34.64062,-20 -34.64063,-20 z m 0,40 34.64063,20 -34.64063,20 -34.64258,-20 34.64258,-20 z"
           transform="translate(-658.17931,-327.6378)"
           id="path4296"
           inkscape:connector-curvature="0" />
      </g>
    </g>
    <path
       sodipodi:nodetypes="cccccccccccccccccc"
       inkscape:connector-curvature="0"
       id="path4356"
       d="m 1254.0033,-1419.6378 -34.6406,20 34.6406,20 34.6426,20 34.6406,20 -34.6406,20 -20.7858,-12 -34.6406,20 20.7838,12 20.7852,12 13.8574,8 34.6406,-20 34.6407,-20 34.6406,-20 -34.6406,-20 -34.6407,-20 -34.6406,-20 z"
       style="fill:#214478;fill-opacity:1;fill-rule:evenodd;stroke:none;stroke-width:1px;stroke-linecap:butt;stroke-linejoin:miter;stroke-opacity:1" />
    <g
       style="fill:#214478;fill-opacity:1"
       transform="translate(803.67119,-1652)"
       id="g4405">
      <path
         id="path4352"
         transform="translate(-484.97422,-427.6378)"
         d="m 1073.8711,580 -34.6406,20 -34.6407,20 -34.64058,20 34.64058,20 20.7852,12 27.7109,16 34.6426,-20 34.6406,-20 20.7852,12 -34.6426,20 -34.6406,20 34.6406,20 34.6426,-20 34.6406,-20 34.6406,-20 -34.6406,-20 -20.7851,-12 -27.7129,-16 -34.6407,20 -34.6406,20 -20.7851,-12 34.6406,-20 34.6406,-20 -34.6406,-20 z"
         style="fill:#214478;fill-opacity:1;fill-rule:evenodd;stroke:none;stroke-width:1px;stroke-linecap:butt;stroke-linejoin:miter;stroke-opacity:1"
         inkscape:connector-curvature="0" />
    </g>
    <g
       transform="translate(900.66604,-1588)"
       id="g4410" />
    <g
       transform="translate(796.743,-1648)"
       id="g4484" />
  </g>
  <g
     transform="matrix(0.204734,0,0,0.204734,-113.47487,-91.190826)"
     style="display:inline"
     class="lettering-shadow-right">
    <g
       id="g62886"
       style="display:inline;opacity:1">
      <path
         style="fill:#6c5d53;fill-opacity:1;fill-rule:evenodd;stroke:none;stroke-width:1px;stroke-linecap:butt;stroke-linejoin:miter;stroke-opacity:1"
         d="m 1080.799,668 0,8 34.641,20 0,-8 z"
         id="path7857"
         inkscape:connector-curvature="0"
         sodipodi:nodetypes="ccccc" />
      <path
         sodipodi:nodetypes="ccccc"
         inkscape:connector-curvature="0"
         id="path7873"
         d="m 1392.5681,448 0,8 27.7128,16 6.9282,-4 z"
         style="fill:#6c5d53;fill-opacity:1;fill-rule:evenodd;stroke:none;stroke-width:1px;stroke-linecap:butt;stroke-linejoin:miter;stroke-opacity:1" />
      <path
         style="fill:#6c5d53;fill-opacity:1;fill-rule:evenodd;stroke:none;stroke-width:1px;stroke-linecap:butt;stroke-linejoin:miter;stroke-opacity:1"
         d="m 1447.9937,480 0,8 76.2103,44 6.9282,-4 z"
         id="path7875"
         inkscape:connector-curvature="0"
         sodipodi:nodetypes="ccccc" />
      <path
         sodipodi:nodetypes="ccccc"
         inkscape:connector-curvature="0"
         id="path7879"
         d="m 1357.9271,508 0,8 20.7846,12 0,-8 z"
         style="fill:#6c5d53;fill-opacity:1;fill-rule:evenodd;stroke:none;stroke-width:1px;stroke-linecap:butt;stroke-linejoin:miter;stroke-opacity:1" />
      <path
         sodipodi:nodetypes="ccccc"
         inkscape:connector-curvature="0"
         id="path7849"
         d="m 1254.004,528 0,8 131.6359,76 6.9282,-4 z"
         style="fill:#6c5d53;fill-opacity:1;fill-rule:evenodd;stroke:none;stroke-width:1px;stroke-linecap:butt;stroke-linejoin:miter;stroke-opacity:1" />
      <path
         sodipodi:nodetypes="ccccc"
         inkscape:connector-curvature="0"
         id="path7865"
         d="m 1267.8605,616 0,8 20.7846,12 0,-8 z"
         style="fill:#6c5d53;fill-opacity:1;fill-rule:evenodd;stroke:none;stroke-width:1px;stroke-linecap:butt;stroke-linejoin:miter;stroke-opacity:1" />
      <path
         style="fill:#6c5d53;fill-opacity:1;fill-rule:evenodd;stroke:none;stroke-width:1px;stroke-linecap:butt;stroke-linejoin:miter;stroke-opacity:1"
         d="m 1115.44,608 0,8 96.9948,56 6.9282,-4 z"
         id="path7851"
         inkscape:connector-curvature="0"
         sodipodi:nodetypes="ccccc" />
      <path
         sodipodi:nodetypes="ccccc"
         inkscape:connector-curvature="0"
         id="path7859"
         d="m 1150.081,708 0,8 27.7128,16 6.9282,-4 z"
         style="fill:#6c5d53;fill-opacity:1;fill-rule:evenodd;stroke:none;stroke-width:1px;stroke-linecap:butt;stroke-linejoin:miter;stroke-opacity:1" />
      <path
         style="fill:#6c5d53;fill-opacity:1;fill-rule:evenodd;stroke:none;stroke-width:1px;stroke-linecap:butt;stroke-linejoin:miter;stroke-opacity:1"
         d="m 976.87591,688 0,8 131.63589,76 6.9282,-4 z"
         id="path7839"
         inkscape:connector-curvature="0"
         sodipodi:nodetypes="ccccc" />
      <path
         sodipodi:nodetypes="ccccc"
         inkscape:connector-curvature="0"
         id="path7843"
         d="m 900.66567,771.99999 0,8 96.99484,55.99999 6.92819,-4 z"
         style="fill:#6c5d53;fill-opacity:1;fill-rule:evenodd;stroke:none;stroke-width:1px;stroke-linecap:butt;stroke-linejoin:miter;stroke-opacity:1" />
      <path
         style="fill:#6c5d53;fill-opacity:1;fill-rule:evenodd;stroke:none;stroke-width:1px;stroke-linecap:butt;stroke-linejoin:miter;stroke-opacity:1"
         d="m 956.0913,740 0,8 96.9948,56 6.9282,-4 z"
         id="path7845"
         inkscape:connector-curvature="0"
         sodipodi:nodetypes="ccccc" />
      <path
         sodipodi:nodetypes="ccccc"
         inkscape:connector-curvature="0"
         id="path7829"
         d="m 796.74263,792.00001 0,8 131.63586,76 6.9282,-4.00001 z"
         style="fill:#6c5d53;fill-opacity:1;fill-rule:evenodd;stroke:none;stroke-width:1px;stroke-linecap:butt;stroke-linejoin:miter;stroke-opacity:1" />
      <path
         style="fill:#6c5d53;fill-opacity:1;fill-rule:evenodd;stroke:none;stroke-width:1px;stroke-linecap:butt;stroke-linejoin:miter;stroke-opacity:1"
         d="m 762.10161,852.00001 0,8 34.64102,20 0,-8.00001 z"
         id="path7833"
         inkscape:connector-curvature="0"
         sodipodi:nodetypes="ccccc" />
      <path
         sodipodi:nodetypes="ccccc"
         inkscape:connector-curvature="0"
         id="path7837"
         d="m 831.38364,892.00001 0,8 27.71282,16 6.9282,-4 z"
         style="fill:#6c5d53;fill-opacity:1;fill-rule:evenodd;stroke:none;stroke-width:1px;stroke-linecap:butt;stroke-linejoin:miter;stroke-opacity:1" />
      <path
         style="fill:#6c5d53;fill-opacity:1;fill-rule:evenodd;stroke:none;stroke-width:1px;stroke-linecap:butt;stroke-linejoin:miter;stroke-opacity:1"
         d="m 658.17856,872 0,8.00001 27.71282,16 6.9282,-4 z"
         id="path4622"
         inkscape:connector-curvature="0"
         sodipodi:nodetypes="ccccc" />
      <path
         sodipodi:nodetypes="ccccc"
         inkscape:connector-curvature="0"
         id="path4628"
         d="m 623.53755,932.00001 0,8 69.28203,40 0,-8 z"
         style="fill:#6c5d53;fill-opacity:1;fill-rule:evenodd;stroke:none;stroke-width:1px;stroke-linecap:butt;stroke-linejoin:miter;stroke-opacity:1" />
      <path
         style="fill:#6c5d53;fill-opacity:1;fill-rule:evenodd;stroke:none;stroke-width:1px;stroke-linecap:butt;stroke-linejoin:miter;stroke-opacity:1"
         d="m 762.10161,932.00001 0,8 27.71281,16 6.92821,-4 z"
         id="path4630"
         inkscape:connector-curvature="0"
         sodipodi:nodetypes="ccccc" />
      <path
         sodipodi:nodetypes="ccccc"
         inkscape:connector-curvature="0"
         id="path7855"
         d="m 1080.799,668 0,8 34.641,20 0,-8 z"
         style="fill:#6c5d53;fill-opacity:1;fill-rule:evenodd;stroke:none;stroke-width:1px;stroke-linecap:butt;stroke-linejoin:miter;stroke-opacity:1" />
    </g>
  </g>
  <g
     transform="matrix(0.204734,0,0,0.204734,-113.47487,-91.190826)"
     style="display:inline"
     class="lettering-shadow-top">
    <path
       style="fill:#483e37;fill-opacity:1;fill-rule:evenodd;stroke:none;stroke-width:1px;stroke-linecap:butt;stroke-linejoin:miter;stroke-opacity:1"
       d="m 1392.5681,456 0,-8 -103.9231,60 6.9282,4 z"
       id="path7871"
       inkscape:connector-curvature="0"
       sodipodi:nodetypes="ccccc" />
    <path
       sodipodi:nodetypes="ccccc"
       inkscape:connector-curvature="0"
       id="path7877"
       d="m 1447.9937,488 0,-8 -69.282,40 0,8 z"
       style="fill:#483e37;fill-opacity:1;fill-rule:evenodd;stroke:none;stroke-width:1px;stroke-linecap:butt;stroke-linejoin:miter;stroke-opacity:1" />
    <path
       sodipodi:nodetypes="ccccc"
       inkscape:connector-curvature="0"
       id="path7881"
       d="m 1461.8501,536 0,-8 -69.282,40 6.9282,4 z"
       style="fill:#483e37;fill-opacity:1;fill-rule:evenodd;stroke:none;stroke-width:1px;stroke-linecap:butt;stroke-linejoin:miter;stroke-opacity:1" />
    <path
       style="fill:#483e37;fill-opacity:1;fill-rule:evenodd;stroke:none;stroke-width:1px;stroke-linecap:butt;stroke-linejoin:miter;stroke-opacity:1"
       d="m 1323.2861,616 0,-8 -34.6411,20 0,8 z"
       id="path7863"
       inkscape:connector-curvature="0"
       sodipodi:nodetypes="ccccc" />
    <path
       sodipodi:nodetypes="ccccc"
       inkscape:connector-curvature="0"
       id="path7867"
       d="m 1267.8604,624 0,-8 -34.641,20 6.9282,4 z"
       style="fill:#483e37;fill-opacity:1;fill-rule:evenodd;stroke:none;stroke-width:1px;stroke-linecap:butt;stroke-linejoin:miter;stroke-opacity:1" />
    <path
       style="fill:#483e37;fill-opacity:1;fill-rule:evenodd;stroke:none;stroke-width:1px;stroke-linecap:butt;stroke-linejoin:miter;stroke-opacity:1"
       d="m 1254.004,536 0,-8 -34.641,20 6.9282,4 z"
       id="path7869"
       inkscape:connector-curvature="0"
       sodipodi:nodetypes="ccccc" />
    <path
       sodipodi:nodetypes="ccccc"
       inkscape:connector-curvature="0"
       id="path7853"
       d="m 1115.4399,616 0,-8 -103.923,60 6.9282,4 z"
       style="fill:#483e37;fill-opacity:1;fill-rule:evenodd;stroke:none;stroke-width:1px;stroke-linecap:butt;stroke-linejoin:miter;stroke-opacity:1" />
    <path
       sodipodi:nodetypes="ccccc"
       inkscape:connector-curvature="0"
       id="path7861"
       d="m 1150.081,676 0,-8 -34.641,20 0,8 z"
       style="fill:#483e37;fill-opacity:1;fill-rule:evenodd;stroke:none;stroke-width:1px;stroke-linecap:butt;stroke-linejoin:miter;stroke-opacity:1" />
    <path
       style="fill:#483e37;fill-opacity:1;fill-rule:evenodd;stroke:none;stroke-width:1px;stroke-linecap:butt;stroke-linejoin:miter;stroke-opacity:1"
       d="m 976.87588,696 0,-8 -145.49227,84 6.9282,4 z"
       id="path7847"
       inkscape:connector-curvature="0"
       sodipodi:nodetypes="ccccc" />
    <path
       sodipodi:nodetypes="ccccc"
       inkscape:connector-curvature="0"
       id="path7831"
       d="m 796.7426,800.00001 0,-8 -103.92305,60 6.92821,3.99999 z"
       style="fill:#483e37;fill-opacity:1;fill-rule:evenodd;stroke:none;stroke-width:1px;stroke-linecap:butt;stroke-linejoin:miter;stroke-opacity:1" />
    <path
       style="fill:#483e37;fill-opacity:1;fill-rule:evenodd;stroke:none;stroke-width:1px;stroke-linecap:butt;stroke-linejoin:miter;stroke-opacity:1"
       d="m 831.38361,860 0,-8 -34.64101,20 0,8.00001 z"
       id="path7835"
       inkscape:connector-curvature="0"
       sodipodi:nodetypes="ccccc" />
    <path
       style="fill:#483e37;fill-opacity:1;fill-rule:evenodd;stroke:none;stroke-width:1px;stroke-linecap:butt;stroke-linejoin:miter;stroke-opacity:1"
       d="m 658.17853,880.00001 0,-8.00001 -103.92305,60.00001 6.92821,4 z"
       id="path4632"
       inkscape:connector-curvature="0"
       sodipodi:nodetypes="ccccc" />
    <path
       sodipodi:nodetypes="ccccc"
       inkscape:connector-curvature="0"
       id="path4640"
       d="m 762.10158,940.00001 0,-8 -69.28203,40 0,8 z"
       style="fill:#483e37;fill-opacity:1;fill-rule:evenodd;stroke:none;stroke-width:1px;stroke-linecap:butt;stroke-linejoin:miter;stroke-opacity:1" />
  </g>
</svg>
